<?xml version="1.0" encoding="UTF-8" standalone="no"?>
<svg
   xmlns:dc="http://purl.org/dc/elements/1.1/"
   xmlns:cc="http://creativecommons.org/ns#"
   xmlns:rdf="http://www.w3.org/1999/02/22-rdf-syntax-ns#"
   xmlns:svg="http://www.w3.org/2000/svg"
   xmlns="http://www.w3.org/2000/svg"
   xmlns:xlink="http://www.w3.org/1999/xlink"
   xmlns:sodipodi="http://sodipodi.sourceforge.net/DTD/sodipodi-0.dtd"
   xmlns:inkscape="http://www.inkscape.org/namespaces/inkscape"
   width="64"
   height="64"
   viewBox="0 0 16.933333 16.933334"
   version="1.1"
   id="svg8"
   inkscape:version="1.0 (4035a4fb49, 2020-05-01)"
   sodipodi:docname="aza-r.svg">
  <defs
     id="defs2">
    <linearGradient
       inkscape:collect="always"
       xlink:href="#linearGradient930"
       id="linearGradient1253"
       gradientUnits="userSpaceOnUse"
       x1="-96.000031"
       y1="352"
       x2="-72.000031"
       y2="352"
       spreadMethod="reflect" />
    <linearGradient
       id="linearGradient930"
       inkscape:collect="always">
      <stop
         id="stop926"
         offset="0"
         style="stop-color:#f2dda2;stop-opacity:1" />
      <stop
         id="stop928"
         offset="1"
         style="stop-color:#bcaa75;stop-opacity:1" />
    </linearGradient>
  </defs>
  <sodipodi:namedview
     id="base"
     pagecolor="#ffffff"
     bordercolor="#666666"
     borderopacity="1.0"
     inkscape:pageopacity="0.0"
     inkscape:pageshadow="2"
     inkscape:zoom="12.140625"
     inkscape:cx="32"
     inkscape:cy="32"
     inkscape:document-units="px"
     inkscape:current-layer="layer1"
     inkscape:document-rotation="0"
     showgrid="true"
     units="px"
     inkscape:pagecheckerboard="true"
     inkscape:window-width="1920"
     inkscape:window-height="1001"
     inkscape:window-x="-9"
     inkscape:window-y="-9"
     inkscape:window-maximized="1">
    <inkscape:grid
       type="xygrid"
       id="grid833" />
  </sodipodi:namedview>
  <metadata
     id="metadata5">
    <rdf:RDF>
      <cc:Work
         rdf:about="">
        <dc:format>image/svg+xml</dc:format>
        <dc:type
           rdf:resource="http://purl.org/dc/dcmitype/StillImage" />
        <dc:title></dc:title>
      </cc:Work>
    </rdf:RDF>
  </metadata>
  <g
     inkscape:label="Layer 1"
     inkscape:groupmode="layer"
     id="layer1">
    <g
       style="stroke:#000000;stroke-opacity:1"
       id="g1111-5-8"
       transform="translate(33.866675,-84.666655)">
      <path
         transform="scale(0.26458334)"
         d="m -113,332 c 0,1.99999 -1,5 -3,5 -2,0 -2,2 -2,2 0,2 2,3 2,3 l 3,21 c 0,0 -2,1.00001 -1,3 0,0 1,2 3,2 2,0 3,2 3,4 0,-1.99999 1,-5 3,-5 2,0 2,-2 2,-2 0,-2.00001 -2,-3 -2,-3 l -0.30859,-2.1543 C -100.31789,358.30634 -94,359 -94,359 c 0,4.64449 0.970917,4.94866 9.910156,3.36914 L -84,363 c 0,0 -1.999999,1 -1,3 0,0 1.000003,2 3,2 2.000001,0 3,2 3,4 -4e-6,-1.99999 1.000003,-5 3,-5 2.000001,0 2,-2 2,-2 0,-2 -2,-3 -2,-3 l -3,-21 c 0,0 1.999999,-1 1,-3 0,0 -1.000003,-2 -3,-2 -2.000001,0 -3,-2 -3,-4 4e-6,1.99999 -1.000003,5 -3,5 -2.000001,0 -2,2 -2,2 0,1.64063 1.291734,2.57043 1.775391,2.86523 C -88.870022,342.40637 -91.271511,343 -94,343 c 0,-4 -0.999999,-5 -6,-5 0,0 -3.34903,0.004 -6.73828,1.32812 0.0509,-0.37873 -0.008,-0.8206 -0.26172,-1.32812 0,0 -1,-2 -3,-2 -2,0 -3,-2 -3,-4 z"
         style="fill:url(#linearGradient1253);fill-opacity:1;stroke:#000000;stroke-width:0.999999px;stroke-linecap:butt;stroke-linejoin:miter;stroke-opacity:1"
         id="path1078-1-6-9" />
      <path
         sodipodi:nodetypes="cccc"
         id="path1078-0-3"
         d="m -29.368751,90.487502 c 1.058334,-1.058333 2.910417,-1.058333 2.910417,-1.058333 1.322917,-10e-7 1.5875,0.264582 1.5875,1.322915 1.322917,0 2.38125,-0.529166 2.38125,-0.529166"
         style="fill:none;stroke:#000000;stroke-width:0.264583px;stroke-linecap:butt;stroke-linejoin:miter;stroke-opacity:1" />
      <path
         id="path1080-5-0"
         d="m -28.575001,95.514586 c 1.322917,-0.79375 3.704167,-0.529167 3.704167,-0.529167 0,1.322915 0.264584,1.322915 3.175,0.793749"
         style="fill:none;stroke:#000000;stroke-width:0.264583px;stroke-linecap:butt;stroke-linejoin:miter;stroke-opacity:1" />
      <path
         id="path1082-4-2"
         d="M -24.870834,94.985419 V 93.662502"
         style="fill:none;stroke:#000000;stroke-width:0.264583px;stroke-linecap:butt;stroke-linejoin:miter;stroke-opacity:1" />
      <path
         id="path1084-1-8"
         d="m -24.870834,90.752086 v 0.79375"
         style="fill:none;stroke:#000000;stroke-width:0.264583px;stroke-linecap:butt;stroke-linejoin:miter;stroke-opacity:1" />
    </g>
  </g>
</svg>
