<?xml version="1.0" encoding="UTF-8" standalone="no"?>
<svg
   xmlns:dc="http://purl.org/dc/elements/1.1/"
   xmlns:cc="http://creativecommons.org/ns#"
   xmlns:rdf="http://www.w3.org/1999/02/22-rdf-syntax-ns#"
   xmlns:svg="http://www.w3.org/2000/svg"
   xmlns="http://www.w3.org/2000/svg"
   xmlns:sodipodi="http://sodipodi.sourceforge.net/DTD/sodipodi-0.dtd"
   xmlns:inkscape="http://www.inkscape.org/namespaces/inkscape"
   width="12"
   height="12"
   viewBox="0 0 3.1749999 3.1750001"
   version="1.1"
   id="svg8"
   inkscape:version="1.0 (4035a4fb49, 2020-05-01)"
   sodipodi:docname="black-mana-symbol.svg">
  <defs
     id="defs2" />
  <sodipodi:namedview
     id="base"
     pagecolor="#ffffff"
     bordercolor="#666666"
     borderopacity="1.0"
     inkscape:pageopacity="0.0"
     inkscape:pageshadow="2"
     inkscape:zoom="37"
     inkscape:cx="10.5"
     inkscape:cy="10.5"
     inkscape:document-units="px"
     inkscape:current-layer="layer1"
     inkscape:document-rotation="0"
     showgrid="true"
     units="px"
     inkscape:pagecheckerboard="true"
     inkscape:window-width="1920"
     inkscape:window-height="1001"
     inkscape:window-x="-9"
     inkscape:window-y="-9"
     inkscape:window-maximized="1">
    <inkscape:grid
       type="xygrid"
       id="grid833" />
  </sodipodi:namedview>
  <metadata
     id="metadata5">
    <rdf:RDF>
      <cc:Work
         rdf:about="">
        <dc:format>image/svg+xml</dc:format>
        <dc:type
           rdf:resource="http://purl.org/dc/dcmitype/StillImage" />
        <dc:title></dc:title>
      </cc:Work>
    </rdf:RDF>
  </metadata>
  <g
     inkscape:label="Layer 1"
     inkscape:groupmode="layer"
     id="layer1">
    <g
       transform="translate(-6.8791668)"
       id="g1063">
      <g
         id="g1024">
        <circle
           style="fill:#c8c0c0;fill-opacity:1;fill-rule:evenodd;stroke:none;stroke-width:0.015875;stroke-linecap:round;stroke-linejoin:bevel"
           id="path857-3"
           cx="8.4666672"
           cy="1.5875"
           r="1.5875001" />
        <path
           id="path851-0"
           d="m 8.8340083,2.8450435 c -0.00987,-0.045998 -0.010904,-0.099835 -0.00264,-0.1364994 0.00956,-0.042399 0.00664,-0.084153 -0.00974,-0.1393236 -0.021244,-0.071535 -0.027327,-0.078327 -0.066149,-0.073844 -0.040786,0.00471 -0.042542,0.00859 -0.038149,0.084311 l 0.0046,0.079375 -0.091918,0.059174 -0.091918,0.059174 -0.00794,-0.1464861 -0.00794,-0.1464862 H 8.4746041 8.426979 L 8.4046283,2.6630311 8.3822776,2.8416249 8.3173158,2.8414209 8.252354,2.8412169 8.205636,2.6503494 C 8.1707091,2.5076545 8.1530778,2.4606285 8.135778,2.4640251 8.099543,2.4711351 8.066424,2.5855893 8.076803,2.6678212 c 0.00502,0.039739 0.00452,0.105819 -0.0011,0.1468437 -0.00984,0.071779 -0.012203,0.07459 -0.062743,0.07459 -0.032758,0 -0.069279,-0.014485 -0.097061,-0.038495 C 7.871399,2.8122999 7.871361,2.8120949 7.875037,2.62817 7.877057,2.526918 7.885801,2.3693062 7.89446,2.2779217 7.909172,2.1226508 7.908049,2.1081158 7.877306,2.0560116 7.859213,2.0253456 7.841792,2.0002556 7.838594,2.0002556 7.810749,2.0002556 7.3783078,1.9013336 7.3580211,1.8903235 7.3103588,1.8644514 7.2464636,1.787104 7.2195677,1.7227182 7.1373544,1.5259091 7.1955912,1.124701 7.342387,0.8765848 7.391801,0.7930636 7.6161276,0.5397498 7.6406765,0.5397498 c 0.00614,0 0.024399,0.0579152 0.040566,0.12870046 0.022902,0.10027296 0.036625,0.13129122 0.062128,0.14042952 0.1130094,0.0404935 0.3472138,0.11224392 0.3517088,0.10774896 0.00296,-0.002957 -0.035892,-0.0354278 -0.08633,-0.0721579 C 7.8116201,0.70091758 7.7684833,0.63744766 7.7682556,0.49061649 7.7681416,0.41726897 7.7983384,0.39054487 7.9462107,0.3331259 8.312845,0.19076132 8.8834011,0.24566684 9.172378,0.4511219 L 9.246519,0.5038339 9.178062,0.5627366 C 9.140411,0.5951331 9.0631705,0.6496095 9.0064175,0.68379524 c -0.096088,0.0578796 -0.099809,0.062162 -0.054079,0.0622428 0.054431,9.6e-5 0.1712098,-0.0379897 0.3158606,-0.10301328 l 0.095094,-0.0427469 0.045174,0.0530797 C 9.6346795,0.9191575 9.7611116,1.2478295 9.7496764,1.5403644 9.744607,1.6700418 9.7376027,1.7021766 9.7006674,1.7652016 9.6398493,1.8689801 9.5757805,1.9022082 9.3511593,1.9464679 8.9970868,2.0162347 9.0140339,1.9902237 9.028023,2.4424302 9.041612,2.8817061 9.04146,2.8825082 8.940337,2.904195 8.89724,2.913435 8.859351,2.921 8.856138,2.921 c -0.00321,0 -0.013171,-0.03418 -0.02213,-0.075956 z M 8.6651006,2.1304476 c -4e-6,-0.1625904 -0.00267,-0.1760203 -0.062065,-0.3127602 -0.034133,-0.078581 -0.064492,-0.1458516 -0.067465,-0.1494897 -0.01344,-0.01645 -0.019807,0.019486 -0.036331,0.2050669 -0.034417,0.3865311 -0.052011,0.3935075 -0.08003,0.031735 -0.010482,-0.1353343 -0.021476,-0.2485637 -0.024432,-0.2516209 -0.025187,-0.02605 -0.1066964,0.1267636 -0.1325121,0.2484336 -0.019515,0.091973 -0.021403,0.3052822 -0.00326,0.3683124 0.00808,0.028057 0.020405,0.03798 0.042074,0.033861 0.098761,-0.018775 0.2116941,-0.017461 0.2687755,0.00313 0.039673,0.014309 0.069457,0.017334 0.079375,0.00806 0.00873,-0.00816 0.015873,-0.091289 0.015871,-0.1847262 z M 8.1094795,1.7467023 c 0.036058,-0.00833 0.079551,-0.033273 0.1006407,-0.057722 0.031668,-0.036713 0.035572,-0.053513 0.026498,-0.1140249 C 8.2156862,1.4353692 8.1295163,1.3037227 8.0024589,1.217217 7.8886277,1.1397162 7.7939735,1.1177672 7.6856507,1.1437534 7.56935,1.1716535 7.4329781,1.3061678 7.3965158,1.4289499 c -0.03096,0.1042528 -0.031305,0.1291409 -0.00274,0.1975126 0.044037,0.1053955 0.1311074,0.1309962 0.4537635,0.1334164 0.1091406,8.19e-4 0.2270125,-0.00511 0.2619374,-0.013177 z M 9.4774544,1.7237181 C 9.5454119,1.6825936 9.5703578,1.6299939 9.5680273,1.532739 9.5647015,1.3939381 9.4624773,1.2379832 9.3340824,1.1758282 9.2425201,1.1315038 9.103252,1.1317153 9.0111136,1.1763202 8.875315,1.2420591 8.7392696,1.4166348 8.7124563,1.559562 c -0.013815,0.07364 0.014918,0.1613188 0.060309,0.1840378 0.022982,0.011503 0.1427441,0.016403 0.3447767,0.014107 0.273312,-0.00311 0.3154582,-0.00709 0.3599122,-0.033987 z"
           style="fill:#161616;fill-opacity:1;stroke-width:0.015875" />
      </g>
    </g>
  </g>
</svg>
