<?xml version="1.0" encoding="UTF-8" standalone="no"?>
<svg
   xmlns:dc="http://purl.org/dc/elements/1.1/"
   xmlns:cc="http://creativecommons.org/ns#"
   xmlns:rdf="http://www.w3.org/1999/02/22-rdf-syntax-ns#"
   xmlns:svg="http://www.w3.org/2000/svg"
   xmlns="http://www.w3.org/2000/svg"
   xmlns:sodipodi="http://sodipodi.sourceforge.net/DTD/sodipodi-0.dtd"
   xmlns:inkscape="http://www.inkscape.org/namespaces/inkscape"
   width="12"
   height="12"
   viewBox="0 0 3.1749999 3.1750001"
   version="1.1"
   id="svg8"
   inkscape:version="1.0 (4035a4fb49, 2020-05-01)"
   sodipodi:docname="blue-mana-symbol.svg">
  <defs
     id="defs2" />
  <sodipodi:namedview
     id="base"
     pagecolor="#ffffff"
     bordercolor="#666666"
     borderopacity="1.0"
     inkscape:pageopacity="0.0"
     inkscape:pageshadow="2"
     inkscape:zoom="37"
     inkscape:cx="10.5"
     inkscape:cy="10.5"
     inkscape:document-units="px"
     inkscape:current-layer="layer1"
     inkscape:document-rotation="0"
     showgrid="true"
     units="px"
     inkscape:pagecheckerboard="true"
     inkscape:window-width="1920"
     inkscape:window-height="1001"
     inkscape:window-x="-9"
     inkscape:window-y="-9"
     inkscape:window-maximized="1">
    <inkscape:grid
       type="xygrid"
       id="grid833" />
  </sodipodi:namedview>
  <metadata
     id="metadata5">
    <rdf:RDF>
      <cc:Work
         rdf:about="">
        <dc:format>image/svg+xml</dc:format>
        <dc:type
           rdf:resource="http://purl.org/dc/dcmitype/StillImage" />
        <dc:title></dc:title>
      </cc:Work>
    </rdf:RDF>
  </metadata>
  <g
     inkscape:label="Layer 1"
     inkscape:groupmode="layer"
     id="layer1">
    <g
       transform="translate(-3.4395834)"
       id="g1057">
      <g
         id="g1020">
        <circle
           r="1.5875"
           cy="1.5874997"
           cx="5.0270834"
           id="path1460"
           style="fill:#a8dcf8;fill-opacity:1;fill-rule:evenodd;stroke-width:0.015875;stroke-linecap:round;stroke-linejoin:bevel" />
        <path
           style="fill:#081c25;stroke-width:0.015875"
           d="M 4.7906201,2.8641275 C 4.5144357,2.7898574 4.306029,2.5532388 4.2394757,2.238375 4.2077521,2.0882906 4.2182603,1.8648032 4.2648542,1.698625 4.3366385,1.4426045 4.5386761,1.0972847 4.8035453,0.77790186 4.9333151,0.62142366 5.1938249,0.36512492 5.2231044,0.36512492 c 0.00817,0 0.00992,0.0328966 0.00401,0.0754063 -0.02795,0.2013168 -0.028692,0.36171858 -0.00214,0.46321026 0.037252,0.14239422 0.074816,0.21013442 0.2825442,0.50951712 0.100107,0.1442766 0.1964803,0.2907235 0.214163,0.3254375 C 5.8367535,1.9646009 5.833775,2.2471204 5.7138239,2.4839909 5.6617872,2.586749 5.5006247,2.746999 5.3959979,2.8000175 5.2221676,2.888104 4.9765186,2.9141185 4.7906201,2.8641275 Z M 5.5682098,2.2021514 c 0.0961,-0.073783 0.077166,-0.3194302 -0.037684,-0.4889235 -0.050953,-0.075195 -0.070181,-0.074159 -0.082159,0.00443 -0.00572,0.037554 -0.0319,0.1409241 -0.058169,0.2297106 -0.044853,0.1515983 -0.046267,0.1643215 -0.02321,0.2089094 0.013504,0.026114 0.033633,0.051133 0.04473,0.055598 0.038198,0.015369 0.1313477,0.00958 0.156491,-0.00972 z"
           id="path1456" />
      </g>
    </g>
  </g>
</svg>
