<?xml version="1.0" encoding="UTF-8" standalone="no"?>
<svg
   xmlns:dc="http://purl.org/dc/elements/1.1/"
   xmlns:cc="http://creativecommons.org/ns#"
   xmlns:rdf="http://www.w3.org/1999/02/22-rdf-syntax-ns#"
   xmlns:svg="http://www.w3.org/2000/svg"
   xmlns="http://www.w3.org/2000/svg"
   xmlns:sodipodi="http://sodipodi.sourceforge.net/DTD/sodipodi-0.dtd"
   xmlns:inkscape="http://www.inkscape.org/namespaces/inkscape"
   width="64"
   height="64"
   viewBox="0 0 16.933333 16.933334"
   version="1.1"
   id="svg8"
   inkscape:version="1.0 (4035a4fb49, 2020-05-01)"
   sodipodi:docname="blz-c.svg">
  <defs
     id="defs2" />
  <sodipodi:namedview
     id="base"
     pagecolor="#ffffff"
     bordercolor="#666666"
     borderopacity="1.0"
     inkscape:pageopacity="0.0"
     inkscape:pageshadow="2"
     inkscape:zoom="11.796875"
     inkscape:cx="32"
     inkscape:cy="32"
     inkscape:document-units="px"
     inkscape:current-layer="layer1"
     inkscape:document-rotation="0"
     showgrid="true"
     units="px"
     inkscape:pagecheckerboard="true"
     inkscape:window-width="1920"
     inkscape:window-height="991"
     inkscape:window-x="-9"
     inkscape:window-y="-9"
     inkscape:window-maximized="1">
    <inkscape:grid
       type="xygrid"
       id="grid833" />
  </sodipodi:namedview>
  <metadata
     id="metadata5">
    <rdf:RDF>
      <cc:Work
         rdf:about="">
        <dc:format>image/svg+xml</dc:format>
        <dc:type
           rdf:resource="http://purl.org/dc/dcmitype/StillImage" />
        <dc:title></dc:title>
      </cc:Work>
    </rdf:RDF>
  </metadata>
  <g
     inkscape:label="Layer 1"
     inkscape:groupmode="layer"
     id="layer1">
    <path
       d="m 8.4666652,2.1167767 -6.0394199,4.3878499 2.30683,7.0993104 h 7.4651797 l 2.30684,-7.0993104 z m -0.14986,2.6975101 c 0.32356,0.008 0.6346401,0.039 0.8485301,0.0915 1.0088197,0.2474902 1.7435197,0.9121701 2.1424997,1.9378603 0.0757,0.1945597 0.15298,0.35399 0.17157,0.35399 0.0575,0 0.0892,-0.2070301 0.0605,-0.3937802 -0.0152,-0.0978 -0.0764,-0.3254298 -0.13591,-0.5059101 -0.0595,-0.1804897 -0.10023,-0.3509499 -0.091,-0.3787899 0.0245,-0.0734 0.26329,0.2906601 0.4563,0.69557 0.24155,0.5066898 0.30793,0.8103298 0.28887,1.3249799 -0.0227,0.6098799 -0.15701,0.8705199 -0.83715,1.6236699 -0.28078,0.31092 -0.51057,0.5821403 -0.51057,0.6025503 0,0.0546 0.039,0.0478 0.37983,-0.0682 0.34642,-0.1178303 0.61228,-0.2623304 0.8232,-0.4475204 0.0778,-0.0683 0.15355,-0.1245399 0.16795,-0.1245399 0.0642,0 0.0153,0.21933 -0.0997,0.4485499 -0.34339,0.6843704 -0.80884,0.9616204 -1.73684,1.0340504 -0.8345897,0.0651 -1.1463197,0.17102 -1.0836597,0.36845 0.0393,0.12388 0.0965,0.13746 0.6878201,0.16743 0.2873896,0.0146 0.5224496,0.0436 0.5224496,0.0641 0,0.058 -0.36706,0.20175 -0.7405298,0.28991 -0.6181101,0.14589 -1.81796,0.22848 -2.4148399,0.16639 v -5.03e-4 c -0.38802,-0.0404 -0.6911801,-0.19503 -0.9994199,-0.51005 -0.8061101,-0.82382 -0.8230003,-2.0580199 -0.0382,-2.80655 0.47899,-0.4568799 1.0075598,-0.58507 1.7590598,-0.42736 0.46957,0.0985 0.67491,0.0541 1.3435901,-0.28887 0.2740801,-0.14058 0.51033,-0.2436199 0.5250299,-0.22893 0.0448,0.0448 -0.0689,0.5442601 -0.1798298,0.7896202 C 9.4793952,8.9170141 9.3470152,9.0760239 9.0615353,9.2698939 8.7452751,9.4846541 8.6280951,9.6316241 8.6445051,9.7938941 c 0.0181,0.1796899 0.1934202,0.2958599 0.45217,0.2997299 0.1727401,0.003 0.2368402,-0.0196 0.3715502,-0.12816 0.0895,-0.0721 0.21903,-0.22165 0.2878399,-0.3322799 0.1156999,-0.18605 0.12743,-0.24232 0.15503,-0.7477602 0.026101,-0.4771398 0.0433,-0.5694198 0.1369398,-0.7291599 0.21248,-0.36259 0.35123,-0.37221 0.25683,-0.0176 -0.0758,0.2845798 -0.076,0.50193 -5.29e-4,0.6051299 0.0589,0.0805 0.0612,0.0803 0.15452,-0.00201 0.18202,-0.1617801 0.41722,-0.83287 0.32918,-0.93896 -0.0253,-0.0304 -0.0768,-0.0555 -0.11473,-0.0558 -0.27568,-0.00201 -0.8671798,-0.4730099 -1.0221597,-0.81442 -0.0863,-0.19025 -0.1122802,-0.4971299 -0.0418,-0.4971299 0.0229,0 0.0872,0.0713 0.1426199,0.15865 0.2497398,0.3930099 0.4082498,0.4008099 0.4082498,0.020201 0,-0.2948699 -0.15206,-0.6387899 -0.3420997,-0.77411 C 9.6061961,5.6893152 9.4379161,5.688985 9.1173861,5.839205 8.7050361,6.0321749 8.5457162,6.059545 8.261106,5.985455 8.0224363,5.923355 7.9216462,5.866025 7.9680961,5.819575 7.9816961,5.806076 8.113736,5.767275 8.2616262,5.733275 8.740576,5.6230753 8.8052561,5.5927151 8.8052561,5.4805752 c 0,-0.19256 -0.3714801,-0.3204602 -1.2205899,-0.4206499 -0.64418,-0.076 -0.68804,-0.1215501 -0.1912101,-0.19792 0.2637901,-0.0405 0.5999001,-0.0556 0.9234601,-0.0475 z M 6.9251553,5.2375166 c 0.2278398,0.019201 0.39843,0.1521601 0.39843,0.3632902 0,0.1716198 -0.0973,0.2722898 -0.2992099,0.30954 -0.2057601,0.038 -0.3118602,0.1143698 -0.4625002,0.3333099 -0.0723,0.1051398 -0.1483799,0.1912001 -0.1695,0.1912001 -0.021101,0 -0.0513,-0.0671 -0.0667,-0.14883 -0.015499,-0.0817 -0.0462,-0.1596901 -0.0687,-0.1736302 -0.022699,-0.013899 -0.1410099,0.0431 -0.26303,0.1271299 -0.2720498,0.1873602 -0.34105,0.19602 -0.3012799,0.0367 0.0675,-0.2705298 0.51026,-0.8024299 0.78497,-0.94258 0.1533499,-0.0782 0.3108101,-0.10762 0.4475099,-0.0961 z m 1.9383899,1.0149301 c 0.0973,-0.007 0.1880902,0.0255 0.24701,0.0982 0.1062101,0.1311698 0.0997,0.3988699 -0.012401,0.5110797 -0.1864001,0.1864001 -0.51487,0.2582302 -0.70332,0.1534801 -0.094,-0.0522 -0.6904,-0.67808 -0.6904,-0.7244999 0,-0.0628 0.19084,-0.013901 0.3958399,0.1018001 0.12377,0.0699 0.2512402,0.1271198 0.2831902,0.1271198 0.0319,0 0.11879,-0.0591 0.1932699,-0.13126 0.0856,-0.083 0.18951,-0.12904 0.2868099,-0.1358998 z"
       inkscape:transform-center-y="0.12136393"
       inkscape:transform-center-x="0.064492841"
       style="fill:#000000;fill-opacity:1;fill-rule:evenodd;stroke:#ffffff;stroke-width:0.264583;stroke-linecap:butt;stroke-linejoin:miter;stroke-miterlimit:4;stroke-dasharray:none;stroke-opacity:1"
       id="path1303-6" />
  </g>
</svg>
