<?xml version="1.0" encoding="UTF-8" standalone="no"?>
<svg
   xmlns:dc="http://purl.org/dc/elements/1.1/"
   xmlns:cc="http://creativecommons.org/ns#"
   xmlns:rdf="http://www.w3.org/1999/02/22-rdf-syntax-ns#"
   xmlns:svg="http://www.w3.org/2000/svg"
   xmlns="http://www.w3.org/2000/svg"
   xmlns:xlink="http://www.w3.org/1999/xlink"
   xmlns:sodipodi="http://sodipodi.sourceforge.net/DTD/sodipodi-0.dtd"
   xmlns:inkscape="http://www.inkscape.org/namespaces/inkscape"
   sodipodi:docname="blz-m.svg"
   inkscape:version="1.0 (4035a4fb49, 2020-05-01)"
   id="svg8"
   version="1.1"
   viewBox="0 0 16.933333 16.933334"
   height="64"
   width="64">
  <defs
     id="defs2">
    <radialGradient
       inkscape:collect="always"
       xlink:href="#linearGradient980"
       id="radialGradient1509-5"
       cx="-59.26667"
       cy="145.51411"
       fx="-59.26667"
       fy="145.51411"
       r="6.1949439"
       gradientTransform="matrix(1.3667055,-2.366739e-7,2.9205823e-7,1.366707,89.466708,-188.29183)"
       gradientUnits="userSpaceOnUse" />
    <linearGradient
       inkscape:collect="always"
       id="linearGradient980">
      <stop
         style="stop-color:#f99f1e;stop-opacity:1"
         offset="0"
         id="stop976" />
      <stop
         style="stop-color:#cf241d;stop-opacity:1"
         offset="1"
         id="stop978" />
    </linearGradient>
  </defs>
  <sodipodi:namedview
     inkscape:window-maximized="1"
     inkscape:window-y="-9"
     inkscape:window-x="-9"
     inkscape:window-height="991"
     inkscape:window-width="1920"
     inkscape:pagecheckerboard="true"
     units="px"
     showgrid="true"
     inkscape:document-rotation="0"
     inkscape:current-layer="layer1"
     inkscape:document-units="px"
     inkscape:cy="32"
     inkscape:cx="32"
     inkscape:zoom="11.796875"
     inkscape:pageshadow="2"
     inkscape:pageopacity="0.0"
     borderopacity="1.0"
     bordercolor="#666666"
     pagecolor="#ffffff"
     id="base">
    <inkscape:grid
       id="grid833"
       type="xygrid" />
  </sodipodi:namedview>
  <metadata
     id="metadata5">
    <rdf:RDF>
      <cc:Work
         rdf:about="">
        <dc:format>image/svg+xml</dc:format>
        <dc:type
           rdf:resource="http://purl.org/dc/dcmitype/StillImage" />
        <dc:title></dc:title>
      </cc:Work>
    </rdf:RDF>
  </metadata>
  <g
     id="layer1"
     inkscape:groupmode="layer"
     inkscape:label="Layer 1">
    <path
       d="m 8.4666652,2.1167661 -6.0394199,4.3878499 2.30683,7.09931 h 7.4651797 l 2.30684,-7.09931 z m -0.14986,2.69751 c 0.32356,0.008 0.6346401,0.039 0.8485301,0.0915 1.0088197,0.2474899 1.7435197,0.9121698 2.1424997,1.9378599 0.0757,0.1945698 0.15298,0.35399 0.17157,0.35399 0.0575,0 0.0892,-0.2070301 0.0605,-0.3937802 -0.0152,-0.0978 -0.0764,-0.3254297 -0.13591,-0.5059097 -0.0595,-0.18049 -0.10023,-0.3509502 -0.0909,-0.3787902 0.0245,-0.0734 0.26329,0.2906602 0.4563,0.6955701 0.24155,0.50669 0.30793,0.8103301 0.28887,1.3249801 -0.0227,0.60988 -0.15701,0.87053 -0.83715,1.62368 -0.28078,0.31092 -0.51057,0.5821299 -0.51057,0.6025399 0,0.0546 0.039,0.0478 0.37983,-0.0682 0.34643,-0.1178299 0.61228,-0.26232 0.8232,-0.44751 0.0778,-0.0683 0.15355,-0.1245399 0.16795,-0.1245399 0.0642,0 0.0153,0.21933 -0.0997,0.4485499 -0.3434,0.68437 -0.80885,0.96161 -1.73685,1.03404 -0.8345797,0.0651 -1.1463097,0.17103 -1.0836497,0.36846 0.0393,0.12388 0.0965,0.13746 0.68781,0.16743 0.2873997,0.0146 0.5224497,0.0436 0.5224497,0.0641 0,0.058 -0.36705,0.20175 -0.7405198,0.2899 -0.6181101,0.1459 -1.81796,0.22849 -2.4148399,0.1664 v -5.29e-4 c -0.38802,-0.0404 -0.6911801,-0.19502 -0.99943,-0.51004 -0.8060999,-0.82383 -0.8229901,-2.0580202 -0.0382,-2.8065503 0.4789998,-0.4568798 1.0075601,-0.5850699 1.7590699,-0.4273598 0.4695701,0.0985 0.67491,0.0541 1.3435901,-0.2888699 0.2740801,-0.1405901 0.51033,-0.2436202 0.52503,-0.2289302 0.0447,0.0448 -0.0689,0.54425 -0.1798299,0.78961 -0.1469602,0.32511 -0.2793503,0.4841301 -0.5648301,0.6780001 -0.3162502,0.2147599 -0.4334302,0.3617299 -0.4170202,0.5239999 0.0181,0.1796899 0.1934202,0.2958602 0.4521603,0.2997202 0.1727499,0.003 0.2368499,-0.0197 0.3715599,-0.1281702 0.0895,-0.0721 0.21902,-0.2216398 0.2878399,-0.3322701 0.1157,-0.1860499 0.1274199,-0.2423099 0.1550199,-0.7477498 0.026101,-0.47714 0.0433,-0.5694301 0.1369499,-0.7291602 0.21248,-0.3625897 0.35123,-0.3722198 0.25683,-0.0176 -0.0758,0.2845898 -0.076,0.5019299 -5.29e-4,0.6051298 0.0588,0.0805 0.0612,0.0803 0.15451,-0.00201 0.18203,-0.16178 0.41723,-0.83287 0.32918,-0.93896 -0.0253,-0.0304 -0.0768,-0.0555 -0.11472,-0.0558 -0.27568,-0.00201 -0.8671901,-0.4730199 -1.02216,-0.8144298 -0.0863,-0.19025 -0.1122799,-0.4971201 -0.0419,-0.4971201 0.0229,0 0.0872,0.0713 0.14263,0.15864 0.24973,0.3930099 0.40824,0.4008101 0.40824,0.020201 0,-0.2948601 -0.15206,-0.6387801 -0.3421,-0.77411 -0.2119101,-0.1509101 -0.3801901,-0.1512401 -0.7007302,-0.00101 -0.4123499,0.1929799 -0.5716698,0.22034 -0.85627,0.14625 -0.2386697,-0.0621 -0.3394699,-0.11943 -0.2930099,-0.16588 0.0136,-0.013499 0.1456399,-0.0523 0.2935201,-0.0863 0.4789598,-0.1102 0.5436399,-0.1405501 0.5436399,-0.2527001 0,-0.1925601 -0.3714801,-0.3204499 -1.2206,-0.4206399 -0.6441699,-0.076 -0.6880299,-0.1215501 -0.1912001,-0.19792 0.2637902,-0.0405 0.5998901,-0.0556 0.9234501,-0.0475 z M 6.9251553,5.237506 c 0.2278398,0.019201 0.39843,0.15216 0.39843,0.3632901 0,0.1716199 -0.0973,0.2722899 -0.2992099,0.30954 -0.2057601,0.038 -0.3118602,0.1143699 -0.4625002,0.3333099 -0.0723,0.1051402 -0.1483799,0.1912001 -0.1695,0.1912001 -0.021101,0 -0.0513,-0.0671 -0.0667,-0.14883 -0.015499,-0.0817 -0.0462,-0.15969 -0.0687,-0.1736301 -0.022699,-0.013899 -0.1410099,0.0431 -0.26303,0.1271301 -0.27204,0.18736 -0.34105,0.1960201 -0.3012799,0.0367 0.0675,-0.2705299 0.51026,-0.80243 0.78497,-0.94258 0.1533599,-0.0782 0.3108101,-0.1076198 0.44752,-0.0961 z m 1.9383899,1.01493 c 0.0973,-0.007 0.1880902,0.025501 0.24701,0.0982 0.1062101,0.1311601 0.0997,0.3988599 -0.012401,0.51107 -0.1864001,0.1864101 -0.51487,0.2582399 -0.70332,0.15348 -0.0939,-0.0522 -0.6904,-0.67808 -0.6904,-0.7245001 0,-0.0628 0.19084,-0.013898 0.39585,0.1018001 0.1237599,0.0699 0.2512401,0.1271299 0.2831801,0.1271299 0.0319,0 0.11879,-0.0591 0.1932699,-0.1312598 0.0856,-0.0829 0.18951,-0.1290402 0.2868099,-0.1359101 z"
       inkscape:transform-center-y="0.12136393"
       inkscape:transform-center-x="0.064492841"
       style="fill:url(#radialGradient1509-5);fill-opacity:1;fill-rule:evenodd;stroke:#000000;stroke-width:0.264583;stroke-linecap:butt;stroke-linejoin:miter;stroke-miterlimit:4;stroke-dasharray:none;stroke-opacity:1"
       id="path1303-6-0-6" />
  </g>
</svg>
