<?xml version="1.0" encoding="UTF-8" standalone="no"?>
<svg
   xmlns:dc="http://purl.org/dc/elements/1.1/"
   xmlns:cc="http://creativecommons.org/ns#"
   xmlns:rdf="http://www.w3.org/1999/02/22-rdf-syntax-ns#"
   xmlns:svg="http://www.w3.org/2000/svg"
   xmlns="http://www.w3.org/2000/svg"
   xmlns:xlink="http://www.w3.org/1999/xlink"
   xmlns:sodipodi="http://sodipodi.sourceforge.net/DTD/sodipodi-0.dtd"
   xmlns:inkscape="http://www.inkscape.org/namespaces/inkscape"
   sodipodi:docname="blz-r.svg"
   inkscape:version="1.0 (4035a4fb49, 2020-05-01)"
   id="svg8"
   version="1.1"
   viewBox="0 0 16.933333 16.933334"
   height="64"
   width="64">
  <defs
     id="defs2">
    <radialGradient
       inkscape:collect="always"
       xlink:href="#linearGradient930"
       id="radialGradient1509-7"
       cx="-59.26667"
       cy="145.51411"
       fx="-59.26667"
       fy="145.51411"
       r="6.1949439"
       gradientTransform="matrix(1.3667055,-2.366739e-7,2.9205823e-7,1.366707,89.466708,-188.29183)"
       gradientUnits="userSpaceOnUse" />
    <linearGradient
       id="linearGradient930"
       inkscape:collect="always">
      <stop
         id="stop926"
         offset="0"
         style="stop-color:#f2dda2;stop-opacity:1" />
      <stop
         id="stop928"
         offset="1"
         style="stop-color:#bcaa75;stop-opacity:1" />
    </linearGradient>
  </defs>
  <sodipodi:namedview
     inkscape:window-maximized="1"
     inkscape:window-y="-9"
     inkscape:window-x="-9"
     inkscape:window-height="991"
     inkscape:window-width="1920"
     inkscape:pagecheckerboard="true"
     units="px"
     showgrid="true"
     inkscape:document-rotation="0"
     inkscape:current-layer="layer1"
     inkscape:document-units="px"
     inkscape:cy="32"
     inkscape:cx="32"
     inkscape:zoom="11.796875"
     inkscape:pageshadow="2"
     inkscape:pageopacity="0.0"
     borderopacity="1.0"
     bordercolor="#666666"
     pagecolor="#ffffff"
     id="base">
    <inkscape:grid
       id="grid833"
       type="xygrid" />
  </sodipodi:namedview>
  <metadata
     id="metadata5">
    <rdf:RDF>
      <cc:Work
         rdf:about="">
        <dc:format>image/svg+xml</dc:format>
        <dc:type
           rdf:resource="http://purl.org/dc/dcmitype/StillImage" />
        <dc:title></dc:title>
      </cc:Work>
    </rdf:RDF>
  </metadata>
  <g
     id="layer1"
     inkscape:groupmode="layer"
     inkscape:label="Layer 1">
    <path
       d="M 8.4666725,2.1167667 2.4272426,6.5046166 4.7340827,13.603927 h 7.4651703 l 2.30684,-7.0993104 z m -0.14987,2.69751 c 0.32357,0.008 0.6346499,0.039 0.8485301,0.0915 1.0088304,0.2474899 1.7435304,0.9121698 2.1425104,1.9378599 0.0757,0.1945698 0.15297,0.35399 0.17156,0.35399 0.0575,0 0.0892,-0.2070301 0.0605,-0.3937802 -0.0152,-0.0978 -0.0764,-0.3254297 -0.13591,-0.5059097 -0.0595,-0.18049 -0.10022,-0.3509502 -0.0909,-0.3787902 0.0245,-0.0734 0.2633,0.2906602 0.45631,0.6955701 0.24154,0.50669 0.30792,0.8103301 0.28887,1.3249801 -0.0227,0.60988 -0.15702,0.87053 -0.83716,1.62368 -0.28078,0.31092 -0.51056,0.5821303 -0.51056,0.6025403 0,0.0546 0.039,0.0478 0.37982,-0.0682 0.34643,-0.1178303 0.61229,-0.2623204 0.8232,-0.4475104 0.0778,-0.0683 0.15355,-0.1245399 0.16795,-0.1245399 0.0642,0 0.0153,0.21933 -0.0997,0.4485499 -0.34339,0.6843704 -0.80884,0.9616104 -1.73684,1.0340404 -0.8345904,0.0651 -1.1463204,0.17103 -1.0836604,0.36846 0.0393,0.12388 0.0965,0.13746 0.68781,0.16743 0.2874004,0.0146 0.5224604,0.0436 0.5224604,0.0641 0,0.058 -0.36706,0.20175 -0.7405305,0.2899 -0.6181101,0.1459 -1.81796,0.22849 -2.4148399,0.1664 v -5.29e-4 c -0.38802,-0.0404 -0.6911801,-0.19502 -0.9994199,-0.51004 -0.80611,-0.82383 -0.8230002,-2.0580206 -0.0382,-2.8065507 0.4789897,-0.4568798 1.0075598,-0.5850699 1.7590598,-0.4273598 0.4695701,0.0985 0.67491,0.0541 1.3435901,-0.2888699 0.2740801,-0.1405901 0.51033,-0.2436202 0.52503,-0.2289302 0.0447,0.0448 -0.0689,0.54425 -0.1798299,0.78961 -0.1469602,0.32511 -0.2793503,0.4841301 -0.5648201,0.6780001 -0.3162602,0.2147599 -0.4334402,0.3617299 -0.4170302,0.5239999 0.0181,0.1796899 0.1934202,0.2958606 0.45217,0.2997206 0.1727402,0.003 0.2368402,-0.0197 0.3715502,-0.1281706 0.0895,-0.0721 0.21903,-0.2216398 0.2878399,-0.3322701 0.1157,-0.1860499 0.12743,-0.2423099 0.15503,-0.7477498 0.026101,-0.47714 0.0433,-0.5694301 0.1369405,-0.7291602 0.21248,-0.3625897 0.35123,-0.3722198 0.25683,-0.0176 -0.0758,0.2845898 -0.076,0.5019299 -5.29e-4,0.6051298 0.0589,0.0805 0.0612,0.0803 0.15452,-0.00201 0.18202,-0.16178 0.41722,-0.83287 0.32918,-0.93896 -0.0253,-0.0304 -0.0768,-0.0555 -0.11473,-0.0558 -0.27568,-0.00201 -0.8671807,-0.4730199 -1.0221607,-0.8144298 -0.0864,-0.19025 -0.1122799,-0.4971201 -0.0419,-0.4971201 0.0229,0 0.0872,0.0713 0.14263,0.15864 0.2497307,0.3930099 0.4082407,0.4008101 0.4082407,0.020201 0,-0.2948601 -0.15205,-0.6387801 -0.3420906,-0.77411 -0.2119202,-0.1509101 -0.3802002,-0.1512401 -0.7007302,-0.00101 -0.41235,0.1929799 -0.5716699,0.22034 -0.8562801,0.14625 -0.2386697,-0.0621 -0.3394599,-0.11943 -0.2930099,-0.16588 0.0136,-0.013499 0.1456399,-0.0523 0.2935301,-0.0863 0.4789498,-0.1102 0.5436299,-0.1405501 0.5436299,-0.2527001 0,-0.1925601 -0.3714801,-0.3204499 -1.2206,-0.4206399 -0.6441699,-0.076 -0.6880299,-0.1215501 -0.1912001,-0.19792 0.2637902,-0.0405 0.5999002,-0.0556 0.9234602,-0.0475 z M 6.9251626,5.2375066 c 0.2278399,0.019201 0.39842,0.15216 0.39842,0.3632901 0,0.1716199 -0.0973,0.2722899 -0.2992001,0.30954 -0.2057599,0.038 -0.31187,0.1143699 -0.46251,0.3333099 -0.0723,0.1051402 -0.1483799,0.1912001 -0.1695,0.1912001 -0.021101,0 -0.0513,-0.0671 -0.0667,-0.14883 -0.015499,-0.0817 -0.0462,-0.15969 -0.0687,-0.1736301 -0.022699,-0.013899 -0.1409999,0.0431 -0.26303,0.1271301 -0.27204,0.18736 -0.3410399,0.1960201 -0.3012799,0.0367 0.0675,-0.2705299 0.51026,-0.80243 0.78497,-0.94258 0.1533599,-0.0782 0.3108101,-0.1076198 0.44752,-0.0961 z m 1.9383799,1.01493 c 0.0973,-0.007 0.1881,0.025501 0.24701,0.0982 0.1062201,0.1311601 0.0997,0.3988599 -0.012401,0.51107 -0.1864001,0.1864101 -0.51487,0.2582399 -0.7033099,0.15348 -0.094,-0.0522 -0.6904001,-0.67808 -0.6904001,-0.7245001 0,-0.0628 0.19083,-0.013898 0.39584,0.1018001 0.1237599,0.0699 0.2512401,0.1271299 0.2831899,0.1271299 0.0319,0 0.11879,-0.0591 0.1932702,-0.1312598 0.0856,-0.0829 0.1895099,-0.1290402 0.2867998,-0.1359101 z"
       inkscape:transform-center-y="0.12136393"
       inkscape:transform-center-x="0.064492841"
       style="fill:url(#radialGradient1509-7);fill-opacity:1;fill-rule:evenodd;stroke:#000000;stroke-width:0.264583;stroke-linecap:butt;stroke-linejoin:miter;stroke-miterlimit:4;stroke-dasharray:none;stroke-opacity:1"
       id="path1303-6-0-9" />
  </g>
</svg>
