<?xml version="1.0" encoding="UTF-8" standalone="no"?>
<svg
   xmlns:dc="http://purl.org/dc/elements/1.1/"
   xmlns:cc="http://creativecommons.org/ns#"
   xmlns:rdf="http://www.w3.org/1999/02/22-rdf-syntax-ns#"
   xmlns:svg="http://www.w3.org/2000/svg"
   xmlns="http://www.w3.org/2000/svg"
   xmlns:xlink="http://www.w3.org/1999/xlink"
   xmlns:sodipodi="http://sodipodi.sourceforge.net/DTD/sodipodi-0.dtd"
   xmlns:inkscape="http://www.inkscape.org/namespaces/inkscape"
   sodipodi:docname="blz-u.svg"
   inkscape:version="1.0 (4035a4fb49, 2020-05-01)"
   id="svg8"
   version="1.1"
   viewBox="0 0 16.933333 16.933334"
   height="64"
   width="64">
  <defs
     id="defs2">
    <radialGradient
       gradientUnits="userSpaceOnUse"
       gradientTransform="matrix(1.3667055,-2.366739e-7,2.9205823e-7,1.366707,89.466705,-188.29183)"
       r="6.1949439"
       fy="145.51411"
       fx="-59.26667"
       cy="145.51411"
       cx="-59.26667"
       id="radialGradient1509"
       xlink:href="#linearGradient862"
       inkscape:collect="always" />
    <linearGradient
       inkscape:collect="always"
       id="linearGradient862">
      <stop
         style="stop-color:#c5e1eb;stop-opacity:1;"
         offset="0"
         id="stop858" />
      <stop
         style="stop-color:#80a4b3;stop-opacity:1"
         offset="1"
         id="stop860" />
    </linearGradient>
  </defs>
  <sodipodi:namedview
     inkscape:window-maximized="1"
     inkscape:window-y="-9"
     inkscape:window-x="-9"
     inkscape:window-height="991"
     inkscape:window-width="1920"
     inkscape:pagecheckerboard="true"
     units="px"
     showgrid="true"
     inkscape:document-rotation="0"
     inkscape:current-layer="layer1"
     inkscape:document-units="px"
     inkscape:cy="32"
     inkscape:cx="32"
     inkscape:zoom="11.796875"
     inkscape:pageshadow="2"
     inkscape:pageopacity="0.0"
     borderopacity="1.0"
     bordercolor="#666666"
     pagecolor="#ffffff"
     id="base">
    <inkscape:grid
       id="grid833"
       type="xygrid" />
  </sodipodi:namedview>
  <metadata
     id="metadata5">
    <rdf:RDF>
      <cc:Work
         rdf:about="">
        <dc:format>image/svg+xml</dc:format>
        <dc:type
           rdf:resource="http://purl.org/dc/dcmitype/StillImage" />
        <dc:title></dc:title>
      </cc:Work>
    </rdf:RDF>
  </metadata>
  <g
     id="layer1"
     inkscape:groupmode="layer"
     inkscape:label="Layer 1">
    <path
       id="path1303-6-0"
       style="fill:url(#radialGradient1509);fill-opacity:1;fill-rule:evenodd;stroke:#000000;stroke-width:0.264583;stroke-linecap:butt;stroke-linejoin:miter;stroke-miterlimit:4;stroke-dasharray:none;stroke-opacity:1"
       inkscape:transform-center-x="0.064492841"
       inkscape:transform-center-y="0.12136393"
       d="m 8.4666673,2.1167661 -6.0394299,4.3878499 2.3068401,7.09931 h 7.4651795 l 2.30683,-7.09931 z m -0.14986,2.69751 c 0.32356,0.008 0.6346399,0.039 0.8485201,0.0915 1.0088296,0.2474899 1.7435296,0.9121698 2.1425096,1.9378599 0.0757,0.1945698 0.15298,0.35399 0.17157,0.35399 0.0575,0 0.0892,-0.2070301 0.0605,-0.3937802 -0.0152,-0.0978 -0.0764,-0.3254297 -0.13591,-0.5059097 -0.0595,-0.18049 -0.10023,-0.3509502 -0.091,-0.3787902 0.0245,-0.0734 0.26329,0.2906602 0.4563,0.6955701 0.24155,0.50669 0.30793,0.8103301 0.28887,1.3249801 -0.0227,0.60988 -0.15701,0.87053 -0.83715,1.62368 -0.28079,0.31092 -0.51057,0.5821299 -0.51057,0.6025399 0,0.0546 0.039,0.0478 0.37982,-0.0682 0.34643,-0.1178299 0.61229,-0.26232 0.82321,-0.44751 0.0778,-0.0683 0.15355,-0.1245399 0.16795,-0.1245399 0.0642,0 0.0153,0.21933 -0.0997,0.4485499 -0.3434,0.68437 -0.80885,0.96161 -1.73685,1.03404 -0.8345796,0.0651 -1.1463095,0.17103 -1.0836496,0.36846 0.0393,0.12388 0.0965,0.13746 0.6878101,0.16743 0.2873895,0.0146 0.5224495,0.0436 0.5224495,0.0641 0,0.058 -0.36705,0.20175 -0.7405297,0.2899 -0.6181101,0.1459 -1.81795,0.22849 -2.4148299,0.1664 v -5.29e-4 c -0.38803,-0.0404 -0.69118,-0.19502 -0.9994299,-0.51004 -0.8061003,-0.82382 -0.8229902,-2.0580202 -0.0382,-2.8065503 0.4789998,-0.4568798 1.0075598,-0.5850699 1.7590698,-0.4273598 0.4695701,0.0985 0.67491,0.0541 1.3435801,-0.2888699 0.2740899,-0.1405901 0.51034,-0.2436202 0.52504,-0.2289302 0.0448,0.0448 -0.0689,0.54425 -0.1798399,0.7896201 -0.1469602,0.3250999 -0.2793402,0.48412 -0.5648201,0.67799 -0.3162501,0.2147599 -0.4334301,0.3617299 -0.4170302,0.5239999 0.0181,0.1796899 0.19343,0.2958602 0.45217,0.2997202 0.1727502,0.003 0.2368503,-0.0197 0.3715602,-0.1281601 0.0895,-0.0721 0.21902,-0.2216499 0.2878299,-0.3322802 0.11571,-0.1860499 0.12743,-0.2423099 0.15503,-0.7477498 0.026101,-0.47714 0.0433,-0.5694301 0.1369397,-0.7291602 0.21249,-0.3625897 0.35124,-0.3722198 0.25684,-0.0176 -0.0758,0.2845898 -0.076,0.5019299 -5.29e-4,0.6051298 0.0589,0.0805 0.0612,0.0803 0.15451,-0.00201 0.18203,-0.16178 0.41722,-0.83287 0.32918,-0.93896 -0.0253,-0.0304 -0.0768,-0.0555 -0.11472,-0.0558 -0.27569,-0.00201 -0.8671897,-0.4730099 -1.0221596,-0.8144198 -0.0863,-0.1902502 -0.1122899,-0.49712 -0.0419,-0.49712 0.0229,0 0.0872,0.0713 0.1426199,0.1586399 0.2497397,0.39301 0.4082497,0.4008102 0.4082497,0.020201 0,-0.2948701 -0.15206,-0.6387901 -0.3420996,-0.7741099 -0.21192,-0.1509212 -0.38019,-0.1512512 -0.7007301,-0.00101 -0.4123499,0.1929699 -0.5716698,0.22033 -0.85628,0.14624 -0.23866,-0.0621 -0.3394599,-0.11943 -0.2929999,-0.16588 0.0136,-0.013499 0.1456301,-0.0523 0.2935201,-0.0863 0.4789598,-0.1102 0.5436399,-0.1405501 0.5436399,-0.2527001 0,-0.1925601 -0.3714901,-0.3204499 -1.2206,-0.4206399 -0.6441699,-0.076 -0.6880299,-0.1215501 -0.1912,-0.19792 0.26378,-0.0405 0.59989,-0.0556 0.92345,-0.0475 z M 6.9251574,5.237506 c 0.2278399,0.019201 0.39843,0.15216 0.39843,0.3632901 0,0.1716199 -0.0973,0.2722899 -0.2992101,0.30954 -0.2057599,0.038 -0.3118599,0.1143699 -0.4624999,0.3333099 -0.0723,0.1051402 -0.1483799,0.1912001 -0.1695,0.1912001 -0.021101,0 -0.0513,-0.0671 -0.0667,-0.14883 -0.015499,-0.0817 -0.0462,-0.15969 -0.0687,-0.1736301 -0.022699,-0.013899 -0.14101,0.0431 -0.26303,0.1271301 -0.2720501,0.18736 -0.34105,0.1960201 -0.30128,0.0367 0.0675,-0.2705299 0.5102601,-0.80243 0.7849701,-0.94258 0.1533498,-0.0782 0.3108097,-0.1076198 0.4475099,-0.0961 z m 1.9383799,1.01493 c 0.0973,-0.007 0.1881,0.025501 0.24702,0.0982 0.1062101,0.1311602 0.0997,0.39886 -0.012401,0.5110701 -0.1864101,0.1864101 -0.5148699,0.2582399 -0.7033199,0.15348 -0.094,-0.0522 -0.6904001,-0.67808 -0.6904001,-0.7245001 0,-0.0628 0.19084,-0.013898 0.39584,0.1018001 0.1237599,0.0699 0.2512401,0.1271299 0.2831899,0.1271299 0.0319,0 0.11879,-0.0591 0.1932702,-0.1312598 0.0856,-0.0829 0.1895099,-0.1290402 0.2868099,-0.1359101 z" />
  </g>
</svg>
