<?xml version="1.0" encoding="UTF-8" standalone="no"?>
<svg
   xmlns:dc="http://purl.org/dc/elements/1.1/"
   xmlns:cc="http://creativecommons.org/ns#"
   xmlns:rdf="http://www.w3.org/1999/02/22-rdf-syntax-ns#"
   xmlns:svg="http://www.w3.org/2000/svg"
   xmlns="http://www.w3.org/2000/svg"
   xmlns:xlink="http://www.w3.org/1999/xlink"
   xmlns:sodipodi="http://sodipodi.sourceforge.net/DTD/sodipodi-0.dtd"
   xmlns:inkscape="http://www.inkscape.org/namespaces/inkscape"
   sodipodi:docname="caby-m.svg"
   inkscape:version="1.0 (4035a4fb49, 2020-05-01)"
   id="svg8"
   version="1.1"
   viewBox="0 0 16.933333 16.933334"
   height="64"
   width="64">
  <defs
     id="defs2">
    <radialGradient
       inkscape:collect="always"
       xlink:href="#linearGradient980"
       id="radialGradient992"
       cx="160"
       cy="109.29568"
       fx="160"
       fy="109.29568"
       r="20.499998"
       gradientTransform="matrix(0.26458334,0,0,0.51626004,-33.866668,-43.724994)"
       gradientUnits="userSpaceOnUse" />
    <linearGradient
       id="linearGradient980"
       inkscape:collect="always">
      <stop
         id="stop976"
         offset="0"
         style="stop-color:#f99f1e;stop-opacity:1" />
      <stop
         id="stop978"
         offset="1"
         style="stop-color:#cf241d;stop-opacity:1" />
    </linearGradient>
  </defs>
  <sodipodi:namedview
     inkscape:window-maximized="1"
     inkscape:window-y="-9"
     inkscape:window-x="-9"
     inkscape:window-height="1001"
     inkscape:window-width="1920"
     inkscape:pagecheckerboard="true"
     units="px"
     showgrid="true"
     inkscape:document-rotation="0"
     inkscape:current-layer="layer1"
     inkscape:document-units="px"
     inkscape:cy="32"
     inkscape:cx="32"
     inkscape:zoom="12.140625"
     inkscape:pageshadow="2"
     inkscape:pageopacity="0.0"
     borderopacity="1.0"
     bordercolor="#666666"
     pagecolor="#ffffff"
     id="base">
    <inkscape:grid
       id="grid833"
       type="xygrid" />
  </sodipodi:namedview>
  <metadata
     id="metadata5">
    <rdf:RDF>
      <cc:Work
         rdf:about="">
        <dc:format>image/svg+xml</dc:format>
        <dc:type
           rdf:resource="http://purl.org/dc/dcmitype/StillImage" />
        <dc:title></dc:title>
      </cc:Work>
    </rdf:RDF>
  </metadata>
  <g
     id="layer1"
     inkscape:groupmode="layer"
     inkscape:label="Layer 1">
    <path
       id="path930"
       style="fill:url(#radialGradient992);fill-opacity:1;stroke:#000000;stroke-width:0.264583px;stroke-linecap:butt;stroke-linejoin:miter;stroke-opacity:1"
       d="m 3.1750003,2.116668 v 4.2333333 c 0,6.3500007 5.2916667,8.4666667 5.2916667,8.4666667 0,0 5.291667,-2.116666 5.291667,-8.4666667 V 2.116668 c -2.645834,1.0583338 -5.291667,0 -5.291667,0 0,0 -2.645836,1.0583338 -5.2916667,0 z M 5.9376234,5.412074 C 6.9224449,5.349546 7.672917,6.3500013 7.672917,6.3500013 c 0,0 -1.5875,-0.529167 -3.175,0 C 4.9940107,5.6885429 5.4899748,5.440496 5.9376234,5.412074 Z m 4.8761866,0 c 0.05959,-0.00389 0.120351,-0.00391 0.181901,0 0.447648,0.028422 0.943612,0.2764689 1.439706,0.9379273 -1.5875,-0.529167 -3.175,0 -3.175,0 0,0 0.6594766,-0.8795359 1.553393,-0.9379273 z M 8.466667,9.1281263 c 0.9260417,0 1.852083,0.6614583 2.645833,1.9843757 -1.5874996,-1.058334 -3.7041663,-1.058334 -5.2916663,0 0.79375,-1.3229174 1.7197916,-1.9843757 2.6458333,-1.9843757 z" />
  </g>
</svg>
