<?xml version="1.0" encoding="UTF-8" standalone="no"?>
<svg
   xmlns:dc="http://purl.org/dc/elements/1.1/"
   xmlns:cc="http://creativecommons.org/ns#"
   xmlns:rdf="http://www.w3.org/1999/02/22-rdf-syntax-ns#"
   xmlns:svg="http://www.w3.org/2000/svg"
   xmlns="http://www.w3.org/2000/svg"
   xmlns:xlink="http://www.w3.org/1999/xlink"
   xmlns:sodipodi="http://sodipodi.sourceforge.net/DTD/sodipodi-0.dtd"
   xmlns:inkscape="http://www.inkscape.org/namespaces/inkscape"
   sodipodi:docname="caby-u.svg"
   inkscape:version="1.0 (4035a4fb49, 2020-05-01)"
   id="svg8"
   version="1.1"
   viewBox="0 0 16.933333 16.933334"
   height="64"
   width="64">
  <defs
     id="defs2">
    <radialGradient
       gradientUnits="userSpaceOnUse"
       gradientTransform="matrix(0.26458334,0,0,0.51626004,-33.866668,-43.724992)"
       r="20.499998"
       fy="109.29568"
       fx="160"
       cy="109.29568"
       cx="160"
       id="radialGradient992-0"
       xlink:href="#linearGradient862"
       inkscape:collect="always" />
    <linearGradient
       id="linearGradient862"
       inkscape:collect="always">
      <stop
         id="stop858"
         offset="0"
         style="stop-color:#c5e1eb;stop-opacity:1;" />
      <stop
         id="stop860"
         offset="1"
         style="stop-color:#80a4b3;stop-opacity:1" />
    </linearGradient>
  </defs>
  <sodipodi:namedview
     inkscape:window-maximized="1"
     inkscape:window-y="-9"
     inkscape:window-x="-9"
     inkscape:window-height="1001"
     inkscape:window-width="1920"
     inkscape:pagecheckerboard="true"
     units="px"
     showgrid="true"
     inkscape:document-rotation="0"
     inkscape:current-layer="layer1"
     inkscape:document-units="px"
     inkscape:cy="32"
     inkscape:cx="32"
     inkscape:zoom="12.140625"
     inkscape:pageshadow="2"
     inkscape:pageopacity="0.0"
     borderopacity="1.0"
     bordercolor="#666666"
     pagecolor="#ffffff"
     id="base">
    <inkscape:grid
       id="grid833"
       type="xygrid" />
  </sodipodi:namedview>
  <metadata
     id="metadata5">
    <rdf:RDF>
      <cc:Work
         rdf:about="">
        <dc:format>image/svg+xml</dc:format>
        <dc:type
           rdf:resource="http://purl.org/dc/dcmitype/StillImage" />
        <dc:title></dc:title>
      </cc:Work>
    </rdf:RDF>
  </metadata>
  <g
     id="layer1"
     inkscape:groupmode="layer"
     inkscape:label="Layer 1">
    <path
       d="m 3.1750003,2.1166687 v 4.2333339 c 0,6.3499994 5.291666,8.4666664 5.291666,8.4666664 0,0 5.2916667,-2.116667 5.2916667,-8.4666664 V 2.1166687 c -2.645833,1.0583339 -5.2916667,0 -5.2916667,0 0,0 -2.645836,1.0583339 -5.291666,0 z m 2.7626231,3.2954069 c 0.984821,-0.06253 1.7352929,0.937927 1.7352929,0.937927 0,0 -1.5875001,-0.5291669 -3.174999,0 0.4960929,-0.6614578 0.9920571,-0.909505 1.4397061,-0.937927 z m 4.8761856,0 c 0.0596,-0.0039 0.120351,-0.0039 0.181901,0 0.447649,0.02842 0.943613,0.2764692 1.439707,0.937927 -1.587501,-0.5291669 -3.1750007,0 -3.1750007,0 0,0 0.6594771,-0.8795359 1.5533927,-0.937927 z m -2.3471427,3.716052 c 0.9260422,0 1.8520837,0.6614581 2.6458337,1.9843754 -1.5874996,-1.058333 -3.7041665,-1.058333 -5.2916666,0 0.79375,-1.3229173 1.719792,-1.9843754 2.6458329,-1.9843754 z"
       style="fill:url(#radialGradient992-0);fill-opacity:1;stroke:#000000;stroke-width:0.264583px;stroke-linecap:butt;stroke-linejoin:miter;stroke-opacity:1"
       id="path930-7" />
  </g>
</svg>
