<?xml version="1.0" encoding="UTF-8" standalone="no"?>
<svg
   xmlns:dc="http://purl.org/dc/elements/1.1/"
   xmlns:cc="http://creativecommons.org/ns#"
   xmlns:rdf="http://www.w3.org/1999/02/22-rdf-syntax-ns#"
   xmlns:svg="http://www.w3.org/2000/svg"
   xmlns="http://www.w3.org/2000/svg"
   xmlns:xlink="http://www.w3.org/1999/xlink"
   xmlns:sodipodi="http://sodipodi.sourceforge.net/DTD/sodipodi-0.dtd"
   xmlns:inkscape="http://www.inkscape.org/namespaces/inkscape"
   width="64"
   height="64"
   viewBox="0 0 16.933333 16.933334"
   version="1.1"
   id="svg8"
   inkscape:version="1.0 (4035a4fb49, 2020-05-01)"
   sodipodi:docname="ccro-u.svg">
  <defs
     id="defs2">
    <radialGradient
       inkscape:collect="always"
       xlink:href="#linearGradient862"
       id="radialGradient922"
       cx="32"
       cy="106.03609"
       fx="32"
       fy="106.03609"
       r="20.500006"
       gradientTransform="matrix(0.25813003,0,0,0.30975602,0.20650594,-21.203649)"
       gradientUnits="userSpaceOnUse" />
    <linearGradient
       id="linearGradient862"
       inkscape:collect="always">
      <stop
         id="stop858"
         offset="0"
         style="stop-color:#c5e1eb;stop-opacity:1;" />
      <stop
         id="stop860"
         offset="1"
         style="stop-color:#80a4b3;stop-opacity:1" />
    </linearGradient>
  </defs>
  <sodipodi:namedview
     id="base"
     pagecolor="#ffffff"
     bordercolor="#666666"
     borderopacity="1.0"
     inkscape:pageopacity="0.0"
     inkscape:pageshadow="2"
     inkscape:zoom="12.140625"
     inkscape:cx="32"
     inkscape:cy="32"
     inkscape:document-units="px"
     inkscape:current-layer="layer1"
     inkscape:document-rotation="0"
     showgrid="true"
     units="px"
     inkscape:pagecheckerboard="true"
     inkscape:window-width="1920"
     inkscape:window-height="1001"
     inkscape:window-x="-9"
     inkscape:window-y="-9"
     inkscape:window-maximized="1">
    <inkscape:grid
       type="xygrid"
       id="grid833" />
  </sodipodi:namedview>
  <metadata
     id="metadata5">
    <rdf:RDF>
      <cc:Work
         rdf:about="">
        <dc:format>image/svg+xml</dc:format>
        <dc:type
           rdf:resource="http://purl.org/dc/dcmitype/StillImage" />
        <dc:title></dc:title>
      </cc:Work>
    </rdf:RDF>
  </metadata>
  <g
     inkscape:label="Layer 1"
     inkscape:groupmode="layer"
     id="layer1">
    <path
       id="path889"
       style="fill:url(#radialGradient922);fill-opacity:1;stroke:#000000;stroke-width:0.264583px;stroke-linecap:butt;stroke-linejoin:miter;stroke-opacity:1"
       d="m 3.7041667,2.1166668 c 0,0 -0.5291666,-3e-7 -0.5291666,0.5291666 v 3.7041667 c 0,6.3499999 5.2916667,8.4666659 5.2916667,8.4666659 0,0 5.2916672,-2.116666 5.2916662,-8.4666659 V 2.6458334 c 0,0 -1e-6,-0.5291666 -0.529167,-0.5291666 z m 2.1166667,1.5874999 h 1.0583334 l 1.5875,1.5875 1.5874992,-1.5875 H 11.1125 v 0.5291667 h -0.529167 l 1.058333,3.4395834 h 0.529167 V 7.9375001 8.2020834 H 11.641666 L 10.583333,11.1125 h 0.264583 v 0.529166 H 9.5250001 V 11.1125 H 9.7895835 L 8.4666668,10.054166 7.1437501,11.1125 h 0.2645833 v 0.529166 H 6.0854168 V 11.1125 H 6.3500001 L 5.2916667,8.2020834 H 4.7625001 V 7.9375001 7.6729168 H 5.2916667 L 6.3500001,4.2333334 H 5.8208334 Z m 1.0583334,1.5875 -0.79375,2.6458334 0.79375,2.1166659 1.5875,-1.0583325 1.5874992,1.0583325 0.79375,-2.1166659 -0.79375,-2.6458334 -1.5874992,1.5875001 z" />
  </g>
</svg>
