<?xml version="1.0" encoding="UTF-8" standalone="no"?>
<svg
   xmlns:dc="http://purl.org/dc/elements/1.1/"
   xmlns:cc="http://creativecommons.org/ns#"
   xmlns:rdf="http://www.w3.org/1999/02/22-rdf-syntax-ns#"
   xmlns:svg="http://www.w3.org/2000/svg"
   xmlns="http://www.w3.org/2000/svg"
   xmlns:xlink="http://www.w3.org/1999/xlink"
   xmlns:sodipodi="http://sodipodi.sourceforge.net/DTD/sodipodi-0.dtd"
   xmlns:inkscape="http://www.inkscape.org/namespaces/inkscape"
   width="64"
   height="64"
   viewBox="0 0 16.933333 16.933334"
   version="1.1"
   id="svg8"
   inkscape:version="1.0 (4035a4fb49, 2020-05-01)"
   sodipodi:docname="ccro-r.svg">
  <defs
     id="defs2">
    <radialGradient
       inkscape:collect="always"
       xlink:href="#linearGradient930"
       id="radialGradient922-3-7"
       cx="32"
       cy="106.03609"
       fx="32"
       fy="106.03609"
       r="20.500006"
       gradientTransform="matrix(0.25813003,0,0,0.30975602,0.2065086,-21.20365)"
       gradientUnits="userSpaceOnUse" />
    <linearGradient
       inkscape:collect="always"
       id="linearGradient930">
      <stop
         style="stop-color:#f2dda2;stop-opacity:1"
         offset="0"
         id="stop926" />
      <stop
         style="stop-color:#bcaa75;stop-opacity:1"
         offset="1"
         id="stop928" />
    </linearGradient>
  </defs>
  <sodipodi:namedview
     id="base"
     pagecolor="#ffffff"
     bordercolor="#666666"
     borderopacity="1.0"
     inkscape:pageopacity="0.0"
     inkscape:pageshadow="2"
     inkscape:zoom="12.140625"
     inkscape:cx="32"
     inkscape:cy="32"
     inkscape:document-units="px"
     inkscape:current-layer="layer1"
     inkscape:document-rotation="0"
     showgrid="true"
     units="px"
     inkscape:pagecheckerboard="true"
     inkscape:window-width="1920"
     inkscape:window-height="1001"
     inkscape:window-x="-9"
     inkscape:window-y="-9"
     inkscape:window-maximized="1">
    <inkscape:grid
       type="xygrid"
       id="grid833" />
  </sodipodi:namedview>
  <metadata
     id="metadata5">
    <rdf:RDF>
      <cc:Work
         rdf:about="">
        <dc:format>image/svg+xml</dc:format>
        <dc:type
           rdf:resource="http://purl.org/dc/dcmitype/StillImage" />
        <dc:title></dc:title>
      </cc:Work>
    </rdf:RDF>
  </metadata>
  <g
     inkscape:label="Layer 1"
     inkscape:groupmode="layer"
     id="layer1">
    <path
       id="path889-9-5"
       style="fill:url(#radialGradient922-3-7);fill-opacity:1;stroke:#000000;stroke-width:0.264583px;stroke-linecap:butt;stroke-linejoin:miter;stroke-opacity:1"
       d="m 3.7041675,2.1166665 c 0,0 -0.529167,0 -0.529167,0.5291669 v 3.704167 c 0,6.3499986 5.291667,8.4666656 5.291667,8.4666656 0,0 5.2916695,-2.116667 5.2916695,-8.4666656 v -3.704167 c 0,0 -3e-6,-0.5291669 -0.52917,-0.5291669 z m 2.1166669,1.5875 h 1.0583331 l 1.5875,1.5875 1.5874995,-1.5875 h 1.058334 v 0.5291669 h -0.529164 l 1.05833,3.4395831 h 0.52917 v 0.2645839 0.264583 h -0.52917 L 10.583337,11.1125 h 0.26458 v 0.529166 H 9.5250003 V 11.1125 H 9.7895866 L 8.4666675,10.054166 7.1437506,11.1125 h 0.2645838 v 0.529166 H 6.0854175 V 11.1125 H 6.3500006 L 5.2916685,8.2020834 H 4.7625013 V 7.9375004 7.6729165 H 5.2916685 L 6.3500006,4.2333334 H 5.8208344 Z m 1.0583331,1.5875 -0.79375,2.6458339 0.79375,2.1166656 1.5875,-1.0583325 1.5874995,1.0583325 0.79375,-2.1166656 -0.79375,-2.6458339 -1.5874995,1.5875 z" />
  </g>
</svg>
