<?xml version="1.0" encoding="UTF-8" standalone="no"?>
<svg
   xmlns:dc="http://purl.org/dc/elements/1.1/"
   xmlns:cc="http://creativecommons.org/ns#"
   xmlns:rdf="http://www.w3.org/1999/02/22-rdf-syntax-ns#"
   xmlns:svg="http://www.w3.org/2000/svg"
   xmlns="http://www.w3.org/2000/svg"
   xmlns:sodipodi="http://sodipodi.sourceforge.net/DTD/sodipodi-0.dtd"
   xmlns:inkscape="http://www.inkscape.org/namespaces/inkscape"
   width="12"
   height="12"
   viewBox="0 0 3.1749999 3.1750001"
   version="1.1"
   id="svg8"
   inkscape:version="1.0 (4035a4fb49, 2020-05-01)"
   sodipodi:docname="clue-mana-symbol.svg">
  <defs
     id="defs2" />
  <sodipodi:namedview
     inkscape:snap-intersection-paths="true"
     inkscape:object-paths="true"
     inkscape:snap-center="true"
     inkscape:snap-object-midpoints="true"
     inkscape:snap-smooth-nodes="true"
     id="base"
     pagecolor="#ffffff"
     bordercolor="#666666"
     borderopacity="1.0"
     inkscape:pageopacity="0.0"
     inkscape:pageshadow="2"
     inkscape:zoom="64.75"
     inkscape:cx="6"
     inkscape:cy="6"
     inkscape:document-units="px"
     inkscape:current-layer="layer1"
     inkscape:document-rotation="0"
     showgrid="true"
     units="px"
     inkscape:pagecheckerboard="true"
     inkscape:window-width="1920"
     inkscape:window-height="991"
     inkscape:window-x="-9"
     inkscape:window-y="-9"
     inkscape:window-maximized="1">
    <inkscape:grid
       type="xygrid"
       id="grid833" />
  </sodipodi:namedview>
  <metadata
     id="metadata5">
    <rdf:RDF>
      <cc:Work
         rdf:about="">
        <dc:format>image/svg+xml</dc:format>
        <dc:type
           rdf:resource="http://purl.org/dc/dcmitype/StillImage" />
        <dc:title></dc:title>
      </cc:Work>
    </rdf:RDF>
  </metadata>
  <g
     inkscape:label="Layer 1"
     inkscape:groupmode="layer"
     id="layer1">
    <g
       transform="translate(-22.225,-8.4666669)"
       id="g1258">
      <g
         transform="translate(22.225,4.2333332)"
         id="g1082-3-6">
        <g
           id="g1037-9-0">
          <circle
             r="1.5875001"
             cy="5.8208337"
             cx="1.5875"
             id="path857-3-5-9-3-9-1"
             style="fill:#c8c8c8;fill-opacity:1;fill-rule:evenodd;stroke:none;stroke-width:0.015875;stroke-linecap:round;stroke-linejoin:bevel" />
        </g>
      </g>
      <path
         id="path1176"
         style="fill:#000000;fill-opacity:1;fill-rule:evenodd;stroke:none;stroke-width:0.264583;stroke-linecap:round"
         d="m 24.195939,8.8635702 a 0.79375007,0.79375007 0 0 0 -0.780314,0.79375 0.79375007,0.79375007 0 0 0 0.79375,0.7937478 0.79375007,0.79375007 0 0 0 0.79375,-0.7937478 0.79375007,0.79375007 0 0 0 -0.79375,-0.79375 0.79375007,0.79375007 0 0 0 -0.01344,0 z m 5.17e-4,0.2645833 a 0.52916671,0.52916671 0 0 1 0.01292,0 0.52916671,0.52916671 0 0 1 0.529166,0.5291667 0.52916671,0.52916671 0 0 1 -0.529166,0.5291648 0.52916671,0.52916671 0 0 1 -0.529167,-0.5291648 0.52916671,0.52916671 0 0 1 0.516248,-0.5291667 z" />
      <path
         style="fill:#000000;fill-opacity:1;stroke:none;stroke-width:0.264583px;stroke-linecap:butt;stroke-linejoin:miter;stroke-opacity:1"
         d="M 23.151042,10.980208 23.8125,10.31875 23.547917,10.054167 22.886458,10.715625 c -0.264583,0.264583 10e-7,0.529166 0.264584,0.264583 z"
         id="path1183"
         sodipodi:nodetypes="sccss" />
    </g>
  </g>
</svg>
