<?xml version="1.0" encoding="UTF-8" standalone="no"?>
<svg
   xmlns:dc="http://purl.org/dc/elements/1.1/"
   xmlns:cc="http://creativecommons.org/ns#"
   xmlns:rdf="http://www.w3.org/1999/02/22-rdf-syntax-ns#"
   xmlns:svg="http://www.w3.org/2000/svg"
   xmlns="http://www.w3.org/2000/svg"
   xmlns:xlink="http://www.w3.org/1999/xlink"
   xmlns:sodipodi="http://sodipodi.sourceforge.net/DTD/sodipodi-0.dtd"
   xmlns:inkscape="http://www.inkscape.org/namespaces/inkscape"
   sodipodi:docname="ctmw-m.svg"
   inkscape:version="1.0 (4035a4fb49, 2020-05-01)"
   id="svg8"
   version="1.1"
   viewBox="0 0 16.933333 16.933334"
   height="64"
   width="64">
  <defs
     id="defs2">
    <radialGradient
       inkscape:collect="always"
       xlink:href="#linearGradient980"
       id="radialGradient922-2"
       cx="32"
       cy="106.03609"
       fx="32"
       fy="106.03609"
       r="20.500006"
       gradientTransform="matrix(0.25813003,0,0,0.30975602,0.2065072,-21.203649)"
       gradientUnits="userSpaceOnUse" />
    <linearGradient
       inkscape:collect="always"
       id="linearGradient980">
      <stop
         style="stop-color:#f99f1e;stop-opacity:1"
         offset="0"
         id="stop976" />
      <stop
         style="stop-color:#cf241d;stop-opacity:1"
         offset="1"
         id="stop978" />
    </linearGradient>
  </defs>
  <sodipodi:namedview
     inkscape:window-maximized="1"
     inkscape:window-y="-9"
     inkscape:window-x="-9"
     inkscape:window-height="1001"
     inkscape:window-width="1920"
     inkscape:pagecheckerboard="true"
     units="px"
     showgrid="true"
     inkscape:document-rotation="0"
     inkscape:current-layer="layer1"
     inkscape:document-units="px"
     inkscape:cy="32"
     inkscape:cx="32"
     inkscape:zoom="12.140625"
     inkscape:pageshadow="2"
     inkscape:pageopacity="0.0"
     borderopacity="1.0"
     bordercolor="#666666"
     pagecolor="#ffffff"
     id="base">
    <inkscape:grid
       id="grid833"
       type="xygrid" />
  </sodipodi:namedview>
  <metadata
     id="metadata5">
    <rdf:RDF>
      <cc:Work
         rdf:about="">
        <dc:format>image/svg+xml</dc:format>
        <dc:type
           rdf:resource="http://purl.org/dc/dcmitype/StillImage" />
        <dc:title></dc:title>
      </cc:Work>
    </rdf:RDF>
  </metadata>
  <g
     id="layer1"
     inkscape:groupmode="layer"
     inkscape:label="Layer 1">
    <path
       id="path889-3"
       style="fill:url(#radialGradient922-2);fill-opacity:1;stroke:#000000;stroke-width:0.264583px;stroke-linecap:butt;stroke-linejoin:miter;stroke-opacity:1"
       d="m 3.704168,2.1166665 c 0,0 -0.5291669,0 -0.5291669,0.5291669 v 3.704167 c 0,6.3499996 5.291667,8.4666656 5.291667,8.4666656 0,0 5.2916679,-2.116666 5.2916669,-8.4666656 v -3.704167 c 0,0 -1e-6,-0.5291669 -0.529167,-0.5291669 z m 2.1166659,1.5875 h 1.0583342 l 1.5875,1.5875 1.5874989,-1.5875 h 1.058334 v 0.5291669 h -0.529167 l 1.058333,3.4395831 h 0.529167 v 0.2645839 0.264583 H 11.641668 L 10.583335,11.1125 h 0.264583 v 0.529166 H 9.5250009 V 11.1125 H 9.789585 L 8.4666681,10.054166 7.1437509,11.1125 h 0.264582 v 0.529166 H 6.085417 V 11.1125 H 6.3500009 L 5.291668,8.2020834 H 4.7625 V 7.9375004 7.6729165 H 5.291668 L 6.3500009,4.2333334 h -0.529167 z m 1.0583342,1.5875 -0.7937511,2.6458339 0.7937511,2.1166656 1.5875,-1.0583325 1.5874989,1.0583325 0.79375,-2.1166656 -0.79375,-2.6458339 -1.5874989,1.5875 z" />
  </g>
</svg>
