<?xml version="1.0" encoding="UTF-8" standalone="no"?>
<svg
   xmlns:dc="http://purl.org/dc/elements/1.1/"
   xmlns:cc="http://creativecommons.org/ns#"
   xmlns:rdf="http://www.w3.org/1999/02/22-rdf-syntax-ns#"
   xmlns:svg="http://www.w3.org/2000/svg"
   xmlns="http://www.w3.org/2000/svg"
   xmlns:sodipodi="http://sodipodi.sourceforge.net/DTD/sodipodi-0.dtd"
   xmlns:inkscape="http://www.inkscape.org/namespaces/inkscape"
   sodipodi:docname="fes-c.svg"
   inkscape:version="1.0 (4035a4fb49, 2020-05-01)"
   id="svg8"
   version="1.1"
   viewBox="0 0 16.933333 16.933334"
   height="64"
   width="64">
  <defs
     id="defs2" />
  <sodipodi:namedview
     inkscape:window-maximized="1"
     inkscape:window-y="-9"
     inkscape:window-x="-9"
     inkscape:window-height="991"
     inkscape:window-width="1920"
     inkscape:pagecheckerboard="true"
     units="px"
     showgrid="true"
     inkscape:document-rotation="0"
     inkscape:current-layer="layer1"
     inkscape:document-units="px"
     inkscape:cy="32"
     inkscape:cx="32"
     inkscape:zoom="11.796875"
     inkscape:pageshadow="2"
     inkscape:pageopacity="0.0"
     borderopacity="1.0"
     bordercolor="#666666"
     pagecolor="#ffffff"
     id="base">
    <inkscape:grid
       id="grid833"
       type="xygrid" />
  </sodipodi:namedview>
  <metadata
     id="metadata5">
    <rdf:RDF>
      <cc:Work
         rdf:about="">
        <dc:format>image/svg+xml</dc:format>
        <dc:type
           rdf:resource="http://purl.org/dc/dcmitype/StillImage" />
        <dc:title></dc:title>
      </cc:Work>
    </rdf:RDF>
  </metadata>
  <g
     id="layer1"
     inkscape:groupmode="layer"
     inkscape:label="Layer 1">
    <g
       transform="translate(50.8,-16.933334)"
       id="g1760">
      <path
         style="fill:#000000;fill-opacity:1;stroke:#ffffff;stroke-width:0.330729px;stroke-linecap:butt;stroke-linejoin:miter;stroke-opacity:1"
         d="m -42.333334,31.913413 5.291667,-2.645834 -1e-6,-6.614582 -5.291666,-2.645835 -5.291667,2.645835 10e-7,6.614582 z"
         id="path1661"
         sodipodi:nodetypes="ccccccc" />
      <path
         id="path1663"
         style="fill:#ffffff;fill-opacity:1;stroke:none;stroke-width:0.330729px;stroke-linecap:butt;stroke-linejoin:miter;stroke-opacity:1"
         d="m -44.317709,20.999351 -1.322918,0.661458 1.984375,0.992188 -1.984375,0.992187 v 2.645833 l -1.984374,-0.992188 v 1.322918 l 1.984374,0.992187 v 2.645833 l 1.322918,0.661459 v -2.645834 l 1.984375,0.992187 1.984375,-0.992187 v 2.645834 l 1.322916,-0.661459 v -2.645833 l 1.984375,-0.992187 v -1.322918 l -1.984375,0.992188 v -2.645833 l -1.984375,-0.992187 1.984375,-0.992188 -1.322916,-0.661458 -1.984375,0.992187 z m 1.984375,1.984375 1.984375,0.992187 v 2.976563 l -1.984375,0.992187 -1.984375,-0.992187 v -2.976563 z" />
      <path
         id="path1665-1"
         style="fill:#000000;fill-opacity:1;stroke:#ffffff;stroke-width:0.330729;stroke-linecap:round;stroke-linejoin:round;stroke-miterlimit:4;stroke-dasharray:none;stroke-opacity:1"
         d="m -44.31771,19.676434 c -1.653645,0 -1.322916,1.322917 -1.322916,1.322917 0.330729,1.322916 3.307292,1.322917 3.307292,1.322917 0,0 2.976562,-1e-6 3.307291,-1.322917 0,0 0.330729,-1.322917 -1.322916,-1.322917 0,0 -1.984375,0 -1.984375,1.984375 0,-1.984375 -1.984376,-1.984375 -1.984376,-1.984375 z"
         sodipodi:nodetypes="ccccccc" />
    </g>
  </g>
</svg>
