<?xml version="1.0" encoding="UTF-8" standalone="no"?>
<svg
   xmlns:dc="http://purl.org/dc/elements/1.1/"
   xmlns:cc="http://creativecommons.org/ns#"
   xmlns:rdf="http://www.w3.org/1999/02/22-rdf-syntax-ns#"
   xmlns:svg="http://www.w3.org/2000/svg"
   xmlns="http://www.w3.org/2000/svg"
   xmlns:sodipodi="http://sodipodi.sourceforge.net/DTD/sodipodi-0.dtd"
   xmlns:inkscape="http://www.inkscape.org/namespaces/inkscape"
   sodipodi:docname="generic-mana-symbol-12.svg"
   inkscape:version="1.0 (4035a4fb49, 2020-05-01)"
   id="svg8"
   version="1.1"
   viewBox="0 0 3.1749999 3.1750001"
   height="12"
   width="12">
  <defs
     id="defs2" />
  <sodipodi:namedview
     inkscape:window-maximized="1"
     inkscape:window-y="-9"
     inkscape:window-x="-9"
     inkscape:window-height="1001"
     inkscape:window-width="1920"
     inkscape:pagecheckerboard="true"
     units="px"
     showgrid="true"
     inkscape:document-rotation="0"
     inkscape:current-layer="layer1"
     inkscape:document-units="px"
     inkscape:cy="6"
     inkscape:cx="6"
     inkscape:zoom="64.75"
     inkscape:pageshadow="2"
     inkscape:pageopacity="0.0"
     borderopacity="1.0"
     bordercolor="#666666"
     pagecolor="#ffffff"
     id="base">
    <inkscape:grid
       id="grid833"
       type="xygrid" />
  </sodipodi:namedview>
  <metadata
     id="metadata5">
    <rdf:RDF>
      <cc:Work
         rdf:about="">
        <dc:format>image/svg+xml</dc:format>
        <dc:type
           rdf:resource="http://purl.org/dc/dcmitype/StillImage" />
        <dc:title />
      </cc:Work>
    </rdf:RDF>
  </metadata>
  <g
     id="layer1"
     inkscape:groupmode="layer"
     inkscape:label="Layer 1">
    <g
       id="g1082"
       transform="translate(8.4852092e-7,-4.2333335)">
      <g
         id="g1037">
        <circle
           r="1.5875001"
           cy="5.8208337"
           cx="1.5875"
           id="path857-3-5-9-3"
           style="fill:#c8c8c8;fill-opacity:0.992157;fill-rule:evenodd;stroke:none;stroke-width:0.015875;stroke-linecap:round;stroke-linejoin:bevel" />
        <g
           style="font-style:normal;font-variant:normal;font-weight:normal;font-stretch:normal;font-size:2.82222px;line-height:1.25;font-family:MPlantin-Bold;-inkscape-font-specification:MPlantin-Bold;text-align:center;letter-spacing:-0.264583px;text-anchor:middle;stroke-width:0.264568"
           id="text987-8"
           aria-label="12">
          <path
             id="path836"
             style="font-style:normal;font-variant:normal;font-weight:normal;font-stretch:normal;font-size:2.82222px;font-family:MPlantin-Bold;-inkscape-font-specification:MPlantin-Bold;text-align:center;text-anchor:middle;stroke-width:0.264568"
             d="m 1.0883421,4.8683343 v 1.3969989 0.1439332 q 0,0.1100666 0.059267,0.166511 0.062089,0.056444 0.1806221,0.056444 l 0.0508,-0.00282 V 6.7394662 H 0.42512036 V 6.6293996 h 0.0310444 q 0.15804432,0.00282 0.20884428,-0.059267 0.0508,-0.062089 0.0508,-0.2483554 V 5.5456671 q 0,-0.166511 -0.0508,-0.2257776 -0.0479777,-0.059267 -0.19191096,-0.059267 l -0.0479777,-0.00282 V 5.133623 q 0.0423333,-0.00847 0.0874888,-0.028222 0.0479777,-0.019756 0.0959555,-0.042333 0.0564444,-0.0254 0.10724436,-0.053622 0.0536222,-0.031044 0.0987777,-0.062089 0.0310444,-0.019756 0.0564444,-0.036689 0.0254,-0.019756 0.0451555,-0.039511 l 0.17215545,-0.00282 z" />
          <path
             id="path838"
             style="font-style:normal;font-variant:normal;font-weight:normal;font-stretch:normal;font-size:2.82222px;font-family:MPlantin-Bold;-inkscape-font-specification:MPlantin-Bold;text-align:center;text-anchor:middle;stroke-width:0.264568"
             d="M 2.7019025,6.2399332 2.5410359,6.7394662 H 1.4544812 V 6.6124663 q 0.011289,-0.00847 0.019756,-0.014111 0.00847,-0.00847 0.016933,-0.016933 0,0 0,0 0.00282,0 0.00282,-0.00282 0.014111,-0.011289 0.028222,-0.0254 0.016933,-0.016933 0.045155,-0.042333 0.1128888,-0.1128888 0.1890888,-0.191911 0.0762,-0.081844 0.1382887,-0.1552221 0.019756,-0.0254 0.036689,-0.047978 0.019756,-0.0254 0.039511,-0.0508 0.016933,-0.0254 0.033867,-0.0508 0.019756,-0.028222 0.039511,-0.056444 0.098778,-0.1467554 0.1439332,-0.256822 0.047978,-0.1128888 0.047978,-0.2116665 0,-0.1495777 -0.1016,-0.2483554 -0.1015999,-0.098778 -0.256822,-0.098778 -0.056444,0 -0.1072443,0.014111 -0.047978,0.011289 -0.095955,0.039511 -0.028222,0.016933 -0.056444,0.039511 -0.0254,0.019755 -0.056444,0.047978 l -0.0762,-0.090311 Q 1.61817,5.0376675 1.7733921,4.9558231 q 0.1552221,-0.084667 0.3189108,-0.084667 0.2116665,0 0.358422,0.1298221 0.1467554,0.1298221 0.1467554,0.3189109 0,0.031044 -0.00282,0.062089 -0.00282,0.028222 -0.00847,0.059267 -0.019756,0.1044221 -0.0762,0.2116665 -0.053622,0.1044221 -0.141111,0.2003776 -0.047978,0.053622 -0.1213555,0.1269999 -0.070556,0.073378 -0.1495776,0.1523999 -0.011289,0.011289 -0.022578,0.022578 -0.00847,0.00847 -0.019756,0.019756 -0.047978,0.047978 -0.095956,0.093133 -0.047978,0.045156 -0.090311,0.084667 l -0.042333,0.036689 h 0.4769551 q 0.1326444,0.00282 0.1834444,-0.0254 0.053622,-0.031044 0.087489,-0.1213554 l 0.1269999,-0.00282 z" />
        </g>
      </g>
    </g>
  </g>
</svg>
