<?xml version="1.0" encoding="UTF-8" standalone="no"?>
<svg
   xmlns:dc="http://purl.org/dc/elements/1.1/"
   xmlns:cc="http://creativecommons.org/ns#"
   xmlns:rdf="http://www.w3.org/1999/02/22-rdf-syntax-ns#"
   xmlns:svg="http://www.w3.org/2000/svg"
   xmlns="http://www.w3.org/2000/svg"
   xmlns:sodipodi="http://sodipodi.sourceforge.net/DTD/sodipodi-0.dtd"
   xmlns:inkscape="http://www.inkscape.org/namespaces/inkscape"
   sodipodi:docname="generic-mana-symbol-9.svg"
   inkscape:version="1.0 (4035a4fb49, 2020-05-01)"
   id="svg8"
   version="1.1"
   viewBox="0 0 3.1749999 3.1750001"
   height="12"
   width="12">
  <defs
     id="defs2" />
  <sodipodi:namedview
     inkscape:window-maximized="1"
     inkscape:window-y="-9"
     inkscape:window-x="-9"
     inkscape:window-height="1001"
     inkscape:window-width="1920"
     inkscape:pagecheckerboard="true"
     units="px"
     showgrid="true"
     inkscape:document-rotation="0"
     inkscape:current-layer="layer1"
     inkscape:document-units="px"
     inkscape:cy="10.5"
     inkscape:cx="10.5"
     inkscape:zoom="37"
     inkscape:pageshadow="2"
     inkscape:pageopacity="0.0"
     borderopacity="1.0"
     bordercolor="#666666"
     pagecolor="#ffffff"
     id="base">
    <inkscape:grid
       id="grid833"
       type="xygrid" />
  </sodipodi:namedview>
  <metadata
     id="metadata5">
    <rdf:RDF>
      <cc:Work
         rdf:about="">
        <dc:format>image/svg+xml</dc:format>
        <dc:type
           rdf:resource="http://purl.org/dc/dcmitype/StillImage" />
        <dc:title />
      </cc:Work>
    </rdf:RDF>
  </metadata>
  <g
     id="layer1"
     inkscape:groupmode="layer"
     inkscape:label="Layer 1">
    <g
       transform="translate(0,-4.2333335)"
       id="g1082">
      <g
         id="g1037">
        <circle
           r="1.5875001"
           cy="5.8208337"
           cx="1.5875"
           id="path857-3-5-9-3"
           style="fill:#c8c8c8;fill-opacity:1;fill-rule:evenodd;stroke:none;stroke-width:0.015875;stroke-linecap:round;stroke-linejoin:bevel" />
        <g
           style="font-style:normal;font-variant:normal;font-weight:normal;font-stretch:normal;font-size:3.52758px;line-height:1.25;font-family:MPlantin-Bold;-inkscape-font-specification:MPlantin-Bold;text-align:center;text-anchor:middle;stroke-width:0.264568"
           id="text987-8"
           aria-label="9">
          <path
             id="path836"
             style="font-style:normal;font-variant:normal;font-weight:normal;font-stretch:normal;font-size:3.52758px;font-family:MPlantin-Bold;-inkscape-font-specification:MPlantin-Bold;text-align:center;text-anchor:middle;stroke-width:0.264568"
             d="m 1.0486477,7.0535714 -0.10935496,-0.1375756 0.0176379,-0.00706 q 0.0634965,-0.021165 0.11993776,-0.045859 0.056441,-0.024693 0.1058274,-0.049386 0.095245,-0.049386 0.1693238,-0.098772 0.074079,-0.049386 0.1446308,-0.1128826 0.00353,-0.00706 0.00706,-0.010583 0.00706,-0.00706 0.01411,-0.010583 0.063496,-0.059969 0.1164101,-0.1269929 0.052914,-0.070552 0.08819,-0.1375756 0.017638,-0.031748 0.031748,-0.067024 0.017638,-0.038803 0.031748,-0.077607 0.017638,-0.052914 0.031748,-0.1022998 0.01411,-0.052914 0.017638,-0.091717 l -0.00706,-0.010583 q -0.045859,0.049386 -0.1234653,0.08819 -0.074079,0.038803 -0.1552135,0.059969 -0.038803,0.010583 -0.077607,0.017638 -0.035276,0.00353 -0.070552,0.00353 -0.2645685,0 -0.44447506,-0.1975444 -0.176379,-0.2010721 -0.176379,-0.4973888 0,-0.3210098 0.22576516,-0.5432474 0.2292927,-0.2222375 0.5608852,-0.2222375 0.3668683,0 0.5926334,0.2680961 0.2292927,0.2680961 0.2292927,0.6984608 0,0.5256095 -0.3668683,0.9101157 -0.3633407,0.3845062 -0.9736121,0.5009163 z m 0.8078159,-1.2805115 0.00353,-0.028221 q 0.00353,-0.028221 0.00353,-0.052914 0.00353,-0.028221 0.00353,-0.056441 0.00353,-0.031748 0.00353,-0.063497 0,-0.035276 0,-0.077607 0,-0.3139546 -0.081134,-0.4868061 -0.081134,-0.176379 -0.2257651,-0.176379 -0.1305205,0 -0.2045996,0.1340481 -0.074079,0.1305204 -0.074079,0.3668683 0,0.243403 0.084662,0.3986165 0.084662,0.151686 0.2151824,0.151686 0.017638,0 0.035276,0 0.017638,-0.00353 0.035276,-0.00706 0.056441,-0.010583 0.1128825,-0.035276 0.056441,-0.028221 0.08819,-0.063496 z" />
        </g>
      </g>
    </g>
  </g>
</svg>
