<?xml version="1.0" encoding="UTF-8" standalone="no"?>
<svg
   xmlns:dc="http://purl.org/dc/elements/1.1/"
   xmlns:cc="http://creativecommons.org/ns#"
   xmlns:rdf="http://www.w3.org/1999/02/22-rdf-syntax-ns#"
   xmlns:svg="http://www.w3.org/2000/svg"
   xmlns="http://www.w3.org/2000/svg"
   xmlns:sodipodi="http://sodipodi.sourceforge.net/DTD/sodipodi-0.dtd"
   xmlns:inkscape="http://www.inkscape.org/namespaces/inkscape"
   sodipodi:docname="generic-mana-symbol-5.svg"
   inkscape:version="1.0 (4035a4fb49, 2020-05-01)"
   id="svg8"
   version="1.1"
   viewBox="0 0 3.1749999 3.1750001"
   height="12"
   width="12">
  <defs
     id="defs2" />
  <sodipodi:namedview
     inkscape:window-maximized="1"
     inkscape:window-y="-9"
     inkscape:window-x="-9"
     inkscape:window-height="1001"
     inkscape:window-width="1920"
     inkscape:pagecheckerboard="true"
     units="px"
     showgrid="true"
     inkscape:document-rotation="0"
     inkscape:current-layer="layer1"
     inkscape:document-units="px"
     inkscape:cy="10.5"
     inkscape:cx="10.5"
     inkscape:zoom="37"
     inkscape:pageshadow="2"
     inkscape:pageopacity="0.0"
     borderopacity="1.0"
     bordercolor="#666666"
     pagecolor="#ffffff"
     id="base">
    <inkscape:grid
       id="grid833"
       type="xygrid" />
  </sodipodi:namedview>
  <metadata
     id="metadata5">
    <rdf:RDF>
      <cc:Work
         rdf:about="">
        <dc:format>image/svg+xml</dc:format>
        <dc:type
           rdf:resource="http://purl.org/dc/dcmitype/StillImage" />
        <dc:title />
      </cc:Work>
    </rdf:RDF>
  </metadata>
  <g
     id="layer1"
     inkscape:groupmode="layer"
     inkscape:label="Layer 1">
    <g
       transform="translate(0,-4.2333335)"
       id="g1082">
      <g
         id="g1037">
        <circle
           r="1.5875001"
           cy="5.8208337"
           cx="1.5875"
           id="path857-3-5-9-3"
           style="fill:#c8c8c8;fill-opacity:1;fill-rule:evenodd;stroke:none;stroke-width:0.015875;stroke-linecap:round;stroke-linejoin:bevel" />
        <g
           style="font-style:normal;font-variant:normal;font-weight:normal;font-stretch:normal;font-size:3.52758px;line-height:1.25;font-family:MPlantin-Bold;-inkscape-font-specification:MPlantin-Bold;text-align:center;text-anchor:middle;stroke-width:0.264568"
           id="text987-8"
           aria-label="5">
          <path
             id="path836"
             style="font-style:normal;font-variant:normal;font-weight:normal;font-stretch:normal;font-size:3.52758px;font-family:MPlantin-Bold;-inkscape-font-specification:MPlantin-Bold;text-align:center;text-anchor:middle;stroke-width:0.264568"
             d="m 2.1880561,4.6160136 0.1269929,0.063497 -0.1587411,0.310427 q -0.00706,0.024693 -0.01411,0.035276 -0.00706,0.010583 -0.00706,0.01411 -0.00353,0.00706 -0.010583,0.01411 -0.00706,0.00353 -0.01411,0.010583 -0.00706,0.00353 -0.017638,0.010583 -0.00706,0.00353 -0.01411,0.00353 -0.00353,0 -0.017638,0 -0.01411,0 -0.038803,0.00353 L 1.9093773,5.0781266 H 1.3943506 l -0.1269929,0.2963168 0.028221,0.00706 q 0.088189,0.028221 0.1587411,0.049386 0.070552,0.017638 0.1269929,0.038803 0.081134,0.028221 0.1446308,0.056441 0.067024,0.028221 0.1269929,0.063496 0.010583,0.00706 0.021166,0.01411 0.010583,0.00706 0.021165,0.01411 0.1834342,0.1164101 0.2751513,0.2716236 0.095245,0.1552136 0.095245,0.3351201 0,0.1834342 -0.091717,0.352758 -0.088189,0.1657963 -0.2363479,0.2680961 -0.095245,0.063496 -0.2222376,0.1128826 -0.1234653,0.045858 -0.2539857,0.067024 -0.063497,0.01411 -0.1305205,0.021166 -0.063496,0.00706 -0.1234653,0.00706 -0.1728514,0 -0.25398574,-0.031748 -0.0776068,-0.031748 -0.0776068,-0.109355 0,-0.081134 0.042331,-0.1446307 0.0458585,-0.063496 0.0987722,-0.063496 0.021165,0 0.052914,0.00706 0.031748,0.00706 0.070552,0.021165 0.038803,0.01411 0.084662,0.028221 0.045859,0.01411 0.095245,0.024693 0.063496,0.01411 0.1234653,0.024693 0.059969,0.00706 0.1022998,0.00706 0.1622687,0 0.2610409,-0.091717 0.098772,-0.095245 0.098772,-0.2504582 0,-0.1516859 -0.098772,-0.2680961 Q 1.7083052,6.0870145 1.4860676,5.9776595 1.4366815,5.9529665 1.3802402,5.9282734 1.3273265,5.9035804 1.2638301,5.8788873 1.2038612,5.8541942 1.1615303,5.8400839 q -0.042331,-0.01411 -0.077607,-0.024693 -0.010583,-0.00353 -0.024693,-0.00706 -0.010583,-0.00353 -0.021165,-0.00706 -0.021165,-0.00706 -0.0458586,-0.010583 -0.0211655,-0.00706 -0.0493861,-0.01411 L 1.3943506,4.7183135 h 0.7196263 l 0.074079,-0.1022999 z" />
        </g>
      </g>
    </g>
  </g>
</svg>
