<?xml version="1.0" encoding="UTF-8" standalone="no"?>
<svg
   xmlns:dc="http://purl.org/dc/elements/1.1/"
   xmlns:cc="http://creativecommons.org/ns#"
   xmlns:rdf="http://www.w3.org/1999/02/22-rdf-syntax-ns#"
   xmlns:svg="http://www.w3.org/2000/svg"
   xmlns="http://www.w3.org/2000/svg"
   xmlns:sodipodi="http://sodipodi.sourceforge.net/DTD/sodipodi-0.dtd"
   xmlns:inkscape="http://www.inkscape.org/namespaces/inkscape"
   width="12"
   height="12"
   viewBox="0 0 3.1749999 3.1750001"
   version="1.1"
   id="svg8"
   inkscape:version="1.0 (4035a4fb49, 2020-05-01)"
   sodipodi:docname="generic-mana-symbol-10.svg">
  <defs
     id="defs2" />
  <sodipodi:namedview
     id="base"
     pagecolor="#ffffff"
     bordercolor="#666666"
     borderopacity="1.0"
     inkscape:pageopacity="0.0"
     inkscape:pageshadow="2"
     inkscape:zoom="64.75"
     inkscape:cx="6"
     inkscape:cy="6"
     inkscape:document-units="px"
     inkscape:current-layer="layer1"
     inkscape:document-rotation="0"
     showgrid="true"
     units="px"
     inkscape:pagecheckerboard="true"
     inkscape:window-width="1920"
     inkscape:window-height="1001"
     inkscape:window-x="-9"
     inkscape:window-y="-9"
     inkscape:window-maximized="1">
    <inkscape:grid
       type="xygrid"
       id="grid833" />
  </sodipodi:namedview>
  <metadata
     id="metadata5">
    <rdf:RDF>
      <cc:Work
         rdf:about="">
        <dc:format>image/svg+xml</dc:format>
        <dc:type
           rdf:resource="http://purl.org/dc/dcmitype/StillImage" />
        <dc:title></dc:title>
      </cc:Work>
    </rdf:RDF>
  </metadata>
  <g
     inkscape:label="Layer 1"
     inkscape:groupmode="layer"
     id="layer1">
    <g
       transform="translate(8.4852092e-7,-4.2333335)"
       id="g1082">
      <g
         id="g1037">
        <circle
           style="fill:#c8c8c8;fill-opacity:0.992157;fill-rule:evenodd;stroke:none;stroke-width:0.015875;stroke-linecap:round;stroke-linejoin:bevel"
           id="path857-3-5-9-3"
           cx="1.5875"
           cy="5.8208337"
           r="1.5875001" />
        <g
           style="font-style:normal;font-variant:normal;font-weight:normal;font-stretch:normal;font-size:2.82222px;line-height:1.25;font-family:MPlantin-Bold;-inkscape-font-specification:MPlantin-Bold;text-align:center;letter-spacing:-0.264583px;text-anchor:middle;stroke-width:0.264568"
           id="text987-8"
           aria-label="10">
          <path
             id="path852"
             style="font-style:normal;font-variant:normal;font-weight:normal;font-stretch:normal;font-size:2.82222px;font-family:MPlantin-Bold;-inkscape-font-specification:MPlantin-Bold;text-align:center;text-anchor:middle;stroke-width:0.264568"
             d="m 1.0883421,4.8683343 v 1.3969989 0.1439332 q 0,0.1100666 0.059267,0.166511 0.062089,0.056444 0.1806221,0.056444 l 0.0508,-0.00282 V 6.7394662 H 0.42512036 V 6.6293996 h 0.0310444 q 0.15804432,0.00282 0.20884428,-0.059267 0.0508,-0.062089 0.0508,-0.2483554 V 5.5456671 q 0,-0.166511 -0.0508,-0.2257776 -0.0479777,-0.059267 -0.19191096,-0.059267 l -0.0479777,-0.00282 V 5.133623 q 0.0423333,-0.00847 0.0874888,-0.028222 0.0479777,-0.019756 0.0959555,-0.042333 0.0564444,-0.0254 0.10724436,-0.053622 0.0536222,-0.031044 0.0987777,-0.062089 0.0310444,-0.019756 0.0564444,-0.036689 0.0254,-0.019756 0.0451555,-0.039511 l 0.17215545,-0.00282 z" />
          <path
             id="path854"
             style="font-style:normal;font-variant:normal;font-weight:normal;font-stretch:normal;font-size:2.82222px;font-family:MPlantin-Bold;-inkscape-font-specification:MPlantin-Bold;text-align:center;text-anchor:middle;stroke-width:0.264568"
             d="m 2.7414136,5.813778 q 0,0.4035775 -0.1862666,0.6829773 -0.1862665,0.2765775 -0.4543774,0.2765775 -0.2652887,0 -0.4543774,-0.282222 -0.1890888,-0.2850442 -0.1890888,-0.680155 0,-0.3866442 0.1890888,-0.6632217 0.1890887,-0.2765776 0.448733,-0.2765776 0.2709331,0 0.4571996,0.2765776 0.1890888,0.2737553 0.1890888,0.6688661 z M 1.8665253,5.7799114 v 0.2201331 q 0,0.1326444 0.00564,0.2370665 0.00847,0.1044222 0.0254,0.1806221 0.022578,0.1015999 0.0762,0.166511 0.056444,0.062089 0.1269999,0.062089 0.059267,0 0.1100666,-0.045155 0.053622,-0.047978 0.0762,-0.1241777 0.028222,-0.084667 0.036689,-0.2031998 0.00847,-0.1185333 0.00847,-0.358422 0,-0.231422 -0.00564,-0.3866441 Q 2.323725,5.3735117 2.3096139,5.274734 2.2926806,5.1505563 2.2362362,5.0743563 q -0.056444,-0.0762 -0.1382888,-0.0762 -0.00282,0 -0.00847,0 -0.00282,0 -0.00847,0 -0.036689,0.00564 -0.070555,0.028222 -0.033867,0.022578 -0.053622,0.056444 -0.028222,0.045155 -0.045156,0.098778 -0.016933,0.0508 -0.0254,0.1100666 -0.00282,0.016933 -0.00564,0.033867 0,0.016933 -0.00282,0.031044 -0.00564,0.067733 -0.00847,0.1552222 -0.00282,0.084667 -0.00282,0.2709331 z" />
        </g>
      </g>
    </g>
  </g>
</svg>
