<?xml version="1.0" encoding="UTF-8" standalone="no"?>
<svg
   xmlns:dc="http://purl.org/dc/elements/1.1/"
   xmlns:cc="http://creativecommons.org/ns#"
   xmlns:rdf="http://www.w3.org/1999/02/22-rdf-syntax-ns#"
   xmlns:svg="http://www.w3.org/2000/svg"
   xmlns="http://www.w3.org/2000/svg"
   xmlns:sodipodi="http://sodipodi.sourceforge.net/DTD/sodipodi-0.dtd"
   xmlns:inkscape="http://www.inkscape.org/namespaces/inkscape"
   sodipodi:docname="generic-mana-symbol-3.svg"
   inkscape:version="1.0 (4035a4fb49, 2020-05-01)"
   id="svg8"
   version="1.1"
   viewBox="0 0 3.1749999 3.1750001"
   height="12"
   width="12">
  <defs
     id="defs2" />
  <sodipodi:namedview
     inkscape:window-maximized="1"
     inkscape:window-y="-9"
     inkscape:window-x="-9"
     inkscape:window-height="1001"
     inkscape:window-width="1920"
     inkscape:pagecheckerboard="true"
     units="px"
     showgrid="true"
     inkscape:document-rotation="0"
     inkscape:current-layer="layer1"
     inkscape:document-units="px"
     inkscape:cy="10.5"
     inkscape:cx="10.5"
     inkscape:zoom="37"
     inkscape:pageshadow="2"
     inkscape:pageopacity="0.0"
     borderopacity="1.0"
     bordercolor="#666666"
     pagecolor="#ffffff"
     id="base">
    <inkscape:grid
       id="grid833"
       type="xygrid" />
  </sodipodi:namedview>
  <metadata
     id="metadata5">
    <rdf:RDF>
      <cc:Work
         rdf:about="">
        <dc:format>image/svg+xml</dc:format>
        <dc:type
           rdf:resource="http://purl.org/dc/dcmitype/StillImage" />
        <dc:title />
      </cc:Work>
    </rdf:RDF>
  </metadata>
  <g
     id="layer1"
     inkscape:groupmode="layer"
     inkscape:label="Layer 1">
    <g
       transform="translate(0,-4.2333335)"
       id="g1082">
      <g
         id="g1037">
        <circle
           r="1.5875001"
           cy="5.8208337"
           cx="1.5875"
           id="path857-3-5-9-3"
           style="fill:#c8c8c8;fill-opacity:1;fill-rule:evenodd;stroke:none;stroke-width:0.015875;stroke-linecap:round;stroke-linejoin:bevel" />
        <g
           style="font-style:normal;font-variant:normal;font-weight:normal;font-stretch:normal;font-size:3.52758px;line-height:1.25;font-family:MPlantin-Bold;-inkscape-font-specification:MPlantin-Bold;text-align:center;text-anchor:middle;stroke-width:0.264568"
           id="text987-8"
           aria-label="3">
          <path
             id="path836"
             style="font-style:normal;font-variant:normal;font-weight:normal;font-stretch:normal;font-size:3.52758px;font-family:MPlantin-Bold;-inkscape-font-specification:MPlantin-Bold;text-align:center;text-anchor:middle;stroke-width:0.264568"
             d="M 0.90754452,5.2015919 0.8052447,5.0675439 q 0.0388034,-0.042331 0.0634964,-0.070552 0.0246931,-0.028221 0.0493861,-0.052914 0.007055,-0.00706 0.0105827,-0.010583 0.007055,-0.00706 0.0141103,-0.01411 0.0176379,-0.01411 0.0352758,-0.028221 0.0176379,-0.01411 0.0388034,-0.031748 0.1128826,-0.091717 0.2539858,-0.1375757 0.1446307,-0.045859 0.310427,-0.045859 0.2751513,0 0.4444751,0.134048 0.1693238,0.1305205 0.1693238,0.3421753 0,0.1446308 -0.091717,0.2610409 -0.091717,0.1164102 -0.2786789,0.2045997 0.2292927,0.088189 0.352758,0.243403 0.1269929,0.1552135 0.1269929,0.3492304 0,0.3457029 -0.2963167,0.596161 -0.2963167,0.2504582 -0.705516,0.2504582 -0.2045997,0 -0.34570286,-0.056441 -0.13757562,-0.059969 -0.13757562,-0.1446307 0,-0.021166 0.0105827,-0.049386 0.0105827,-0.031748 0.0317482,-0.063496 0.0246931,-0.038803 0.0493861,-0.056441 0.0282206,-0.017638 0.067024,-0.017638 0.007055,0 0.0141103,0 0.0105828,0 0.0176379,0.00353 0.042331,0.00353 0.084662,0.031748 0.045859,0.024693 0.1093549,0.077607 0.042331,0.035276 0.074079,0.056441 0.035276,0.021165 0.063496,0.035276 0.024693,0.00706 0.045859,0.010583 0.024693,0.00353 0.049386,0.00353 0.1657963,0 0.2751513,-0.1340481 0.109355,-0.134048 0.109355,-0.3315925 0,-0.2081272 -0.1234654,-0.3245373 -0.1234653,-0.1199378 -0.3809786,-0.1552136 -0.035276,-0.00353 -0.063496,-0.00706 -0.028221,-0.00353 -0.056441,-0.00706 -0.038803,-0.00353 -0.081134,-0.00353 -0.038803,-0.00353 -0.098772,-0.00353 l 0.028221,-0.1552136 q 0.3033719,0.00353 0.4868061,-0.1164101 0.1834341,-0.1234653 0.1834341,-0.3280649 0,-0.1446308 -0.1058274,-0.2398755 -0.1058274,-0.095245 -0.268096,-0.095245 -0.031748,0 -0.063496,0.00353 -0.028221,0.00353 -0.059969,0.010583 -0.063497,0.021165 -0.1375757,0.070552 -0.070552,0.045858 -0.17285138,0.134048 z" />
        </g>
      </g>
    </g>
  </g>
</svg>
