<?xml version="1.0" encoding="UTF-8" standalone="no"?>
<svg
   xmlns:dc="http://purl.org/dc/elements/1.1/"
   xmlns:cc="http://creativecommons.org/ns#"
   xmlns:rdf="http://www.w3.org/1999/02/22-rdf-syntax-ns#"
   xmlns:svg="http://www.w3.org/2000/svg"
   xmlns="http://www.w3.org/2000/svg"
   xmlns:sodipodi="http://sodipodi.sourceforge.net/DTD/sodipodi-0.dtd"
   xmlns:inkscape="http://www.inkscape.org/namespaces/inkscape"
   width="12"
   height="12"
   viewBox="0 0 3.1749999 3.1750001"
   version="1.1"
   id="svg8"
   inkscape:version="1.0 (4035a4fb49, 2020-05-01)"
   sodipodi:docname="green-mana-symbol.svg">
  <defs
     id="defs2" />
  <sodipodi:namedview
     inkscape:snap-smooth-nodes="true"
     inkscape:snap-object-midpoints="true"
     id="base"
     pagecolor="#ffffff"
     bordercolor="#666666"
     borderopacity="1.0"
     inkscape:pageopacity="0.0"
     inkscape:pageshadow="2"
     inkscape:zoom="37"
     inkscape:cx="10.5"
     inkscape:cy="10.5"
     inkscape:document-units="px"
     inkscape:current-layer="layer1"
     inkscape:document-rotation="0"
     showgrid="true"
     units="px"
     inkscape:pagecheckerboard="true"
     inkscape:window-width="1920"
     inkscape:window-height="1001"
     inkscape:window-x="-9"
     inkscape:window-y="-9"
     inkscape:window-maximized="1">
    <inkscape:grid
       type="xygrid"
       id="grid833" />
  </sodipodi:namedview>
  <metadata
     id="metadata5">
    <rdf:RDF>
      <cc:Work
         rdf:about="">
        <dc:format>image/svg+xml</dc:format>
        <dc:type
           rdf:resource="http://purl.org/dc/dcmitype/StillImage" />
        <dc:title></dc:title>
      </cc:Work>
    </rdf:RDF>
  </metadata>
  <g
     inkscape:label="Layer 1"
     inkscape:groupmode="layer"
     id="layer1">
    <g
       transform="translate(-13.758334)"
       style="display:inline"
       id="g1075">
      <g
         id="g1032">
        <path
           id="path2245"
           style="fill:#c2e3cd;stroke-width:0.015875"
           d="M 15.345832,-5.8e-8 A 1.5874999,1.5874999 0 0 0 13.758332,1.5875 1.5874999,1.5874999 0 0 0 15.345832,3.175 1.5874999,1.5874999 0 0 0 16.933332,1.5875 1.5874999,1.5874999 0 0 0 15.345832,-5.8e-8 Z" />
        <path
           id="path2243"
           d="m 15.285419,2.9798483 c -0.01881,-0.020021 -0.04218,-0.059312 -0.05194,-0.087312 -0.0098,-0.028001 -0.02655,-0.050911 -0.03732,-0.050911 -0.01076,0 -0.04291,0.032508 -0.07145,0.07224 -0.02853,0.039732 -0.06011,0.069503 -0.07016,0.066157 -0.01005,-0.00334 -0.02982,-0.037639 -0.04392,-0.076208 -0.04072,-0.1113496 -0.105762,-0.1274508 -0.426795,-0.1056495 -0.08929,0.00606 -0.06841,-0.035989 0.05241,-0.1055605 0.08627,-0.049673 0.130076,-0.064199 0.217893,-0.072249 0.07492,-0.00687 0.123939,-0.020637 0.153961,-0.043248 0.04256,-0.032052 0.044,-0.037936 0.04272,-0.1740464 -10e-4,-0.110298 -0.0086,-0.1549808 -0.03478,-0.2058757 -0.04472,-0.086868 -0.125598,-0.1552118 -0.228499,-0.1930768 -0.161896,-0.059574 -0.164308,-0.059387 -0.208618,0.016223 -0.05054,0.086241 -0.143636,0.1393152 -0.26342,0.1501768 -0.112179,0.010172 -0.187839,-0.021066 -0.253527,-0.1046729 -0.113929,-0.1450086 -0.128846,-0.2635741 -0.049,-0.3894769 l 0.04827,-0.076108 -0.04033,-0.080929 c -0.04761,-0.095539 -0.05018,-0.1549023 -0.01047,-0.241383 0.03334,-0.072599 0.0703,-0.1096417 0.133298,-0.1335943 0.02422,-0.00921 0.0478,-0.029351 0.0524,-0.044761 0.0046,-0.015411 0.02148,-0.056595 0.03751,-0.091519 0.02275,-0.0495464 0.02744,-0.0882213 0.02134,-0.17600176 -0.0065,-0.0935024 -0.0021,-0.12366048 0.02589,-0.17857602 0.07481,-0.14663682 0.266518,-0.20279934 0.42124,-0.12340452 0.04323,0.0221823 0.07967,0.0387904 0.08097,0.0369068 0.0013,-0.001883 0.02616,-0.048616 0.05523,-0.10385004 0.09377,-0.17817156 0.235047,-0.26143116 0.443606,-0.26143116 0.129516,0 0.218029,0.0367976 0.332006,0.13802544 0.05169,0.0459083 0.09385,0.0714028 0.110214,0.0666497 0.229556,-0.0666707 0.431579,0.0305302 0.535922,0.25785312 0.03682,0.0802201 0.05419,0.10055688 0.09829,0.11511138 0.07422,0.0244939 0.118365,0.0989577 0.107365,0.18109206 -0.008,0.0598576 -0.0048,0.0660819 0.05538,0.1085113 0.07605,0.053578 0.1534,0.1817977 0.167865,0.2782535 0.0068,0.04552 0.0014,0.1019682 -0.01589,0.1639935 l -0.0263,0.094581 0.03899,0.046339 c 0.05033,0.059808 0.06244,0.1001546 0.05,0.1664849 -0.02109,0.1124323 -0.142109,0.1967367 -0.248778,0.173308 -0.02714,-0.00596 -0.07729,-0.03608 -0.111439,-0.06693 l -0.06209,-0.05609 -0.138537,0.00886 c -0.09055,0.00579 -0.192098,0.025973 -0.293176,0.058259 -0.133599,0.042673 -0.158052,0.055991 -0.17971,0.097873 -0.0392,0.075804 -0.06988,0.2474438 -0.07019,0.3925903 -2.58e-4,0.1255646 0.0021,0.1347718 0.0452,0.1750169 0.05837,0.054523 0.194427,0.097259 0.309649,0.097259 0.100908,0 0.206931,0.03626 0.196615,0.067243 -0.0037,0.011038 -0.02038,0.022134 -0.03712,0.024657 -0.01674,0.00252 -0.04812,0.00842 -0.06973,0.013107 l -0.0393,0.00852 0.0393,0.029692 c 0.03232,0.024417 0.03562,0.03337 0.01858,0.050393 -0.01969,0.019674 -0.0449,0.020403 -0.280041,0.0081 -0.0543,-0.00284 -0.06385,0.0018 -0.0718,0.034909 -0.01873,0.078009 -0.0536,0.07736 -0.170392,-0.00317 -0.05959,-0.041088 -0.116572,-0.074706 -0.126621,-0.074706 -0.01005,0 -0.04025,0.035719 -0.06711,0.079375 -0.02686,0.043656 -0.05123,0.079375 -0.05416,0.079375 -0.0029,0 -0.0207,-0.016381 -0.03951,-0.036402 z M 15.091832,1.8790985 c 0,-0.055943 -0.116194,-0.1716143 -0.193958,-0.1930861 -0.0619,-0.017093 -0.182033,-0.00834 -0.196016,0.014289 -0.0045,0.0073 0.01174,0.018071 0.03611,0.023942 0.06848,0.016498 0.179869,0.07651 0.258618,0.1393332 0.03929,0.031345 0.0768,0.05706 0.08334,0.057145 0.0065,7.8e-5 0.01191,-0.018645 0.01191,-0.041622 z m 0.755774,-0.1417583 c 0.123539,-0.037682 0.132061,-0.04298 0.116351,-0.072334 -0.02881,-0.053827 -0.05969,-0.05156 -0.150606,0.011058 C 15.726132,1.7361346 15.680707,1.778 15.702749,1.778 c 0.0064,0 0.07154,-0.018297 0.144857,-0.04066 z M 14.98553,1.4503856 C 15.00275,1.4331606 14.93264,1.3493749 14.901,1.3493749 c -0.04314,0 -0.110791,0.033714 -0.110791,0.055214 0,0.010102 0.0375,0.025708 0.08334,0.03468 0.04584,0.00897 0.08751,0.017419 0.0926,0.018772 0.0051,0.00135 0.01381,-0.00209 0.01938,-0.00766 z m 0.722885,-0.042826 c 0.03036,-0.031318 0.05508,-0.076183 0.06055,-0.1098484 0.0088,-0.054048 0.0059,-0.058598 -0.05668,-0.090535 -0.03625,-0.018495 -0.07281,-0.029363 -0.08125,-0.024152 -0.0084,0.00521 -0.01533,0.069775 -0.01533,0.1434754 0,0.1537254 0.01206,0.1642694 0.09271,0.08106 z M 15.266457,1.2456759 c 0,-0.043568 -0.008,-0.059085 -0.03572,-0.069574 -0.06774,-0.025602 -0.08269,0.027516 -0.02501,0.088906 0.0474,0.050455 0.06073,0.04621 0.06073,-0.019332 z"
           style="fill:#051b0f;stroke-width:0.015875" />
      </g>
    </g>
  </g>
</svg>
