<?xml version="1.0" encoding="UTF-8" standalone="no"?>
<svg
   xmlns:dc="http://purl.org/dc/elements/1.1/"
   xmlns:cc="http://creativecommons.org/ns#"
   xmlns:rdf="http://www.w3.org/1999/02/22-rdf-syntax-ns#"
   xmlns:svg="http://www.w3.org/2000/svg"
   xmlns="http://www.w3.org/2000/svg"
   xmlns:xlink="http://www.w3.org/1999/xlink"
   xmlns:sodipodi="http://sodipodi.sourceforge.net/DTD/sodipodi-0.dtd"
   xmlns:inkscape="http://www.inkscape.org/namespaces/inkscape"
   sodipodi:docname="inf-r.svg"
   inkscape:version="1.0 (4035a4fb49, 2020-05-01)"
   id="svg8"
   version="1.1"
   viewBox="0 0 16.933333 16.933334"
   height="64"
   width="64">
  <defs
     id="defs2">
    <radialGradient
       inkscape:collect="always"
       xlink:href="#linearGradient930"
       id="radialGradient1493-3"
       cx="-59.26667"
       cy="111.64745"
       fx="-59.26667"
       fy="111.64745"
       r="6.1949439"
       gradientTransform="matrix(1.3667054,-6.1051338e-7,4.3030178e-7,1.366705,89.4667,-142.00582)"
       gradientUnits="userSpaceOnUse" />
    <linearGradient
       id="linearGradient930"
       inkscape:collect="always">
      <stop
         id="stop926"
         offset="0"
         style="stop-color:#f2dda2;stop-opacity:1" />
      <stop
         id="stop928"
         offset="1"
         style="stop-color:#bcaa75;stop-opacity:1" />
    </linearGradient>
  </defs>
  <sodipodi:namedview
     inkscape:window-maximized="1"
     inkscape:window-y="-9"
     inkscape:window-x="-9"
     inkscape:window-height="991"
     inkscape:window-width="1920"
     inkscape:pagecheckerboard="true"
     units="px"
     showgrid="true"
     inkscape:document-rotation="0"
     inkscape:current-layer="layer1"
     inkscape:document-units="px"
     inkscape:cy="32"
     inkscape:cx="32"
     inkscape:zoom="11.796875"
     inkscape:pageshadow="2"
     inkscape:pageopacity="0.0"
     borderopacity="1.0"
     bordercolor="#666666"
     pagecolor="#ffffff"
     id="base">
    <inkscape:grid
       id="grid833"
       type="xygrid" />
  </sodipodi:namedview>
  <metadata
     id="metadata5">
    <rdf:RDF>
      <cc:Work
         rdf:about="">
        <dc:format>image/svg+xml</dc:format>
        <dc:type
           rdf:resource="http://purl.org/dc/dcmitype/StillImage" />
        <dc:title></dc:title>
      </cc:Work>
    </rdf:RDF>
  </metadata>
  <g
     id="layer1"
     inkscape:groupmode="layer"
     inkscape:label="Layer 1">
    <path
       d="M 8.4666725,2.116669 2.4272426,6.5045189 4.7340827,13.603829 h 7.4651703 l 2.30684,-7.0993101 z m 0.5229601,3.0902599 c 0.021799,0 0.026098,0.0876 0.0103,0.2010201 -0.0745,0.5368398 -0.0765,0.9649299 -0.006,1.2355801 0.0993,0.3797199 0.1995,0.5602197 0.7534399,1.3585698 0.2669505,0.3847402 0.5238705,0.7750799 0.5710315,0.86765 0.306859,0.60242 0.299189,1.3558201 -0.0207,1.9874801 -0.13877,0.27401 -0.5684912,0.70146 -0.8475012,0.84284 -0.46355,0.2349 -1.1186401,0.30436 -1.6143701,0.17105 -0.7364899,-0.19805 -1.2922099,-0.82899 -1.46968,-1.66863 -0.0846,-0.4002302 -0.0566,-0.9965701 0.0677,-1.4397101 0.19142,-0.68272 0.7297701,-1.6034599 1.4360901,-2.45515 0.3460499,-0.4172699 1.0412299,-1.1007 1.11931,-1.1007 z M 9.6609125,8.654259 c -0.0338,0.00201 -0.0548,0.0549 -0.0708,0.15968 -0.0152,0.1001498 -0.085,0.3756099 -0.1550299,0.6123699 -0.11961,0.40425 -0.1234999,0.4381701 -0.062,0.5570699 0.036,0.0696 0.0898,0.1364002 0.11937,0.1483102 0.1018598,0.041 0.34998,0.0256 0.4170299,-0.0259 C 10.165753,9.9090388 10.115503,9.2539689 9.8092327,8.8019888 9.7413326,8.7017289 9.6947125,8.6523789 9.6609226,8.6541989 Z"
       inkscape:transform-center-y="0.12136393"
       inkscape:transform-center-x="0.064492841"
       style="fill:url(#radialGradient1493-3);fill-opacity:1;fill-rule:evenodd;stroke:#000000;stroke-width:0.264583;stroke-linecap:butt;stroke-linejoin:miter;stroke-miterlimit:4;stroke-dasharray:none;stroke-opacity:1"
       id="path1303-8-8-7" />
  </g>
</svg>
