<?xml version="1.0" encoding="UTF-8" standalone="no"?>
<svg
   xmlns:dc="http://purl.org/dc/elements/1.1/"
   xmlns:cc="http://creativecommons.org/ns#"
   xmlns:rdf="http://www.w3.org/1999/02/22-rdf-syntax-ns#"
   xmlns:svg="http://www.w3.org/2000/svg"
   xmlns="http://www.w3.org/2000/svg"
   xmlns:xlink="http://www.w3.org/1999/xlink"
   xmlns:sodipodi="http://sodipodi.sourceforge.net/DTD/sodipodi-0.dtd"
   xmlns:inkscape="http://www.inkscape.org/namespaces/inkscape"
   sodipodi:docname="inf-u.svg"
   inkscape:version="1.0 (4035a4fb49, 2020-05-01)"
   id="svg8"
   version="1.1"
   viewBox="0 0 16.933333 16.933334"
   height="64"
   width="64">
  <defs
     id="defs2">
    <radialGradient
       gradientUnits="userSpaceOnUse"
       gradientTransform="matrix(1.3667054,-6.1051338e-7,4.3030178e-7,1.366705,89.466697,-142.00582)"
       r="6.1949439"
       fy="111.64745"
       fx="-59.26667"
       cy="111.64745"
       cx="-59.26667"
       id="radialGradient1493"
       xlink:href="#linearGradient862"
       inkscape:collect="always" />
    <linearGradient
       inkscape:collect="always"
       id="linearGradient862">
      <stop
         style="stop-color:#c5e1eb;stop-opacity:1;"
         offset="0"
         id="stop858" />
      <stop
         style="stop-color:#80a4b3;stop-opacity:1"
         offset="1"
         id="stop860" />
    </linearGradient>
  </defs>
  <sodipodi:namedview
     inkscape:window-maximized="1"
     inkscape:window-y="-9"
     inkscape:window-x="-9"
     inkscape:window-height="991"
     inkscape:window-width="1920"
     inkscape:pagecheckerboard="true"
     units="px"
     showgrid="true"
     inkscape:document-rotation="0"
     inkscape:current-layer="layer1"
     inkscape:document-units="px"
     inkscape:cy="32"
     inkscape:cx="32"
     inkscape:zoom="11.796875"
     inkscape:pageshadow="2"
     inkscape:pageopacity="0.0"
     borderopacity="1.0"
     bordercolor="#666666"
     pagecolor="#ffffff"
     id="base">
    <inkscape:grid
       id="grid833"
       type="xygrid" />
  </sodipodi:namedview>
  <metadata
     id="metadata5">
    <rdf:RDF>
      <cc:Work
         rdf:about="">
        <dc:format>image/svg+xml</dc:format>
        <dc:type
           rdf:resource="http://purl.org/dc/dcmitype/StillImage" />
        <dc:title></dc:title>
      </cc:Work>
    </rdf:RDF>
  </metadata>
  <g
     id="layer1"
     inkscape:groupmode="layer"
     inkscape:label="Layer 1">
    <path
       id="path1303-8-8"
       style="fill:url(#radialGradient1493);fill-opacity:1;fill-rule:evenodd;stroke:#000000;stroke-width:0.264583;stroke-linecap:butt;stroke-linejoin:miter;stroke-miterlimit:4;stroke-dasharray:none;stroke-opacity:1"
       inkscape:transform-center-x="0.064492841"
       inkscape:transform-center-y="0.12136393"
       d="M 8.4666673,2.116669 2.4272374,6.5045189 4.7340775,13.603829 h 7.4651795 l 2.30683,-7.0993101 z m 0.5229601,3.0902599 c 0.021799,0 0.026098,0.0876 0.010401,0.2010201 -0.0745,0.5368398 -0.0765,0.9649299 -0.006,1.2355801 0.0993,0.3797199 0.1995099,0.5602197 0.75345,1.3585698 0.2669496,0.3847402 0.5238696,0.7750799 0.5710196,0.86765 0.30686,0.60242 0.2992,1.3558201 -0.0207,1.9874801 -0.13876,0.27401 -0.5684894,0.70146 -0.8474893,0.84284 -0.46355,0.2349 -1.1186502,0.30436 -1.6143701,0.17105 -0.7365,-0.19805 -1.2922102,-0.82899 -1.46969,-1.66863 -0.0846,-0.4002302 -0.0566,-0.9965701 0.0677,-1.4397101 0.19143,-0.68272 0.7297801,-1.6034599 1.4360901,-2.45515 0.3460599,-0.4172699 1.0412298,-1.1007 1.11931,-1.1007 z M 9.6609073,8.654259 c -0.0338,0.00201 -0.0548,0.0549 -0.0708,0.15968 -0.0152,0.1001498 -0.085,0.3756099 -0.1550299,0.6123699 -0.11961,0.40425 -0.1234999,0.4381701 -0.062,0.5570699 0.036,0.0696 0.0898,0.1364002 0.11938,0.1483102 0.1018599,0.041 0.34998,0.0256 0.4170199,-0.0259 C 10.165747,9.9090388 10.115497,9.2539689 9.8092275,8.8019888 9.7413274,8.7017289 9.6947174,8.6523789 9.6609174,8.6541989 Z" />
  </g>
</svg>
