<?xml version="1.0" encoding="UTF-8" standalone="no"?>
<svg
   xmlns:dc="http://purl.org/dc/elements/1.1/"
   xmlns:cc="http://creativecommons.org/ns#"
   xmlns:rdf="http://www.w3.org/1999/02/22-rdf-syntax-ns#"
   xmlns:svg="http://www.w3.org/2000/svg"
   xmlns="http://www.w3.org/2000/svg"
   xmlns:sodipodi="http://sodipodi.sourceforge.net/DTD/sodipodi-0.dtd"
   xmlns:inkscape="http://www.inkscape.org/namespaces/inkscape"
   sodipodi:docname="kfs-c.svg"
   inkscape:version="1.0 (4035a4fb49, 2020-05-01)"
   id="svg8"
   version="1.1"
   viewBox="0 0 16.933333 16.933334"
   height="64"
   width="64">
  <defs
     id="defs2" />
  <sodipodi:namedview
     inkscape:window-maximized="1"
     inkscape:window-y="-9"
     inkscape:window-x="-9"
     inkscape:window-height="1001"
     inkscape:window-width="1920"
     inkscape:pagecheckerboard="true"
     units="px"
     showgrid="true"
     inkscape:document-rotation="0"
     inkscape:current-layer="layer1"
     inkscape:document-units="px"
     inkscape:cy="32"
     inkscape:cx="32"
     inkscape:zoom="12.140625"
     inkscape:pageshadow="2"
     inkscape:pageopacity="0.0"
     borderopacity="1.0"
     bordercolor="#666666"
     pagecolor="#ffffff"
     id="base">
    <inkscape:grid
       id="grid833"
       type="xygrid" />
  </sodipodi:namedview>
  <metadata
     id="metadata5">
    <rdf:RDF>
      <cc:Work
         rdf:about="">
        <dc:format>image/svg+xml</dc:format>
        <dc:type
           rdf:resource="http://purl.org/dc/dcmitype/StillImage" />
        <dc:title></dc:title>
      </cc:Work>
    </rdf:RDF>
  </metadata>
  <g
     id="layer1"
     inkscape:groupmode="layer"
     inkscape:label="Layer 1">
    <path
       id="path968"
       style="fill:#000000;fill-opacity:1;stroke:#ffffff;stroke-width:0.264583;stroke-linecap:butt;stroke-linejoin:miter;stroke-miterlimit:6;stroke-dasharray:none;stroke-opacity:1"
       inkscape:transform-center-x="0.12065725"
       inkscape:transform-center-y="-3.2302053"
       d="m 8.2336069,2.0071251 c -1.0330759,0.021 -2.123385,0.465088 -2.9419389,1.4324699 1.8520829,-0.2645828 4.7625,0.79375 4.2333329,5.0270842 3.6132141,-3.803386 1.3486901,-6.5132241 -1.291394,-6.4595541 z m 4.0328291,1.886188 C 13.090394,5.5729892 12.983439,8.668429 8.7937799,9.473336 15.379912,12.619156 16.437042,5.5983942 12.266436,3.8933131 Z M 5.032768,4.395093 C 2.758348,4.3763843 1.148203,7.418736 2.704746,9.9327399 3.0254369,8.0895421 4.9311619,5.648583 8.7937799,7.4600211 7.597797,5.2544361 6.2241309,4.4048961 5.032768,4.395093 Z M 7.6103891,7.8444951 C 0.433031,9.1707032 3.7043339,15.472147 8.080646,14.400167 6.426762,13.525592 4.6939949,10.958297 7.6103891,7.8444951 Z m 0,1.2443669 C 6.653761,16.324756 13.65752,15.160957 13.990361,10.667578 12.647513,11.970257 9.670577,12.824737 7.6103891,9.088862 Z" />
  </g>
</svg>
