<?xml version="1.0" encoding="UTF-8" standalone="no"?>
<svg
   xmlns:dc="http://purl.org/dc/elements/1.1/"
   xmlns:cc="http://creativecommons.org/ns#"
   xmlns:rdf="http://www.w3.org/1999/02/22-rdf-syntax-ns#"
   xmlns:svg="http://www.w3.org/2000/svg"
   xmlns="http://www.w3.org/2000/svg"
   xmlns:sodipodi="http://sodipodi.sourceforge.net/DTD/sodipodi-0.dtd"
   xmlns:inkscape="http://www.inkscape.org/namespaces/inkscape"
   width="64"
   height="64"
   viewBox="0 0 16.933333 16.933334"
   version="1.1"
   id="svg8"
   inkscape:version="1.0 (4035a4fb49, 2020-05-01)"
   sodipodi:docname="kof-c.svg">
  <defs
     id="defs2" />
  <sodipodi:namedview
     id="base"
     pagecolor="#ffffff"
     bordercolor="#666666"
     borderopacity="1.0"
     inkscape:pageopacity="0.0"
     inkscape:pageshadow="2"
     inkscape:zoom="12.140625"
     inkscape:cx="32"
     inkscape:cy="32"
     inkscape:document-units="px"
     inkscape:current-layer="layer1"
     inkscape:document-rotation="0"
     showgrid="true"
     units="px"
     inkscape:pagecheckerboard="true"
     inkscape:window-width="1920"
     inkscape:window-height="1001"
     inkscape:window-x="-9"
     inkscape:window-y="-9"
     inkscape:window-maximized="1">
    <inkscape:grid
       type="xygrid"
       id="grid833" />
  </sodipodi:namedview>
  <metadata
     id="metadata5">
    <rdf:RDF>
      <cc:Work
         rdf:about="">
        <dc:format>image/svg+xml</dc:format>
        <dc:type
           rdf:resource="http://purl.org/dc/dcmitype/StillImage" />
        <dc:title></dc:title>
      </cc:Work>
    </rdf:RDF>
  </metadata>
  <g
     inkscape:label="Layer 1"
     inkscape:groupmode="layer"
     id="layer1">
    <path
       d="M 4.215764,4.558895 C 3.0595991,5.2525639 2.116669,6.3703021 2.116669,8.2020839 c 0,0 2e-6,4.7625001 6.3499999,4.7625001 0,0 4.3378811,-0.009 5.8384041,-2.706812 -1.849784,1.109818 -4.250904,1.119312 -4.250904,1.119312 -6.3499981,0 -6.3499999,-4.7625001 -6.3499999,-4.7625001 0,-0.8219048 0.198628,-1.4929908 0.5115949,-2.0556889 z m 8.768459,0.275953 c 0.242099,0.5486029 0.244946,0.9859859 0.244946,0.9859859 0,3.1750001 -4.7625001,3.1750001 -4.7625001,3.1750001 -1.3146908,0 -2.2410209,-0.2512039 -2.9300538,-0.6015149 0.4114188,0.9323208 1.5193108,2.1890149 4.5175539,2.1890149 0,0 4.7625,0 4.7625,-3.1750001 0,0 -0.0252,-1.6547758 -1.832446,-2.5734859 z M 8.4666689,5.0270839 c 0,0 -3.1749998,0 -3.1749998,1.5875 0,0 4.8e-6,1.5875 3.1749998,1.5875 0,0 3.1750001,0 3.1750001,-1.5875 0,0 2e-6,-1.5875 -3.1750001,-1.5875 z m 0,0.396875 c 1.5875001,0 1.5875001,0.79375 1.5875001,0.79375 0,0.79375 -1.5875001,0.79375 -1.5875001,0.79375 -1.5874979,0 -1.5875,-0.79375 -1.5875,-0.79375 0,-0.79375 1.5875,-0.79375 1.5875,-0.79375 z"
       style="fill:#000000;fill-opacity:1;stroke:#ffffff;stroke-width:0.264583;stroke-linecap:butt;stroke-linejoin:miter;stroke-miterlimit:4;stroke-dasharray:none;stroke-opacity:1"
       id="path5278-6-1" />
  </g>
</svg>
