<?xml version="1.0" encoding="UTF-8" standalone="no"?>
<svg
   xmlns:dc="http://purl.org/dc/elements/1.1/"
   xmlns:cc="http://creativecommons.org/ns#"
   xmlns:rdf="http://www.w3.org/1999/02/22-rdf-syntax-ns#"
   xmlns:svg="http://www.w3.org/2000/svg"
   xmlns="http://www.w3.org/2000/svg"
   xmlns:xlink="http://www.w3.org/1999/xlink"
   xmlns:sodipodi="http://sodipodi.sourceforge.net/DTD/sodipodi-0.dtd"
   xmlns:inkscape="http://www.inkscape.org/namespaces/inkscape"
   width="64"
   height="64"
   viewBox="0 0 16.933333 16.933334"
   version="1.1"
   id="svg8"
   inkscape:version="1.0 (4035a4fb49, 2020-05-01)"
   sodipodi:docname="kof-m.svg">
  <defs
     id="defs2">
    <radialGradient
       inkscape:collect="always"
       xlink:href="#linearGradient980"
       id="radialGradient1385-7"
       cx="76.200005"
       cy="78.308899"
       fx="76.200005"
       fy="78.308899"
       r="6.4822917"
       gradientTransform="matrix(1.306123,1.1008414e-6,-1.1008407e-6,1.3061224,-91.059828,-91.168585)"
       gradientUnits="userSpaceOnUse" />
    <linearGradient
       id="linearGradient980"
       inkscape:collect="always">
      <stop
         id="stop976"
         offset="0"
         style="stop-color:#f99f1e;stop-opacity:1" />
      <stop
         id="stop978"
         offset="1"
         style="stop-color:#cf241d;stop-opacity:1" />
    </linearGradient>
  </defs>
  <sodipodi:namedview
     id="base"
     pagecolor="#ffffff"
     bordercolor="#666666"
     borderopacity="1.0"
     inkscape:pageopacity="0.0"
     inkscape:pageshadow="2"
     inkscape:zoom="12.140625"
     inkscape:cx="32"
     inkscape:cy="32"
     inkscape:document-units="px"
     inkscape:current-layer="layer1"
     inkscape:document-rotation="0"
     showgrid="true"
     units="px"
     inkscape:pagecheckerboard="true"
     inkscape:window-width="1920"
     inkscape:window-height="1001"
     inkscape:window-x="-9"
     inkscape:window-y="-9"
     inkscape:window-maximized="1">
    <inkscape:grid
       type="xygrid"
       id="grid833" />
  </sodipodi:namedview>
  <metadata
     id="metadata5">
    <rdf:RDF>
      <cc:Work
         rdf:about="">
        <dc:format>image/svg+xml</dc:format>
        <dc:type
           rdf:resource="http://purl.org/dc/dcmitype/StillImage" />
        <dc:title></dc:title>
      </cc:Work>
    </rdf:RDF>
  </metadata>
  <g
     inkscape:label="Layer 1"
     inkscape:groupmode="layer"
     id="layer1">
    <path
       d="M 4.215765,4.558905 C 3.0595991,5.2525739 2.116669,6.370311 2.116669,8.2020939 c 0,0 3e-6,4.7624991 6.3499999,4.7624991 0,0 4.3378821,-0.009 5.8384041,-2.706812 -1.849784,1.109819 -4.250904,1.119313 -4.250904,1.119313 -6.349997,0 -6.3499999,-4.7625011 -6.3499999,-4.7625011 0,-0.8219038 0.198628,-1.4929909 0.5115959,-2.0556879 z m 8.768459,0.2759519 c 0.242098,0.548603 0.244946,0.985986 0.244946,0.985986 0,3.1750011 -4.7625011,3.1750011 -4.7625011,3.1750011 -1.3146908,0 -2.2410209,-0.2512039 -2.9300538,-0.6015149 0.4114188,0.93232 1.5193118,2.1890149 4.5175539,2.1890149 0,0 4.762501,0 4.762501,-3.1750001 0,0 -0.02522,-1.6547758 -1.832446,-2.573487 z m -4.5175551,0.192236 c 0,0 -3.1749998,0 -3.1749998,1.5875 0,0 4.8e-6,1.587501 3.1749998,1.587501 0,0 3.1750001,0 3.1750001,-1.587501 0,0 3e-6,-1.5875 -3.1750001,-1.5875 z m 0,0.396875 c 1.5875001,0 1.5875001,0.79375 1.5875001,0.79375 0,0.793751 -1.5875001,0.793751 -1.5875001,0.793751 -1.5874969,0 -1.5875,-0.793751 -1.5875,-0.793751 0,-0.79375 1.5875,-0.79375 1.5875,-0.79375 z"
       style="fill:url(#radialGradient1385-7);fill-opacity:1;stroke:#000000;stroke-width:0.264583;stroke-linecap:butt;stroke-linejoin:miter;stroke-miterlimit:4;stroke-dasharray:none;stroke-opacity:1"
       id="path5278-6-1-6-3" />
  </g>
</svg>
