<?xml version="1.0" encoding="UTF-8" standalone="no"?>
<svg
   xmlns:dc="http://purl.org/dc/elements/1.1/"
   xmlns:cc="http://creativecommons.org/ns#"
   xmlns:rdf="http://www.w3.org/1999/02/22-rdf-syntax-ns#"
   xmlns:svg="http://www.w3.org/2000/svg"
   xmlns="http://www.w3.org/2000/svg"
   xmlns:xlink="http://www.w3.org/1999/xlink"
   xmlns:sodipodi="http://sodipodi.sourceforge.net/DTD/sodipodi-0.dtd"
   xmlns:inkscape="http://www.inkscape.org/namespaces/inkscape"
   width="64"
   height="64"
   viewBox="0 0 16.933333 16.933334"
   version="1.1"
   id="svg8"
   inkscape:version="1.0 (4035a4fb49, 2020-05-01)"
   sodipodi:docname="mss-m.svg">
  <defs
     id="defs2">
    <radialGradient
       gradientUnits="userSpaceOnUse"
       gradientTransform="matrix(4.6177815,-2.6660607,2.6660531,4.6177537,-182.55427,-579.68996)"
       r="1.1906232"
       fy="128.53563"
       fx="-43.82272"
       cy="128.53563"
       cx="-43.82272"
       id="radialGradient1663-18"
       xlink:href="#linearGradient980"
       inkscape:collect="always" />
    <linearGradient
       inkscape:collect="always"
       id="linearGradient980">
      <stop
         style="stop-color:#f99f1e;stop-opacity:1"
         offset="0"
         id="stop976" />
      <stop
         style="stop-color:#cf241d;stop-opacity:1"
         offset="1"
         id="stop978" />
    </linearGradient>
    <radialGradient
       gradientUnits="userSpaceOnUse"
       gradientTransform="matrix(6.803747,-3.928107,3.9281065,6.8037446,-238.28518,-897.45292)"
       r="0.80809164"
       fy="125.81345"
       fx="-43.822712"
       cy="125.81345"
       cx="-43.822712"
       id="radialGradient1665-49"
       xlink:href="#linearGradient980"
       inkscape:collect="always" />
    <radialGradient
       gradientUnits="userSpaceOnUse"
       gradientTransform="matrix(1.228987,-0.70955557,0.70952974,1.2289423,-80.782869,-60.455321)"
       r="4.4746509"
       fy="130.23444"
       fx="-43.822716"
       cy="130.23444"
       cx="-43.822716"
       id="radialGradient1655-7"
       xlink:href="#linearGradient980"
       inkscape:collect="always" />
    <radialGradient
       gradientUnits="userSpaceOnUse"
       gradientTransform="matrix(4.617769,2.6660798,-2.6660639,4.6177406,491.1769,-350.4783)"
       r="1.1906232"
       fy="128.21753"
       fx="-41.718609"
       cy="128.21753"
       cx="-41.718609"
       id="radialGradient1669-1"
       xlink:href="#linearGradient980"
       inkscape:collect="always" />
    <radialGradient
       gradientUnits="userSpaceOnUse"
       gradientTransform="matrix(6.8036964,3.9280916,-3.9280776,6.803667,734.06689,-560.581)"
       r="0.80809164"
       fy="125.64216"
       fx="-41.71862"
       cy="125.64216"
       cx="-41.71862"
       id="radialGradient1667-8"
       xlink:href="#linearGradient980"
       inkscape:collect="always" />
    <radialGradient
       gradientUnits="userSpaceOnUse"
       gradientTransform="matrix(1.2289866,0.70955582,-0.70953006,1.2289419,100.16993,0.27079489)"
       r="4.4746509"
       fy="129.9514"
       fx="-41.71862"
       cy="129.9514"
       cx="-41.71862"
       id="radialGradient1647-1"
       xlink:href="#linearGradient980"
       inkscape:collect="always" />
  </defs>
  <sodipodi:namedview
     id="base"
     pagecolor="#ffffff"
     bordercolor="#666666"
     borderopacity="1.0"
     inkscape:pageopacity="0.0"
     inkscape:pageshadow="2"
     inkscape:zoom="11.796875"
     inkscape:cx="32"
     inkscape:cy="32"
     inkscape:document-units="px"
     inkscape:current-layer="layer1"
     inkscape:document-rotation="0"
     showgrid="true"
     units="px"
     inkscape:pagecheckerboard="true"
     inkscape:window-width="1920"
     inkscape:window-height="991"
     inkscape:window-x="-9"
     inkscape:window-y="-9"
     inkscape:window-maximized="1">
    <inkscape:grid
       type="xygrid"
       id="grid833" />
  </sodipodi:namedview>
  <metadata
     id="metadata5">
    <rdf:RDF>
      <cc:Work
         rdf:about="">
        <dc:format>image/svg+xml</dc:format>
        <dc:type
           rdf:resource="http://purl.org/dc/dcmitype/StillImage" />
        <dc:title></dc:title>
      </cc:Work>
    </rdf:RDF>
  </metadata>
  <g
     inkscape:label="Layer 1"
     inkscape:groupmode="layer"
     id="layer1">
    <g
       id="g1528-1-4"
       transform="translate(50.932255,-118.53333)">
      <g
         transform="rotate(30,-41.389538,130.00258)"
         id="g1494-1-12">
        <ellipse
           style="fill:url(#radialGradient1663-18);fill-opacity:1;fill-rule:evenodd;stroke:#000008;stroke-width:0.264583;stroke-linecap:round;stroke-linejoin:bevel;stroke-miterlimit:4;stroke-dasharray:none;stroke-opacity:1"
           id="path1487-2-6"
           cx="-41.804169"
           cy="123.29584"
           rx="1.0583317"
           ry="1.0583363" />
        <path
           style="fill:url(#radialGradient1665-49);fill-opacity:1;stroke:#000008;stroke-width:0.264583px;stroke-linecap:butt;stroke-linejoin:miter;stroke-opacity:1"
           d="m -39.952084,121.70833 -0.529166,0.52917 c -0.264584,0.26458 -0.264584,0.26458 -0.264584,0.52917 v 1.05833 h -0.529167 l 1e-6,-1.32292 c 0,-0.26458 0,-0.26458 0.264583,-0.52916 l 0.79375,-0.79375 z"
           id="path1489-7-1" />
        <path
           style="fill:url(#radialGradient1655-7);fill-opacity:1;stroke:#000008;stroke-width:0.264583px;stroke-linecap:butt;stroke-linejoin:miter;stroke-opacity:1"
           d="m -38.893751,123.56043 c 0.264584,0 0.529166,0 0.264584,0.26458 l -3.704167,3.70416 c 0,0 -0.264583,0.26459 -0.264583,0.52917 v 3.43958 c 0,0 2e-6,0.26458 0.264583,0.52916 l 1.058334,1.05834 c 0.264581,0.26459 0,0.26458 -0.264584,0.26458 h -2.645834 c -0.264583,0 -0.529164,1e-5 -0.264583,-0.26458 l 1.058334,-1.05834 c 0.264581,-0.26458 0.264583,-0.52916 0.264583,-0.52916 v -3.43958 c 0,-0.26458 -0.264583,-0.52917 -0.264583,-0.52917 l -3.704167,-3.70416 c -0.264582,-0.26458 0,-0.26458 0.264583,-0.26458 z"
           id="path1485-96-4"
           sodipodi:nodetypes="cssccsssssscscssc" />
      </g>
      <g
         transform="rotate(-30,-43.253119,128.70496)"
         id="g1494-2-5-2">
        <ellipse
           ry="1.0583363"
           rx="1.0583317"
           cy="123.29584"
           cx="-41.804169"
           id="path1487-7-4-2"
           style="fill:url(#radialGradient1669-1);fill-opacity:1;fill-rule:evenodd;stroke:#000008;stroke-width:0.264583;stroke-linecap:round;stroke-linejoin:bevel;stroke-miterlimit:4;stroke-dasharray:none;stroke-opacity:1" />
        <path
           id="path1489-8-2-3"
           d="m -39.952084,121.70833 -0.529166,0.52917 c -0.264584,0.26458 -0.264584,0.26458 -0.264584,0.52917 v 1.05833 h -0.529167 l 1e-6,-1.32292 c 0,-0.26458 0,-0.26458 0.264583,-0.52916 l 0.79375,-0.79375 z"
           style="fill:url(#radialGradient1667-8);fill-opacity:1;stroke:#000008;stroke-width:0.264583px;stroke-linecap:butt;stroke-linejoin:miter;stroke-opacity:1" />
        <path
           sodipodi:nodetypes="cssccsssssscscssc"
           id="path1485-9-1-7"
           d="m -38.893751,123.56043 c 0.264584,0 0.529166,0 0.264584,0.26458 l -3.704167,3.70416 c 0,0 -0.264583,0.26459 -0.264583,0.52917 v 3.43958 c 0,0 2e-6,0.26458 0.264583,0.52916 l 1.058334,1.05834 c 0.264581,0.26459 0,0.26458 -0.264584,0.26458 h -2.645834 c -0.264583,0 -0.529164,1e-5 -0.264583,-0.26458 l 1.058334,-1.05834 c 0.264581,-0.26458 0.264583,-0.52916 0.264583,-0.52916 v -3.43958 c 0,-0.26458 -0.264583,-0.52917 -0.264583,-0.52917 l -3.704167,-3.70416 c -0.264582,-0.26458 0,-0.26458 0.264583,-0.26458 z"
           style="fill:url(#radialGradient1647-1);fill-opacity:1;stroke:#000008;stroke-width:0.264583px;stroke-linecap:butt;stroke-linejoin:miter;stroke-opacity:1" />
      </g>
    </g>
  </g>
</svg>
