<?xml version="1.0" encoding="UTF-8" standalone="no"?>
<svg
   xmlns:dc="http://purl.org/dc/elements/1.1/"
   xmlns:cc="http://creativecommons.org/ns#"
   xmlns:rdf="http://www.w3.org/1999/02/22-rdf-syntax-ns#"
   xmlns:svg="http://www.w3.org/2000/svg"
   xmlns="http://www.w3.org/2000/svg"
   xmlns:sodipodi="http://sodipodi.sourceforge.net/DTD/sodipodi-0.dtd"
   xmlns:inkscape="http://www.inkscape.org/namespaces/inkscape"
   width="64"
   height="64"
   viewBox="0 0 16.933333 16.933334"
   version="1.1"
   id="svg8"
   inkscape:version="1.0 (4035a4fb49, 2020-05-01)"
   sodipodi:docname="mss-c.svg">
  <defs
     id="defs2" />
  <sodipodi:namedview
     id="base"
     pagecolor="#ffffff"
     bordercolor="#666666"
     borderopacity="1.0"
     inkscape:pageopacity="0.0"
     inkscape:pageshadow="2"
     inkscape:zoom="12.140625"
     inkscape:cx="32"
     inkscape:cy="32"
     inkscape:document-units="px"
     inkscape:current-layer="layer1"
     inkscape:document-rotation="0"
     showgrid="true"
     units="px"
     inkscape:pagecheckerboard="true"
     inkscape:window-width="1920"
     inkscape:window-height="1001"
     inkscape:window-x="-9"
     inkscape:window-y="-9"
     inkscape:window-maximized="1">
    <inkscape:grid
       type="xygrid"
       id="grid833" />
  </sodipodi:namedview>
  <metadata
     id="metadata5">
    <rdf:RDF>
      <cc:Work
         rdf:about="">
        <dc:format>image/svg+xml</dc:format>
        <dc:type
           rdf:resource="http://purl.org/dc/dcmitype/StillImage" />
        <dc:title></dc:title>
      </cc:Work>
    </rdf:RDF>
  </metadata>
  <g
     inkscape:label="Layer 1"
     inkscape:groupmode="layer"
     id="layer1">
    <g
       id="g1528"
       transform="translate(50.932258,-118.53333)">
      <g
         transform="rotate(30,-41.389538,130.00258)"
         id="g1494">
        <ellipse
           style="fill:#000000;fill-rule:evenodd;stroke:#ffffff;stroke-width:0.264583;stroke-linecap:round;stroke-linejoin:bevel;stroke-miterlimit:4;stroke-dasharray:none;stroke-opacity:1"
           id="path1487"
           cx="-41.804169"
           cy="123.29584"
           rx="1.0583317"
           ry="1.0583363" />
        <path
           style="fill:#000000;fill-opacity:1;stroke:#ffffff;stroke-width:0.264583px;stroke-linecap:butt;stroke-linejoin:miter;stroke-opacity:1"
           d="m -39.952084,121.70833 -0.529166,0.52917 c -0.264584,0.26458 -0.264584,0.26458 -0.264584,0.52917 v 1.05833 h -0.529167 l 1e-6,-1.32292 c 0,-0.26458 0,-0.26458 0.264583,-0.52916 l 0.79375,-0.79375 z"
           id="path1489" />
        <path
           style="fill:#000000;fill-opacity:1;stroke:#ffffff;stroke-width:0.264583px;stroke-linecap:butt;stroke-linejoin:miter;stroke-opacity:1"
           d="m -38.893751,123.56043 c 0.264584,0 0.529166,0 0.264584,0.26458 l -3.704167,3.70416 c 0,0 -0.264583,0.26459 -0.264583,0.52917 v 3.43958 c 0,0 2e-6,0.26458 0.264583,0.52916 l 1.058334,1.05834 c 0.264581,0.26459 0,0.26458 -0.264584,0.26458 h -2.645834 c -0.264583,0 -0.529164,1e-5 -0.264583,-0.26458 l 1.058334,-1.05834 c 0.264581,-0.26458 0.264583,-0.52916 0.264583,-0.52916 v -3.43958 c 0,-0.26458 -0.264583,-0.52917 -0.264583,-0.52917 l -3.704167,-3.70416 c -0.264582,-0.26458 0,-0.26458 0.264583,-0.26458 z"
           id="path1485"
           sodipodi:nodetypes="cssccsssssscscssc" />
      </g>
      <g
         transform="rotate(-30,-43.253119,128.70496)"
         id="g1494-2">
        <ellipse
           ry="1.0583363"
           rx="1.0583317"
           cy="123.29584"
           cx="-41.804169"
           id="path1487-7"
           style="fill:#000000;fill-rule:evenodd;stroke:#ffffff;stroke-width:0.264583;stroke-linecap:round;stroke-linejoin:bevel;stroke-miterlimit:4;stroke-dasharray:none;stroke-opacity:1" />
        <path
           id="path1489-8"
           d="m -39.952084,121.70833 -0.529166,0.52917 c -0.264584,0.26458 -0.264584,0.26458 -0.264584,0.52917 v 1.05833 h -0.529167 l 1e-6,-1.32292 c 0,-0.26458 0,-0.26458 0.264583,-0.52916 l 0.79375,-0.79375 z"
           style="fill:#000000;fill-opacity:1;stroke:#ffffff;stroke-width:0.264583px;stroke-linecap:butt;stroke-linejoin:miter;stroke-opacity:1" />
        <path
           sodipodi:nodetypes="cssccsssssscscssc"
           id="path1485-9"
           d="m -38.893751,123.56043 c 0.264584,0 0.529166,0 0.264584,0.26458 l -3.704167,3.70416 c 0,0 -0.264583,0.26459 -0.264583,0.52917 v 3.43958 c 0,0 2e-6,0.26458 0.264583,0.52916 l 1.058334,1.05834 c 0.264581,0.26459 0,0.26458 -0.264584,0.26458 h -2.645834 c -0.264583,0 -0.529164,1e-5 -0.264583,-0.26458 l 1.058334,-1.05834 c 0.264581,-0.26458 0.264583,-0.52916 0.264583,-0.52916 v -3.43958 c 0,-0.26458 -0.264583,-0.52917 -0.264583,-0.52917 l -3.704167,-3.70416 c -0.264582,-0.26458 0,-0.26458 0.264583,-0.26458 z"
           style="fill:#000000;fill-opacity:1;stroke:#ffffff;stroke-width:0.264583px;stroke-linecap:butt;stroke-linejoin:miter;stroke-opacity:1" />
      </g>
    </g>
  </g>
</svg>
