<?xml version="1.0" encoding="UTF-8" standalone="no"?>
<svg
   xmlns:dc="http://purl.org/dc/elements/1.1/"
   xmlns:cc="http://creativecommons.org/ns#"
   xmlns:rdf="http://www.w3.org/1999/02/22-rdf-syntax-ns#"
   xmlns:svg="http://www.w3.org/2000/svg"
   xmlns="http://www.w3.org/2000/svg"
   xmlns:sodipodi="http://sodipodi.sourceforge.net/DTD/sodipodi-0.dtd"
   xmlns:inkscape="http://www.inkscape.org/namespaces/inkscape"
   width="64"
   height="64"
   viewBox="0 0 16.933333 16.933334"
   version="1.1"
   id="svg8"
   inkscape:version="1.0 (4035a4fb49, 2020-05-01)"
   sodipodi:docname="nat-c.svg">
  <defs
     id="defs2" />
  <sodipodi:namedview
     id="base"
     pagecolor="#ffffff"
     bordercolor="#666666"
     borderopacity="1.0"
     inkscape:pageopacity="0.0"
     inkscape:pageshadow="2"
     inkscape:zoom="12.140625"
     inkscape:cx="32"
     inkscape:cy="32"
     inkscape:document-units="px"
     inkscape:current-layer="layer1"
     inkscape:document-rotation="0"
     showgrid="true"
     units="px"
     inkscape:pagecheckerboard="true"
     inkscape:window-width="1920"
     inkscape:window-height="1001"
     inkscape:window-x="-9"
     inkscape:window-y="-9"
     inkscape:window-maximized="1">
    <inkscape:grid
       type="xygrid"
       id="grid833" />
  </sodipodi:namedview>
  <metadata
     id="metadata5">
    <rdf:RDF>
      <cc:Work
         rdf:about="">
        <dc:format>image/svg+xml</dc:format>
        <dc:type
           rdf:resource="http://purl.org/dc/dcmitype/StillImage" />
        <dc:title></dc:title>
      </cc:Work>
    </rdf:RDF>
  </metadata>
  <g
     inkscape:label="Layer 1"
     inkscape:groupmode="layer"
     id="layer1">
    <g
       transform="translate(-16.933334,-135.46666)"
       id="g1521">
      <path
         id="path1463"
         style="fill:#000000;fill-opacity:1;fill-rule:evenodd;stroke:#ffffff;stroke-width:0.999999;stroke-linecap:round;stroke-linejoin:bevel;stroke-miterlimit:4;stroke-dasharray:none;stroke-opacity:1"
         d="M 96,524 A 20.000001,20.000001 0 0 0 76,544 20.000001,20.000001 0 0 0 90.322266,563.17578 18.000001,18.000003 0 0 1 82,548 18.000001,18.000003 0 0 1 100,530 18.000001,18.000003 0 0 1 115.17773,538.32617 20.000001,20.000001 0 0 0 96,524 Z"
         transform="scale(0.26458334)" />
      <path
         id="path1502"
         style="fill:#000000;fill-opacity:1;fill-rule:evenodd;stroke:#ffffff;stroke-width:0.999999;stroke-linecap:round;stroke-linejoin:bevel;stroke-miterlimit:4;stroke-dasharray:none;stroke-opacity:1"
         inkscape:transform-center-x="-0.081761145"
         inkscape:transform-center-y="0.12436676"
         d="m 102.89258,526.93945 -4.279299,3.96289 -5.125,-2.78711 2.445313,5.29493 -4.232422,4.01367 5.791016,-0.68945 L 100,542 l 1.13477,-5.7207 5.7832,-0.75782 -5.0918,-2.84765 z M 84,534 l 0.462891,3.20117 -2.884766,1.46485 3.1875,0.54882 0.501953,3.19727 1.507813,-2.86328 3.193359,0.51172 -2.255859,-2.31836 1.472656,-2.88086 -2.902344,1.42969 z m 25,6 -1.36523,4.12109 -4.3418,0.0254 3.49805,2.57227 -1.31836,4.13672 3.52734,-2.53125 3.52734,2.53125 -1.31836,-4.13672 3.49805,-2.57227 -4.3418,-0.0254 z m -23,6 -1.59375,4.80664 -5.064453,0.0312 4.080078,3 -1.537109,4.82617 L 86,555.71094 l 4.115234,2.95312 -1.537109,-4.82617 4.080078,-3 -5.064453,-0.0312 z m 17.7168,5.55859 -3.10352,3.11719 -3.949218,-1.9414 2.00586,3.91601 -3.066406,3.1543 4.34375,-0.69727 L 102,563 l 0.67969,-4.34766 4.33593,-0.75 -3.92578,-1.98828 z"
         transform="scale(0.26458334)" />
    </g>
  </g>
</svg>
