<?xml version="1.0" encoding="UTF-8" standalone="no"?>
<svg
   xmlns:dc="http://purl.org/dc/elements/1.1/"
   xmlns:cc="http://creativecommons.org/ns#"
   xmlns:rdf="http://www.w3.org/1999/02/22-rdf-syntax-ns#"
   xmlns:svg="http://www.w3.org/2000/svg"
   xmlns="http://www.w3.org/2000/svg"
   xmlns:sodipodi="http://sodipodi.sourceforge.net/DTD/sodipodi-0.dtd"
   xmlns:inkscape="http://www.inkscape.org/namespaces/inkscape"
   width="64"
   height="64"
   viewBox="0 0 16.933333 16.933334"
   version="1.1"
   id="svg8"
   inkscape:version="1.0 (4035a4fb49, 2020-05-01)"
   sodipodi:docname="nga-c.svg">
  <defs
     id="defs2" />
  <sodipodi:namedview
     id="base"
     pagecolor="#ffffff"
     bordercolor="#666666"
     borderopacity="1.0"
     inkscape:pageopacity="0.0"
     inkscape:pageshadow="2"
     inkscape:zoom="11.796875"
     inkscape:cx="32"
     inkscape:cy="32"
     inkscape:document-units="px"
     inkscape:current-layer="layer1"
     inkscape:document-rotation="0"
     showgrid="true"
     units="px"
     inkscape:pagecheckerboard="true"
     inkscape:window-width="1920"
     inkscape:window-height="991"
     inkscape:window-x="-9"
     inkscape:window-y="-9"
     inkscape:window-maximized="1">
    <inkscape:grid
       type="xygrid"
       id="grid833" />
  </sodipodi:namedview>
  <metadata
     id="metadata5">
    <rdf:RDF>
      <cc:Work
         rdf:about="">
        <dc:format>image/svg+xml</dc:format>
        <dc:type
           rdf:resource="http://purl.org/dc/dcmitype/StillImage" />
        <dc:title></dc:title>
      </cc:Work>
    </rdf:RDF>
  </metadata>
  <g
     inkscape:label="Layer 1"
     inkscape:groupmode="layer"
     id="layer1">
    <path
       d="m 8.4666652,2.1167714 -6.0394199,4.3878499 2.30683,7.0993097 h 7.4651797 l 2.30684,-7.0993097 z m -0.1705301,2.65462 c 0.3453802,0 0.5812801,0.098 0.8852202,0.3679399 0.13784,0.1224302 0.2503998,0.19044 0.2940399,0.1777601 0.6121398,-0.1777799 1.1511198,0.0816 1.4293598,0.6878201 0.0982,0.2139199 0.14441,0.2681499 0.26201,0.3069598 0.19791,0.0653 0.31561,0.2636401 0.28628,0.4826601 -0.0213,0.1596199 -0.0127,0.17624 0.1478,0.28938 0.2028,0.1428801 0.40894,0.4848699 0.44752,0.7420798 0.0181,0.1213901 0.004,0.27178 -0.0424,0.4371801 l -0.0703,0.2521802 0.10439,0.1235099 c 0.13421,0.1594799 0.16649,0.26754 0.13332,0.44441 -0.0562,0.2998301 -0.37907,0.5244701 -0.66352,0.46199 -0.0724,-0.0159 -0.20608,-0.096 -0.29714,-0.1782799 l -0.16588,-0.14986 -0.36949,0.023799 c -0.24147,0.015401 -0.51181,0.069 -0.7813498,0.15503 -0.3562599,0.1138004 -0.4217999,0.1492704 -0.47956,0.2609603 -0.10453,0.2021401 -0.1862399,0.6599192 -0.1870599,1.0469692 -6.879e-4,0.33484 0.005,0.35983 0.1204,0.46715 0.1556599,0.145391 0.5185299,0.2589 0.8257897,0.2589 0.26909,0 0.55203,0.0967 0.52452,0.17932 -0.01,0.0294 -0.0546,0.0593 -0.0992,0.0661 -0.0446,0.007 -0.12841,0.0221 -0.18604,0.0346 l -0.1049,0.0227 0.1049,0.0791 c 0.0862,0.0651 0.0951,0.089 0.0496,0.13436 -0.0525,0.0525 -0.11968,0.0545 -0.7467198,0.0217 -0.1448001,-0.008 -0.17,0.005 -0.1912,0.093 -0.05,0.20803 -0.14331,0.20655 -0.4547601,-0.008 -0.1589,-0.10957 -0.3106499,-0.19947 -0.3374398,-0.19947 -0.0268,0 -0.10718,0.0954 -0.1788001,0.21187 -0.0716,0.11642 -0.1368898,0.21187 -0.1447001,0.21187 -0.008,0 -0.0553,-0.0437 -0.1054198,-0.0971 v -5.03e-4 c -0.0502,-0.0534 -0.1124601,-0.1584 -0.13849,-0.23307 -0.026101,-0.0747 -0.0705,-0.13539 -0.0992,-0.13539 -0.0287,0 -0.1145799,0.0863 -0.19069,0.19224 -0.0761,0.10595 -0.16027,0.18565 -0.1870702,0.17673 -0.0268,-0.009 -0.0797,-0.10023 -0.1172998,-0.20309 -0.1085901,-0.29693 -0.28183,-0.34028 -1.13792,-0.28215 -0.2381002,0.0162 -0.1826501,-0.0956 0.1395298,-0.28112 0.2300502,-0.13246 0.3471802,-0.17128 0.5813603,-0.19275 0.1997898,-0.0183 0.33025,-0.0549 0.4103097,-0.11524 0.1135002,-0.0855 0.1176203,-0.10109 0.1142101,-0.46406 -0.003,-0.29412 -0.023201,-0.41359 -0.093,-0.54932 C 7.4678954,9.8606067 7.2522853,9.6785365 6.9778754,9.5775665 6.5461553,9.4187067 6.5394851,9.4192967 6.4213254,9.6209667 6.2865453,9.8509467 6.0384654,9.9924967 5.7190352,10.021456 5.4198952,10.048556 5.2182853,9.9648567 5.0431153,9.7418865 4.7393054,9.3551967 4.6994453,9.0394466 4.9123754,8.7037068 L 5.0410452,8.5006166 4.9335553,8.2846068 c -0.12695,-0.2547702 -0.13379,-0.4127601 -0.0279,-0.6433701 0.0889,-0.1936002 0.1875401,-0.2926901 0.3555298,-0.35657 0.0646,-0.024601 0.1272601,-0.0783 0.1395302,-0.11937 0.012301,-0.0411 0.0575,-0.1507802 0.1002501,-0.2439101 0.0607,-0.1321199 0.0731,-0.2351399 0.0568,-0.46922 -0.017301,-0.2493399 -0.005,-0.3300198 0.0692,-0.4764598 0.1995,-0.3910301 0.7103401,-0.5409002 1.12293,-0.3291801 0.11528,0.0592 0.2125401,0.10374 0.2160101,0.0987 0.004,-0.005 0.0698,-0.1296901 0.1472797,-0.2769799 0.2500501,-0.47513 0.6267101,-0.6971202 1.1828701,-0.6971202 z M 8.0987353,7.3536613 c -0.1265499,-0.016399 -0.1402799,0.11 -0.006,0.25322 0.1263999,0.1345502 0.1617498,0.12305 0.1617498,-0.0517 0,-0.1161802 -0.021201,-0.1575502 -0.0951,-0.1855201 -0.022601,-0.009 -0.0429,-0.0137 -0.061,-0.015999 z m 1.1286099,0.0346 c -0.0224,0.013901 -0.0408,0.18587 -0.0408,0.3823999 0,0.4099401 0.0319,0.4379 0.2470197,0.2160101 0.081,-0.0835 0.1466401,-0.20271 0.1612302,-0.29249 0.0235,-0.1441202 0.015999,-0.1566799 -0.1509,-0.24184 -0.0967,-0.0493 -0.1940201,-0.078 -0.21652,-0.0641 z m -1.94665,0.44338 c -0.11504,0 -0.2955898,0.0899 -0.2955898,0.1472801 0,0.0269 0.1,0.0686 0.2222098,0.0925 0.1222401,0.0239 0.23344,0.0464 0.2470099,0.0501 0.0136,0.004 0.0368,-0.006 0.0517,-0.020201 v -5.028e-4 c 0.0459,-0.0459 -0.1409401,-0.26924 -0.22531,-0.26924 z m 2.6954401,0.7400101 c -0.0605,0.004 -0.1412901,0.0478 -0.2625201,0.13126 -0.2325799,0.1601899 -0.35385,0.2718099 -0.2950699,0.2718099 0.0171,0 0.19051,-0.0489 0.3860199,-0.1085199 0.3294398,-0.1004901 0.3524698,-0.1144802 0.3105798,-0.19275 -0.0384,-0.0718 -0.0785,-0.1062501 -0.1390097,-0.1018 z M 7.1261751,8.7075615 c -0.1614799,-0.010001 -0.3487499,0.0147 -0.3767198,0.0599 -0.011999,0.0195 0.0311,0.0485 0.0961,0.0641 0.1826202,0.044 0.4798902,0.2040199 0.6898802,0.3715498 0.10477,0.0836 0.20477,0.15171 0.22221,0.1519301 0.017301,2.101e-4 0.0315,-0.0493 0.0315,-0.11059 0,-0.14918 -0.3099102,-0.4579501 -0.51728,-0.5152099 -0.0413,-0.011401 -0.0919,-0.018399 -0.1457301,-0.021701 z"
       inkscape:transform-center-y="0.12136393"
       inkscape:transform-center-x="0.064492841"
       style="fill:#000000;fill-opacity:1;fill-rule:evenodd;stroke:#ffffff;stroke-width:0.264583;stroke-linecap:butt;stroke-linejoin:miter;stroke-miterlimit:4;stroke-dasharray:none;stroke-opacity:1"
       id="path1303-87" />
  </g>
</svg>
