<?xml version="1.0" encoding="UTF-8" standalone="no"?>
<svg
   xmlns:dc="http://purl.org/dc/elements/1.1/"
   xmlns:cc="http://creativecommons.org/ns#"
   xmlns:rdf="http://www.w3.org/1999/02/22-rdf-syntax-ns#"
   xmlns:svg="http://www.w3.org/2000/svg"
   xmlns="http://www.w3.org/2000/svg"
   xmlns:xlink="http://www.w3.org/1999/xlink"
   xmlns:sodipodi="http://sodipodi.sourceforge.net/DTD/sodipodi-0.dtd"
   xmlns:inkscape="http://www.inkscape.org/namespaces/inkscape"
   sodipodi:docname="nga-r.svg"
   inkscape:version="1.0 (4035a4fb49, 2020-05-01)"
   id="svg8"
   version="1.1"
   viewBox="0 0 16.933333 16.933334"
   height="64"
   width="64">
  <defs
     id="defs2">
    <radialGradient
       inkscape:collect="always"
       xlink:href="#linearGradient930"
       id="radialGradient1517-9"
       cx="-59.266666"
       cy="162.44745"
       fx="-59.266666"
       fy="162.44745"
       r="6.1949439"
       gradientTransform="matrix(1.3667055,-5.5881129e-7,5.5612772e-7,1.3667071,89.466658,-211.43478)"
       gradientUnits="userSpaceOnUse" />
    <linearGradient
       id="linearGradient930"
       inkscape:collect="always">
      <stop
         id="stop926"
         offset="0"
         style="stop-color:#f2dda2;stop-opacity:1" />
      <stop
         id="stop928"
         offset="1"
         style="stop-color:#bcaa75;stop-opacity:1" />
    </linearGradient>
  </defs>
  <sodipodi:namedview
     inkscape:window-maximized="1"
     inkscape:window-y="-9"
     inkscape:window-x="-9"
     inkscape:window-height="991"
     inkscape:window-width="1920"
     inkscape:pagecheckerboard="true"
     units="px"
     showgrid="true"
     inkscape:document-rotation="0"
     inkscape:current-layer="layer1"
     inkscape:document-units="px"
     inkscape:cy="32"
     inkscape:cx="32"
     inkscape:zoom="11.796875"
     inkscape:pageshadow="2"
     inkscape:pageopacity="0.0"
     borderopacity="1.0"
     bordercolor="#666666"
     pagecolor="#ffffff"
     id="base">
    <inkscape:grid
       id="grid833"
       type="xygrid" />
  </sodipodi:namedview>
  <metadata
     id="metadata5">
    <rdf:RDF>
      <cc:Work
         rdf:about="">
        <dc:format>image/svg+xml</dc:format>
        <dc:type
           rdf:resource="http://purl.org/dc/dcmitype/StillImage" />
        <dc:title></dc:title>
      </cc:Work>
    </rdf:RDF>
  </metadata>
  <g
     id="layer1"
     inkscape:groupmode="layer"
     inkscape:label="Layer 1">
    <path
       d="M 8.4666725,2.1167614 2.4272426,6.5046113 4.7340827,13.603921 h 7.4651703 l 2.30684,-7.0993097 z m -0.1705401,2.65462 c 0.3453802,0 0.5812801,0.098 0.8852202,0.3679399 0.13784,0.1224302 0.2503998,0.19044 0.2940399,0.1777601 0.6121505,-0.1777799 1.1511205,0.0816 1.4293705,0.6878201 0.0982,0.2139199 0.1444,0.2681499 0.262,0.3069598 0.19792,0.0653 0.31562,0.2636401 0.28629,0.4826601 -0.0213,0.1596199 -0.0127,0.17624 0.14779,0.28938 0.2028,0.1428801 0.40895,0.4848699 0.44752,0.7420798 0.0181,0.1213901 0.004,0.27178 -0.0424,0.4371801 l -0.0703,0.2521802 0.10439,0.1235099 c 0.13421,0.1594799 0.16649,0.26754 0.13332,0.44441 -0.0562,0.2998301 -0.37907,0.5244701 -0.66353,0.46199 -0.0724,-0.0159 -0.20607,-0.096 -0.29713,-0.1782799 l -0.16589,-0.14986 -0.36948,0.023799 c -0.24147,0.015401 -0.51181,0.069 -0.7813505,0.15503 -0.3562599,0.1138004 -0.4217999,0.1492704 -0.47956,0.2609603 -0.10453,0.2021401 -0.1862399,0.6599192 -0.1870699,1.0469692 -7.938e-4,0.33484 0.006,0.35983 0.12041,0.46715 0.1556499,0.145391 0.5185299,0.2589 0.8257904,0.2589 0.26909,0 0.55203,0.0967 0.52452,0.17932 -0.01,0.0294 -0.0546,0.0593 -0.0992,0.0661 -0.0446,0.007 -0.12841,0.0221 -0.18604,0.0346 l -0.1049,0.0227 0.1049,0.0791 c 0.0862,0.0651 0.0951,0.089 0.0496,0.13435 -0.0525,0.0525 -0.11968,0.0545 -0.7467305,0.0217 -0.1447998,-0.008 -0.1699998,0.005 -0.1911998,0.093 -0.0499,0.20804 -0.1433103,0.20655 -0.4547503,-0.008 -0.1589098,-0.10957 -0.3106499,-0.19947 -0.3374498,-0.19947 -0.0268,0 -0.10717,0.0954 -0.1788001,0.21188 -0.0716,0.11642 -0.1368798,0.21187 -0.1446901,0.21187 -0.008,0 -0.0553,-0.0438 -0.1054198,-0.0971 v -5.3e-4 c -0.0502,-0.0534 -0.1124701,-0.158389 -0.1385001,-0.233059 -0.026101,-0.0747 -0.0705,-0.135391 -0.0992,-0.135391 -0.0287,0 -0.11458,0.0863 -0.19068,0.192231 -0.0761,0.10595 -0.16027,0.185659 -0.1870702,0.17674 -0.0268,-0.009 -0.0797,-0.10023 -0.1173099,-0.203091 -0.10858,-0.29693 -0.2818199,-0.340279 -1.1379099,-0.282149 -0.23811,0.0162 -0.1826602,-0.0956 0.1395298,-0.28112 0.2300502,-0.13246 0.3471802,-0.17129 0.5813603,-0.192761 0.19978,-0.0183 0.33025,-0.0549 0.4103097,-0.11524 0.1134901,-0.0855 0.1176203,-0.10109 0.1142003,-0.464049 -0.003,-0.294131 -0.023201,-0.413601 -0.093,-0.54932 C 7.4678826,9.8606178 7.2522826,9.678548 6.9778727,9.5775779 6.5461526,9.4187078 6.5394824,9.4193079 6.4213227,9.6209778 6.2865426,9.8509579 6.0384627,9.9925179 5.7190325,10.021467 5.4198925,10.048567 5.2182826,9.9648679 5.0431126,9.741908 4.7393027,9.3552179 4.6994426,9.0394678 4.9123727,8.703728 L 5.0410425,8.5006378 4.9335526,8.284628 c -0.1269601,-0.25477 -0.13379,-0.4127601 -0.0279,-0.6433701 0.0889,-0.1935999 0.1875401,-0.29269 0.3555399,-0.35657 0.0646,-0.024601 0.12725,-0.0783 0.1395201,-0.1193699 0.012301,-0.0411 0.0575,-0.15078 0.1002501,-0.2439102 0.0607,-0.1321199 0.0731,-0.23515 0.0568,-0.4692298 -0.017301,-0.2493401 -0.005,-0.33001 0.0692,-0.47645 0.1995,-0.3910301 0.7103401,-0.5409001 1.12293,-0.32918 0.11528,0.0592 0.2125401,0.1037399 0.2160101,0.0987 0.004,-0.005 0.0698,-0.12969 0.1472797,-0.2769799 0.2500501,-0.47513 0.6267101,-0.6971202 1.1828701,-0.6971202 z M 8.0987326,7.3536513 c -0.1265499,-0.016399 -0.1402702,0.11 -0.006,0.25322 0.1263999,0.1345502 0.1617498,0.12305 0.1617498,-0.0517 0,-0.1161802 -0.021201,-0.1575502 -0.0951,-0.1855201 -0.022601,-0.008 -0.0429,-0.0137 -0.061,-0.015999 z m 1.1286099,0.0346 c -0.0224,0.013901 -0.0408,0.1858798 -0.0408,0.38241 0,0.4099401 0.0319,0.4378999 0.2470197,0.21601 0.081,-0.0835 0.1466401,-0.20271 0.1612302,-0.29249 0.0235,-0.1441201 0.015999,-0.1566899 -0.1509,-0.24185 -0.0967,-0.0493 -0.1940201,-0.078 -0.21652,-0.0641 z m -1.94665,0.4433901 c -0.11504,0 -0.2955898,0.0899 -0.2955898,0.1472797 0,0.0269 0.1,0.0686 0.2222098,0.0925 0.1222401,0.0239 0.23344,0.0464 0.2470099,0.0501 0.0136,0.004 0.0368,-0.006 0.0517,-0.020201 v -5.292e-4 c 0.0459,-0.0459 -0.1409301,-0.26924 -0.2253002,-0.26924 z m 2.6954401,0.74 c -0.0605,0.004 -0.1412901,0.0478 -0.26251,0.13126 -0.23259,0.1601899 -0.3538501,0.27182 -0.29507,0.27182 0.0171,0 0.1905101,-0.0489 0.38602,-0.1085199 0.3294404,-0.1004901 0.3524704,-0.1144802 0.3105704,-0.1927501 -0.0384,-0.0718 -0.0785,-0.10625 -0.1390104,-0.10181 z M 7.1261825,8.7075515 c -0.16149,-0.010001 -0.34876,0.0147 -0.3767199,0.0599 -0.012002,0.0195 0.0311,0.0485 0.0961,0.0641 0.1826101,0.044 0.4798801,0.20403 0.6898801,0.3715599 0.10477,0.0836 0.2047701,0.15171 0.2222101,0.1519301 0.017298,2.098e-4 0.0315,-0.0493 0.0315,-0.11059 0,-0.14918 -0.3099102,-0.4579602 -0.51728,-0.5152102 -0.0413,-0.011401 -0.0919,-0.018399 -0.1457302,-0.021698 z"
       inkscape:transform-center-y="0.12136393"
       inkscape:transform-center-x="0.064492841"
       style="fill:url(#radialGradient1517-9);fill-opacity:1;fill-rule:evenodd;stroke:#000000;stroke-width:0.264583;stroke-linecap:butt;stroke-linejoin:miter;stroke-miterlimit:4;stroke-dasharray:none;stroke-opacity:1"
       id="path1303-87-2-8" />
  </g>
</svg>
