<?xml version="1.0" encoding="UTF-8" standalone="no"?>
<svg
   xmlns:dc="http://purl.org/dc/elements/1.1/"
   xmlns:cc="http://creativecommons.org/ns#"
   xmlns:rdf="http://www.w3.org/1999/02/22-rdf-syntax-ns#"
   xmlns:svg="http://www.w3.org/2000/svg"
   xmlns="http://www.w3.org/2000/svg"
   xmlns:xlink="http://www.w3.org/1999/xlink"
   xmlns:sodipodi="http://sodipodi.sourceforge.net/DTD/sodipodi-0.dtd"
   xmlns:inkscape="http://www.inkscape.org/namespaces/inkscape"
   sodipodi:docname="nga-u.svg"
   inkscape:version="1.0 (4035a4fb49, 2020-05-01)"
   id="svg8"
   version="1.1"
   viewBox="0 0 16.933333 16.933334"
   height="64"
   width="64">
  <defs
     id="defs2">
    <radialGradient
       gradientUnits="userSpaceOnUse"
       gradientTransform="matrix(1.3667055,-5.5881129e-7,5.5612772e-7,1.3667071,89.466655,-211.43478)"
       r="6.1949439"
       fy="162.44745"
       fx="-59.266666"
       cy="162.44745"
       cx="-59.266666"
       id="radialGradient1517"
       xlink:href="#linearGradient862"
       inkscape:collect="always" />
    <linearGradient
       inkscape:collect="always"
       id="linearGradient862">
      <stop
         style="stop-color:#c5e1eb;stop-opacity:1;"
         offset="0"
         id="stop858" />
      <stop
         style="stop-color:#80a4b3;stop-opacity:1"
         offset="1"
         id="stop860" />
    </linearGradient>
  </defs>
  <sodipodi:namedview
     inkscape:window-maximized="1"
     inkscape:window-y="-9"
     inkscape:window-x="-9"
     inkscape:window-height="991"
     inkscape:window-width="1920"
     inkscape:pagecheckerboard="true"
     units="px"
     showgrid="true"
     inkscape:document-rotation="0"
     inkscape:current-layer="layer1"
     inkscape:document-units="px"
     inkscape:cy="32"
     inkscape:cx="32"
     inkscape:zoom="11.796875"
     inkscape:pageshadow="2"
     inkscape:pageopacity="0.0"
     borderopacity="1.0"
     bordercolor="#666666"
     pagecolor="#ffffff"
     id="base">
    <inkscape:grid
       id="grid833"
       type="xygrid" />
  </sodipodi:namedview>
  <metadata
     id="metadata5">
    <rdf:RDF>
      <cc:Work
         rdf:about="">
        <dc:format>image/svg+xml</dc:format>
        <dc:type
           rdf:resource="http://purl.org/dc/dcmitype/StillImage" />
        <dc:title></dc:title>
      </cc:Work>
    </rdf:RDF>
  </metadata>
  <g
     id="layer1"
     inkscape:groupmode="layer"
     inkscape:label="Layer 1">
    <path
       id="path1303-87-2"
       style="fill:url(#radialGradient1517);fill-opacity:1;fill-rule:evenodd;stroke:#000000;stroke-width:0.264583;stroke-linecap:butt;stroke-linejoin:miter;stroke-miterlimit:4;stroke-dasharray:none;stroke-opacity:1"
       inkscape:transform-center-x="0.064492841"
       inkscape:transform-center-y="0.12136393"
       d="M 8.4666673,2.1167614 2.4272374,6.5046113 4.7340775,13.603921 h 7.4651795 l 2.30683,-7.0993097 z m -0.17053,2.65462 c 0.3453701,0 0.58128,0.098 0.8852101,0.3679399 0.13784,0.1224301 0.2504099,0.1904402 0.2940399,0.17776 0.6121497,-0.1777799 1.1511297,0.0816 1.4293697,0.6878201 0.0982,0.2139199 0.1444,0.26815 0.262,0.3069598 0.19792,0.0653 0.31562,0.2636401 0.28629,0.4826601 -0.0213,0.1596199 -0.0127,0.17624 0.14779,0.2893801 0.2028,0.14288 0.40895,0.4848698 0.44752,0.74208 0.0181,0.1213901 0.004,0.27178 -0.0424,0.4371801 l -0.0703,0.2521799 0.10439,0.1235099 c 0.13421,0.15948 0.1665,0.2675401 0.13333,0.44441 -0.0562,0.2998301 -0.37908,0.5244701 -0.66353,0.4619901 -0.0724,-0.015902 -0.20607,-0.096 -0.29714,-0.17828 l -0.16588,-0.14986 -0.36949,0.023799 c -0.24146,0.015399 -0.5118,0.069 -0.7813497,0.1550299 -0.3562599,0.1138003 -0.4217999,0.1492703 -0.4795499,0.2609602 -0.1045401,0.2021401 -0.18624,0.6599195 -0.18707,1.0469695 -7.937e-4,0.33484 0.006,0.35983 0.1204,0.46715 0.1556599,0.14539 0.5185299,0.2589 0.8257896,0.2589 0.26909,0 0.55203,0.0967 0.52452,0.17932 -0.01,0.0294 -0.0546,0.0593 -0.0992,0.0661 -0.0446,0.007 -0.12841,0.0221 -0.18604,0.0346 l -0.1049,0.0227 0.1049,0.0791 c 0.0862,0.0651 0.0951,0.089 0.0496,0.13435 -0.0525,0.0525 -0.11968,0.0545 -0.7467197,0.0217 -0.1448001,-0.008 -0.17,0.005 -0.1912,0.093 -0.05,0.20804 -0.14331,0.20655 -0.4547601,-0.008 -0.1589,-0.10957 -0.3106499,-0.19947 -0.3374398,-0.19947 -0.0268,0 -0.10718,0.0954 -0.1788001,0.21188 -0.0716,0.11642 -0.1368898,0.21187 -0.1447001,0.21187 -0.008,0 -0.0553,-0.0438 -0.1054198,-0.0971 v -5.29e-4 c -0.0502,-0.0534 -0.1124601,-0.15839 -0.13849,-0.23306 -0.026101,-0.0747 -0.0705,-0.13539 -0.0992,-0.13539 -0.0287,0 -0.1145799,0.0863 -0.19069,0.19223 -0.0761,0.10595 -0.16027,0.18566 -0.1870702,0.17674 -0.0268,-0.009 -0.0797,-0.10023 -0.1172998,-0.20309 -0.1085901,-0.29693 -0.28183,-0.34028 -1.13792,-0.28215 -0.2381002,0.0162 -0.1826501,-0.0956 0.1395298,-0.28112 0.2300502,-0.13246 0.3471802,-0.17129 0.5813603,-0.19276 0.1997898,-0.0183 0.33025,-0.0549 0.4103097,-0.11524 0.1135002,-0.0855 0.1176203,-0.10109 0.1142003,-0.46405 -0.003,-0.29413 -0.023201,-0.4136 -0.093,-0.54932 C 7.4678875,9.8606207 7.2522774,9.6785506 6.9778773,9.5775805 6.5461474,9.4187107 6.5394772,9.4193105 6.4213175,9.6209807 6.2865475,9.8509605 6.0384575,9.9925205 5.7190374,10.02147 5.4198873,10.04857 5.2182774,9.9648705 5.0431074,9.7419106 4.7392975,9.3552205 4.6994475,9.0394704 4.9123675,8.7037306 l 0.1286698,-0.20309 -0.1074798,-0.21601 c -0.1269601,-0.25477 -0.1338001,-0.4127601 -0.0279,-0.6433701 0.0889,-0.1935999 0.1875301,-0.2926901 0.3555299,-0.35657 0.0646,-0.024601 0.1272601,-0.0783 0.1395301,-0.1193699 0.012301,-0.0411 0.0575,-0.15078 0.1002499,-0.2439102 0.0607,-0.1321199 0.0731,-0.2351497 0.0568,-0.4692298 -0.017301,-0.2493401 -0.005,-0.33001 0.0693,-0.47645 0.19949,-0.3910301 0.7103399,-0.5409002 1.1229301,-0.32918 0.11528,0.0592 0.2125398,0.1037399 0.216,0.0987 0.004,-0.005 0.0698,-0.1296901 0.1472798,-0.2769799 0.2500602,-0.4751402 0.6267202,-0.69712 1.1828802,-0.69712 z M 8.0987274,7.3536512 c -0.1265401,-0.016399 -0.1402702,0.11 -0.006,0.25322 0.1263999,0.1345502 0.1617498,0.1230501 0.1617498,-0.0517 0,-0.1161801 -0.021201,-0.1575501 -0.0951,-0.18552 -0.022601,-0.008 -0.0429,-0.0137 -0.061,-0.015999 z m 1.1286199,0.0346 c -0.0224,0.013901 -0.0408,0.1858801 -0.0408,0.38241 0,0.4099401 0.032,0.4379 0.2470099,0.2160101 0.081,-0.0835 0.1466401,-0.20271 0.1612302,-0.29249 0.0235,-0.1441202 0.015999,-0.15669 -0.15089,-0.2418501 -0.0967,-0.0493 -0.19402,-0.078 -0.21653,-0.0641 z M 7.2806974,7.8316414 c -0.1150501,0 -0.2955901,0.0899 -0.2955901,0.1472801 0,0.0269 0.1,0.0686 0.2222,0.0925 0.1222401,0.0239 0.23345,0.0464 0.24702,0.0501 0.0136,0.004 0.0368,-0.006 0.0517,-0.020201 v -5.292e-4 c 0.0459,-0.0459 -0.1409401,-0.26924 -0.2253102,-0.26924 z m 2.6954398,0.7399999 c -0.0605,0.004 -0.1412999,0.0478 -0.2625198,0.1312601 -0.2325802,0.1601898 -0.3538501,0.2718199 -0.29507,0.2718199 0.0171,0 0.1905101,-0.0489 0.38602,-0.1085199 0.3294396,-0.1004901 0.3524696,-0.1144802 0.3105796,-0.19275 -0.0384,-0.0718 -0.0785,-0.1062501 -0.1390098,-0.1018101 z M 7.1261773,8.7075514 c -0.16148,-0.010001 -0.34875,0.0147 -0.3767199,0.0599 -0.012002,0.0195 0.0311,0.0485 0.0961,0.0641 0.1826202,0.044 0.4798901,0.20403 0.6898801,0.3715599 0.10477,0.0836 0.2047701,0.15171 0.2222101,0.1519301 0.017298,2.101e-4 0.0315,-0.0493 0.0315,-0.11059 0,-0.14918 -0.3099102,-0.4579599 -0.51728,-0.5152099 -0.0413,-0.011401 -0.0919,-0.018399 -0.1457302,-0.021701 z" />
  </g>
</svg>
