<?xml version="1.0" encoding="UTF-8" standalone="no"?>
<svg
   xmlns:dc="http://purl.org/dc/elements/1.1/"
   xmlns:cc="http://creativecommons.org/ns#"
   xmlns:rdf="http://www.w3.org/1999/02/22-rdf-syntax-ns#"
   xmlns:svg="http://www.w3.org/2000/svg"
   xmlns="http://www.w3.org/2000/svg"
   xmlns:xlink="http://www.w3.org/1999/xlink"
   xmlns:sodipodi="http://sodipodi.sourceforge.net/DTD/sodipodi-0.dtd"
   xmlns:inkscape="http://www.inkscape.org/namespaces/inkscape"
   sodipodi:docname="pos-m.svg"
   inkscape:version="1.0 (4035a4fb49, 2020-05-01)"
   id="svg8"
   version="1.1"
   viewBox="0 0 16.933333 16.933334"
   height="64"
   width="64">
  <defs
     id="defs2">
    <radialGradient
       inkscape:collect="always"
       xlink:href="#linearGradient980"
       id="radialGradient1485-9"
       cx="-59.26667"
       cy="94.714104"
       fx="-59.26667"
       fy="94.714104"
       r="6.1949439"
       gradientTransform="matrix(1.3667051,-7.4934778e-8,3.6825913e-7,1.3667069,89.466692,-118.86308)"
       gradientUnits="userSpaceOnUse" />
    <linearGradient
       inkscape:collect="always"
       id="linearGradient980">
      <stop
         style="stop-color:#f99f1e;stop-opacity:1"
         offset="0"
         id="stop976" />
      <stop
         style="stop-color:#cf241d;stop-opacity:1"
         offset="1"
         id="stop978" />
    </linearGradient>
  </defs>
  <sodipodi:namedview
     inkscape:window-maximized="1"
     inkscape:window-y="-9"
     inkscape:window-x="-9"
     inkscape:window-height="991"
     inkscape:window-width="1920"
     inkscape:pagecheckerboard="true"
     units="px"
     showgrid="true"
     inkscape:document-rotation="0"
     inkscape:current-layer="layer1"
     inkscape:document-units="px"
     inkscape:cy="32"
     inkscape:cx="32"
     inkscape:zoom="11.796875"
     inkscape:pageshadow="2"
     inkscape:pageopacity="0.0"
     borderopacity="1.0"
     bordercolor="#666666"
     pagecolor="#ffffff"
     id="base">
    <inkscape:grid
       id="grid833"
       type="xygrid" />
  </sodipodi:namedview>
  <metadata
     id="metadata5">
    <rdf:RDF>
      <cc:Work
         rdf:about="">
        <dc:format>image/svg+xml</dc:format>
        <dc:type
           rdf:resource="http://purl.org/dc/dcmitype/StillImage" />
        <dc:title></dc:title>
      </cc:Work>
    </rdf:RDF>
  </metadata>
  <g
     id="layer1"
     inkscape:groupmode="layer"
     inkscape:label="Layer 1">
    <path
       d="m 8.4666652,2.1166761 -6.0394199,4.3878451 2.30683,7.0993108 h 7.4651797 l 2.30684,-7.0993108 z m 0.4981601,2.4045051 c 0.007,0.02254 -0.0519,0.1623589 -0.1317702,0.3105758 -0.24487,0.4544481 -0.2356699,0.587343 0.0584,0.861962 0.2023999,0.189021 0.2592898,0.3571632 0.22737,0.6686942 l -0.0269,0.2635488 0.1545199,0.0739 c 0.0849,0.0405 0.2095801,0.07338 0.2769801,0.07338 0.1981801,0 0.2558,-0.09459 0.2558,-0.421164 0,-0.343744 0.0307,-0.3792609 0.3565699,-0.4128921 0.24364,-0.025159 1.32095,0.09484 1.4242,0.1586461 0.0845,0.05224 0.0468,0.073 -0.33486,0.1839679 -0.57298,0.1665791 -0.60971,0.2140501 -0.50798,0.6547401 0.0592,0.256477 0.0125,0.3496842 -0.28061,0.560171 -0.22039,0.1582791 -0.23532,0.2345 -0.0822,0.4165122 0.0824,0.0979 0.14466,0.1302258 0.25167,0.1302258 0.12105,0 0.16213,-0.0285 0.27336,-0.1901698 0.21608,-0.3140523 0.45298,-0.3089831 0.76223,0.01601 0.22524,0.2367119 0.78593,1.0532348 0.74879,1.090372 -0.0142,0.014179 -0.18366,-0.05056 -0.37672,-0.1436612 -0.57512,-0.2773619 -0.68208,-0.273468 -0.83767,0.03152 -0.11831,0.231902 -0.21039,0.2701848 -0.57619,0.239263 l -0.30697,-0.02585 -0.0879,0.1415941 c -0.11077,0.179237 -0.11032,0.2816569 10e-4,0.4232299 0.14479,0.184068 0.30079,0.242451 0.56534,0.2113571 0.2246,-0.026411 0.23456,-0.023439 0.27647,0.08682 0.0239,0.06286 0.0426,0.2322018 0.0419,0.3762058 -0.002,0.301745 -0.14196,1.163082 -0.19895,1.220082 -0.023,0.02302 -0.0925,-0.103942 -0.17312,-0.316262 -0.17183,-0.452369 -0.29852,-0.598387 -0.48576,-0.559139 -0.3943694,0.08267 -0.4720693,0.07726 -0.5922095,-0.04289 -0.0635,-0.06349 -0.15479,-0.179197 -0.2030899,-0.257347 -0.11204,-0.18129 -0.2536201,-0.187696 -0.42271,-0.0186 -0.0998,0.09976 -0.12402,0.160489 -0.12402,0.312643 0,0.168645 0.020799,0.208571 0.1948199,0.377756 0.1923401,0.186962 0.19388,0.191058 0.1302199,0.312126 -0.0903,0.171797 -0.4075599,0.466982 -0.8542099,0.794782 -0.34577,0.253759 -0.4444198,0.312314 -0.4444198,0.263551 0,-0.0092 0.0675,-0.158826 0.14986,-0.332279 0.0824,-0.173456 0.1607798,-0.382654 0.1741498,-0.46509 0.022299,-0.137332 0.004,-0.171781 -0.2180699,-0.413411 -0.2414201,-0.262605 -0.24253,-0.264653 -0.2201399,-0.481106 0.012401,-0.119549 0.0353,-0.258918 0.0512,-0.309544 0.0639,-0.204176 -0.42149,-0.294013 -0.6196,-0.11472 -0.059,0.05342 -0.0796,0.130513 -0.0796,0.300757 0,0.283313 -0.0507,0.383061 -0.23461,0.45992 -0.1819301,0.07601 -0.3985501,0.07537 -0.92915,-0.0031 -0.7134799,-0.105463 -0.7604501,-0.136213 -0.39175,-0.256829 0.3286001,-0.107495 0.5202899,-0.213741 0.62425,-0.345715 0.0774,-0.09824 0.0885,-0.150648 0.0662,-0.31936 -0.0343,-0.2593791 0.0527,-0.449877 0.2759599,-0.6046162 0.0914,-0.06335 0.16588,-0.13272 0.16588,-0.1539949 0,-0.08006 -0.1298599,-0.285732 -0.2206598,-0.349332 -0.1633601,-0.1144281 -0.2846901,-0.0806 -0.5239901,0.1457259 -0.12309,0.116414 -0.2545001,0.2113571 -0.2919701,0.2113571 -0.2045999,0 -0.45969,-0.2431021 -0.8831498,-0.842327 -0.25302,-0.3580421 -0.31589,-0.4697389 -0.2645902,-0.4697389 0.009,0 0.1569302,0.06549 0.32815,0.145727 0.17122,0.08025 0.3793701,0.1579038 0.4625001,0.1726009 0.16236,0.0287 0.15949,0.03062 0.46819,-0.3338301 0.1316699,-0.155448 0.14736,-0.1618319 0.33073,-0.1390089 0.1059698,0.0132 0.24507,0.03636 0.3090299,0.05168 0.10586,0.025321 0.12364,0.01116 0.19998,-0.1570969 0.1196599,-0.2637131 0.1076402,-0.348924 -0.0791,-0.5451872 l -0.165355,-0.1736337 -0.2542501,0.02842 c -0.2222799,0.025159 -0.2585601,0.0191 -0.2940399,-0.05013 -0.0915,-0.1784429 -0.0895,-0.3819599 0.011401,-0.977201 0.0578,-0.341027 0.1054201,-0.6260571 0.1054201,-0.633553 0,-0.0075 0.017399,-0.013441 0.0388,-0.013441 0.021399,0 0.0798,0.1227481 0.1297099,0.2728521 0.0966,0.2902709 0.2296501,0.5156488 0.34778,0.5891099 0.0533,0.03317 0.12779,0.025141 0.2868001,-0.03204 0.28917,-0.103981 0.42725,-0.0471 0.6216701,0.256831 0.15646,0.2445811 0.2381699,0.2747701 0.42013,0.1555459 0.14102,-0.0924 0.2294498,-0.2709328 0.2294498,-0.464053 0,-0.1326988 -0.0305,-0.1846709 -0.1968899,-0.3374488 -0.1917999,-0.176091 -0.19568,-0.1845661 -0.14263,-0.312643 0.0299,-0.07231 0.1707999,-0.2330921 0.31316,-0.3576 0.3599,-0.3147531 0.9313,-0.7175291 0.94775,-0.6681761 z m -0.51831,2.2732468 c -0.38676,0 -0.4489201,0.01143 -0.70177,0.1312572 -0.6963302,0.3299698 -1.1005301,1.0832327 -0.96945,1.8060908 0.0613,0.337775 0.1704999,0.5450779 0.4330499,0.8226901 0.2546202,0.269221 0.4217202,0.3780629 0.7436199,0.4847249 0.3130201,0.103714 0.8162002,0.08321 1.1616902,-0.04754 0.3223199,-0.1219779 0.70768,-0.4773869 0.86506,-0.797882 0.1074397,-0.2187678 0.1178297,-0.2820508 0.1178297,-0.7059009 0,-0.41729 -0.012,-0.490773 -0.1142097,-0.709001 C 9.8232054,7.439311 9.4882153,7.09847 9.1487951,6.931375 8.8914453,6.804682 8.8391353,6.794432 8.4465153,6.794432 Z m 0.0191,0.1694971 c 0.3778898,0 0.4195098,0.0091 0.6676599,0.1436609 0.3215,0.1743501 0.57296,0.4380711 0.72347,0.7591271 0.0948,0.2021488 0.1126501,0.2971901 0.1116201,0.5999628 -0.00101,0.2970012 -0.020601,0.4015272 -0.1116201,0.5978981 -0.1540499,0.3321841 -0.3788,0.5636921 -0.70125,0.7224342 -0.3593,0.1768848 -0.87741,0.2111589 -1.22783,0.08114 C 7.4025856,9.6733112 7.0349156,9.2321031 6.9489154,8.6940591 6.8424455,8.0280211 7.1680155,7.404154 7.7798656,7.1029401 c 0.25953,-0.127762 0.31564,-0.1390099 0.68575,-0.1390099 z"
       inkscape:transform-center-y="0.12136393"
       inkscape:transform-center-x="0.064492841"
       style="fill:url(#radialGradient1485-9);fill-opacity:1;fill-rule:evenodd;stroke:#000000;stroke-width:0.264583;stroke-linecap:butt;stroke-linejoin:miter;stroke-miterlimit:4;stroke-dasharray:none;stroke-opacity:1"
       id="path1303-3-9" />
  </g>
</svg>
