<?xml version="1.0" encoding="UTF-8" standalone="no"?>
<svg
   xmlns:dc="http://purl.org/dc/elements/1.1/"
   xmlns:cc="http://creativecommons.org/ns#"
   xmlns:rdf="http://www.w3.org/1999/02/22-rdf-syntax-ns#"
   xmlns:svg="http://www.w3.org/2000/svg"
   xmlns="http://www.w3.org/2000/svg"
   xmlns:xlink="http://www.w3.org/1999/xlink"
   xmlns:sodipodi="http://sodipodi.sourceforge.net/DTD/sodipodi-0.dtd"
   xmlns:inkscape="http://www.inkscape.org/namespaces/inkscape"
   sodipodi:docname="pos-u.svg"
   inkscape:version="1.0 (4035a4fb49, 2020-05-01)"
   id="svg8"
   version="1.1"
   viewBox="0 0 16.933333 16.933334"
   height="64"
   width="64">
  <defs
     id="defs2">
    <radialGradient
       gradientUnits="userSpaceOnUse"
       gradientTransform="matrix(1.3667051,-7.4934778e-8,3.6825913e-7,1.3667069,89.466692,-118.86309)"
       r="6.1949439"
       fy="94.714104"
       fx="-59.26667"
       cy="94.714104"
       cx="-59.26667"
       id="radialGradient1485"
       xlink:href="#linearGradient862"
       inkscape:collect="always" />
    <linearGradient
       inkscape:collect="always"
       id="linearGradient862">
      <stop
         style="stop-color:#c5e1eb;stop-opacity:1;"
         offset="0"
         id="stop858" />
      <stop
         style="stop-color:#80a4b3;stop-opacity:1"
         offset="1"
         id="stop860" />
    </linearGradient>
  </defs>
  <sodipodi:namedview
     inkscape:window-maximized="1"
     inkscape:window-y="-9"
     inkscape:window-x="-9"
     inkscape:window-height="991"
     inkscape:window-width="1920"
     inkscape:pagecheckerboard="true"
     units="px"
     showgrid="true"
     inkscape:document-rotation="0"
     inkscape:current-layer="layer1"
     inkscape:document-units="px"
     inkscape:cy="32"
     inkscape:cx="32"
     inkscape:zoom="11.796875"
     inkscape:pageshadow="2"
     inkscape:pageopacity="0.0"
     borderopacity="1.0"
     bordercolor="#666666"
     pagecolor="#ffffff"
     id="base">
    <inkscape:grid
       id="grid833"
       type="xygrid" />
  </sodipodi:namedview>
  <metadata
     id="metadata5">
    <rdf:RDF>
      <cc:Work
         rdf:about="">
        <dc:format>image/svg+xml</dc:format>
        <dc:type
           rdf:resource="http://purl.org/dc/dcmitype/StillImage" />
        <dc:title></dc:title>
      </cc:Work>
    </rdf:RDF>
  </metadata>
  <g
     id="layer1"
     inkscape:groupmode="layer"
     inkscape:label="Layer 1">
    <path
       id="path1303-3"
       style="fill:url(#radialGradient1485);fill-opacity:1;fill-rule:evenodd;stroke:#000000;stroke-width:0.264583;stroke-linecap:butt;stroke-linejoin:miter;stroke-miterlimit:4;stroke-dasharray:none;stroke-opacity:1"
       inkscape:transform-center-x="0.064492841"
       inkscape:transform-center-y="0.12136393"
       d="M 8.4666673,2.1166761 2.4272374,6.5045212 4.7340775,13.603832 h 7.4651795 l 2.30683,-7.0993108 z m 0.4981602,2.4045051 c 0.008,0.02254 -0.0519,0.1623589 -0.1317702,0.3105758 -0.24487,0.4544481 -0.2356699,0.587343 0.0584,0.861962 0.2024001,0.189021 0.25929,0.3571632 0.2273701,0.6686942 l -0.0269,0.2635488 0.1545201,0.0739 c 0.0849,0.0405 0.2095799,0.07338 0.2769802,0.07338 0.1981798,0 0.2557999,-0.09459 0.2557999,-0.421164 0,-0.343744 0.0307,-0.3792609 0.3565594,-0.4128921 0.24364,-0.025159 1.32096,0.09484 1.42421,0.1586461 0.0845,0.05224 0.0468,0.073 -0.33487,0.1839679 -0.57297,0.1665791 -0.6097,0.2140501 -0.50797,0.6547401 0.0592,0.256477 0.0125,0.3496842 -0.28061,0.560171 -0.22039,0.1582791 -0.23532,0.2345 -0.0822,0.4165122 0.0824,0.0979 0.14466,0.1302258 0.25167,0.1302258 0.12105,0 0.16213,-0.0285 0.27336,-0.1901698 0.21608,-0.3140523 0.45297,-0.3089831 0.76223,0.01601 0.22524,0.2367119 0.78593,1.0532348 0.74879,1.090372 -0.0142,0.014179 -0.18367,-0.05056 -0.37672,-0.1436612 -0.57512,-0.2773619 -0.68208,-0.273468 -0.83768,0.03152 -0.1183,0.231902 -0.21038,0.2701848 -0.57619,0.239263 l -0.30696,-0.02585 -0.0879,0.1415942 c -0.11077,0.1792369 -0.11032,0.2816569 10e-4,0.4232299 0.14479,0.1840679 0.30078,0.2424509 0.56534,0.2113571 0.2246,-0.026411 0.23456,-0.023439 0.27647,0.08682 0.0239,0.06286 0.0426,0.2322017 0.0419,0.3762057 -0.002,0.301745 -0.14196,1.163082 -0.19895,1.220082 -0.023,0.02302 -0.0925,-0.103942 -0.17312,-0.316262 -0.17183,-0.452369 -0.29852,-0.598387 -0.48576,-0.559139 -0.3943693,0.08267 -0.4720694,0.07726 -0.5922093,-0.04289 -0.0635,-0.06349 -0.15479,-0.179197 -0.20309,-0.257347 -0.1120402,-0.18129 -0.25362,-0.187696 -0.4227099,-0.0186 -0.0998,0.09976 -0.1240301,0.160489 -0.1240301,0.312643 0,0.168645 0.020799,0.208571 0.1948199,0.377756 0.1923499,0.186962 0.1938901,0.191058 0.13023,0.312126 -0.0903,0.171797 -0.4075599,0.466982 -0.85421,0.794782 -0.3457699,0.253759 -0.4444201,0.312314 -0.4444201,0.263551 0,-0.0092 0.0675,-0.158826 0.14986,-0.332279 0.0824,-0.173456 0.1607802,-0.382654 0.1741501,-0.46509 0.022299,-0.137332 0.004,-0.171781 -0.2180698,-0.413411 -0.2414202,-0.262605 -0.2425301,-0.264653 -0.22015,-0.481106 0.012401,-0.119549 0.0353,-0.258918 0.0512,-0.309544 0.0639,-0.204176 -0.42148,-0.294013 -0.6196,-0.11472 -0.059,0.05342 -0.0796,0.130513 -0.0796,0.300757 0,0.283313 -0.0507,0.383061 -0.23461,0.45992 -0.1819301,0.07601 -0.39854,0.07537 -0.9291399,-0.0031 -0.7134802,-0.105463 -0.7604501,-0.136213 -0.3917501,-0.256829 0.3285901,-0.107495 0.5202899,-0.213741 0.62425,-0.345715 0.0774,-0.09824 0.0885,-0.150648 0.0662,-0.31936 -0.0343,-0.259379 0.0527,-0.4498769 0.2759501,-0.6046161 0.0914,-0.06335 0.16588,-0.13272 0.16588,-0.1539949 0,-0.08006 -0.1298501,-0.285732 -0.22065,-0.349332 C 6.346758,8.883995 6.225428,8.917822 5.986128,9.144149 5.8630279,9.260563 5.7316279,9.3555061 5.6941481,9.3555061 5.4895479,9.3555061 5.2344679,9.112404 4.810998,8.5131791 4.557978,8.155137 4.4951181,8.0434399 4.5464179,8.0434399 c 0.009,0 0.1569201,0.06549 0.32815,0.1457273 0.17122,0.08025 0.3793701,0.1579038 0.4625001,0.1726009 0.16236,0.0287 0.15949,0.03062 0.46819,-0.3338301 0.1316599,-0.155448 0.1473499,-0.1618319 0.33073,-0.1390089 0.1059698,0.0132 0.24506,0.03636 0.3090201,0.05168 0.1058598,0.025321 0.1236398,0.01116 0.1999898,-0.1570971 0.1196599,-0.2637129 0.1076402,-0.3489241 -0.0791,-0.545187 L 6.4005427,7.0646906 6.1462926,7.0931109 c -0.2222799,0.025159 -0.2585699,0.0191 -0.2940399,-0.05013 -0.0915,-0.1784429 -0.0895,-0.3819602 0.011401,-0.977201 0.0578,-0.341027 0.1054201,-0.6260571 0.1054201,-0.633553 0,-0.0075 0.017399,-0.013441 0.0388,-0.013441 0.021399,0 0.0798,0.1227479 0.1297099,0.2728521 0.0966,0.2902709 0.2296501,0.5156488 0.34778,0.5891098 0.0533,0.03317 0.12779,0.025141 0.2868001,-0.03204 0.28916,-0.103981 0.4272399,-0.0471 0.6216701,0.256831 0.15646,0.2445808 0.2381699,0.2747701 0.42013,0.1555459 0.14102,-0.0924 0.2294398,-0.2709331 0.2294398,-0.464053 0,-0.1326988 -0.0305,-0.1846709 -0.1968799,-0.337449 -0.1917999,-0.1760908 -0.19568,-0.184566 -0.14263,-0.3126431 0.0299,-0.07231 0.1707999,-0.2330918 0.31316,-0.3576 0.35989,-0.3147528 0.93129,-0.7175288 0.9477399,-0.6681758 z m -0.51831,2.2732468 c -0.38676,0 -0.4489202,0.01143 -0.70177,0.1312572 C 7.0484173,7.255655 6.6442173,8.0089179 6.7752974,8.731776 c 0.0613,0.337775 0.1704899,0.5450779 0.4330499,0.8226901 0.25462,0.269221 0.4217102,0.3780629 0.74362,0.4847249 0.3130201,0.103714 0.8162001,0.08321 1.1616902,-0.04754 C 9.4359774,9.869673 9.8213274,9.514264 9.9787174,9.1937689 10.086147,8.9750011 10.096547,8.9117181 10.096547,8.487868 c 0,-0.41729 -0.012,-0.490773 -0.1142095,-0.709001 C 9.8232073,7.439311 9.4882172,7.09847 9.1487973,6.931375 8.8914474,6.804682 8.8391374,6.794432 8.4465175,6.794432 Z m 0.0191,0.1694971 c 0.3778898,0 0.4195099,0.0091 0.6676599,0.1436609 0.3215,0.1743501 0.57296,0.4380711 0.7234701,0.7591271 0.0948,0.2021488 0.1126498,0.2971901 0.11162,0.5999628 -0.00101,0.2970012 -0.0206,0.4015272 -0.11162,0.5978981 -0.15405,0.3321841 -0.3787998,0.5636921 -0.7012499,0.7224342 -0.35931,0.1768848 -0.87742,0.2111589 -1.2278299,0.08114 C 7.4025777,9.6733112 7.0349177,9.2321031 6.9489075,8.6940591 6.8424476,8.0280211 7.1680177,7.404154 7.7798677,7.1029401 c 0.2595298,-0.127762 0.31564,-0.1390099 0.68575,-0.1390099 z" />
  </g>
</svg>
