<?xml version="1.0" encoding="UTF-8" standalone="no"?>
<svg
   xmlns:dc="http://purl.org/dc/elements/1.1/"
   xmlns:cc="http://creativecommons.org/ns#"
   xmlns:rdf="http://www.w3.org/1999/02/22-rdf-syntax-ns#"
   xmlns:svg="http://www.w3.org/2000/svg"
   xmlns="http://www.w3.org/2000/svg"
   xmlns:xlink="http://www.w3.org/1999/xlink"
   xmlns:sodipodi="http://sodipodi.sourceforge.net/DTD/sodipodi-0.dtd"
   xmlns:inkscape="http://www.inkscape.org/namespaces/inkscape"
   sodipodi:docname="pos-r.svg"
   inkscape:version="1.0 (4035a4fb49, 2020-05-01)"
   id="svg8"
   version="1.1"
   viewBox="0 0 16.933333 16.933334"
   height="64"
   width="64">
  <defs
     id="defs2">
    <radialGradient
       inkscape:collect="always"
       xlink:href="#linearGradient930"
       id="radialGradient1485-5"
       cx="-59.26667"
       cy="94.714104"
       fx="-59.26667"
       fy="94.714104"
       r="6.1949439"
       gradientTransform="matrix(1.3667051,-7.4934778e-8,3.6825913e-7,1.3667069,89.466692,-118.86308)"
       gradientUnits="userSpaceOnUse" />
    <linearGradient
       id="linearGradient930"
       inkscape:collect="always">
      <stop
         id="stop926"
         offset="0"
         style="stop-color:#f2dda2;stop-opacity:1" />
      <stop
         id="stop928"
         offset="1"
         style="stop-color:#bcaa75;stop-opacity:1" />
    </linearGradient>
  </defs>
  <sodipodi:namedview
     inkscape:window-maximized="1"
     inkscape:window-y="-9"
     inkscape:window-x="-9"
     inkscape:window-height="991"
     inkscape:window-width="1920"
     inkscape:pagecheckerboard="true"
     units="px"
     showgrid="true"
     inkscape:document-rotation="0"
     inkscape:current-layer="layer1"
     inkscape:document-units="px"
     inkscape:cy="32"
     inkscape:cx="32"
     inkscape:zoom="11.796875"
     inkscape:pageshadow="2"
     inkscape:pageopacity="0.0"
     borderopacity="1.0"
     bordercolor="#666666"
     pagecolor="#ffffff"
     id="base">
    <inkscape:grid
       id="grid833"
       type="xygrid" />
  </sodipodi:namedview>
  <metadata
     id="metadata5">
    <rdf:RDF>
      <cc:Work
         rdf:about="">
        <dc:format>image/svg+xml</dc:format>
        <dc:type
           rdf:resource="http://purl.org/dc/dcmitype/StillImage" />
        <dc:title></dc:title>
      </cc:Work>
    </rdf:RDF>
  </metadata>
  <g
     id="layer1"
     inkscape:groupmode="layer"
     inkscape:label="Layer 1">
    <path
       d="m 8.4666725,2.1166761 -6.0394299,4.387845 2.3068401,7.0993109 h 7.4651703 l 2.30684,-7.0993109 z m 0.4981501,2.404505 c 0.007,0.02254 -0.0519,0.1623589 -0.1317702,0.3105759 -0.2448599,0.454448 -0.2356699,0.5873429 0.0584,0.8619622 0.20241,0.189021 0.2592999,0.3571629 0.22738,0.6686939 l -0.0269,0.2635491 0.1545101,0.0739 c 0.0849,0.0405 0.2095899,0.07338 0.2769902,0.07338 0.19817,0 0.2557899,-0.09459 0.2557899,-0.4211641 0,-0.3437437 0.0307,-0.3792609 0.3565704,-0.4128918 0.24364,-0.025159 1.32095,0.09484 1.4242,0.158646 0.0845,0.05224 0.0468,0.073 -0.33486,0.183968 -0.57298,0.166579 -0.6097,0.21405 -0.50798,0.65474 0.0592,0.2564771 0.0125,0.349684 -0.2806,0.5601709 -0.2204,0.158279 -0.23533,0.2345002 -0.0822,0.4165121 0.0824,0.0979 0.14466,0.130226 0.25166,0.130226 0.12106,0 0.16213,-0.0285 0.27337,-0.19017 0.21607,-0.314052 0.45297,-0.3089831 0.76223,0.01601 0.22524,0.2367121 0.78593,1.0532351 0.74879,1.090372 -0.0142,0.014179 -0.18367,-0.05056 -0.37672,-0.1436611 -0.57512,-0.2773619 -0.68208,-0.2734677 -0.83768,0.03152 -0.11831,0.231902 -0.21039,0.2701851 -0.57619,0.239263 l -0.30696,-0.02585 -0.0879,0.1415942 c -0.11078,0.1792369 -0.11032,0.2816568 10e-4,0.4232298 0.14478,0.184068 0.30078,0.242451 0.56534,0.2113571 0.2246,-0.026411 0.23455,-0.023439 0.27647,0.08682 0.0239,0.06286 0.0426,0.2322017 0.0419,0.3762057 -0.002,0.301745 -0.14196,1.163082 -0.19896,1.220082 -0.023,0.02302 -0.0925,-0.103942 -0.17311,-0.316262 -0.17184,-0.452369 -0.29852,-0.598387 -0.48576,-0.559139 -0.3943701,0.08267 -0.4720702,0.07726 -0.5922202,-0.04289 -0.0635,-0.06349 -0.1547799,-0.179197 -0.2030799,-0.257347 -0.11205,-0.18129 -0.25362,-0.187696 -0.42272,-0.0186 -0.0998,0.09976 -0.12402,0.160489 -0.12402,0.312643 0,0.168645 0.020799,0.208571 0.1948199,0.377756 0.1923401,0.186962 0.19388,0.191058 0.1302199,0.312126 -0.0903,0.171797 -0.4075599,0.466982 -0.8542099,0.794782 -0.3457599,0.253759 -0.4444101,0.312314 -0.4444101,0.263551 0,-0.0092 0.0675,-0.158826 0.14986,-0.332279 0.0824,-0.173456 0.1607701,-0.382654 0.1741501,-0.46509 0.022299,-0.137332 0.004,-0.171781 -0.2180799,-0.413411 -0.2414201,-0.262605 -0.24252,-0.264653 -0.2201399,-0.481106 0.012401,-0.119549 0.0353,-0.258918 0.0512,-0.309544 0.0639,-0.204176 -0.42148,-0.294013 -0.6196,-0.11472 -0.059,0.05342 -0.0796,0.130513 -0.0796,0.300757 0,0.283313 -0.0507,0.383061 -0.23461,0.45992 -0.1819301,0.07601 -0.39854,0.07537 -0.9291399,-0.0031 C 5.2767729,10.922806 5.2297929,10.892056 5.598503,10.77144 c 0.3285901,-0.107495 0.5202899,-0.213741 0.62425,-0.345715 0.0774,-0.09824 0.0885,-0.150648 0.0661,-0.31936 -0.0343,-0.2593787 0.0527,-0.4498766 0.2759498,-0.6046156 0.0914,-0.06335 0.16588,-0.13272 0.16588,-0.1539951 0,-0.08006 -0.1298498,-0.285732 -0.2206598,-0.349332 -0.1633551,-0.1144289 -0.2846751,-0.080601 -0.5239851,0.145725 -0.12309,0.116414 -0.2544901,0.2113568 -0.2919701,0.2113568 -0.2045999,0 -0.45969,-0.2431018 -0.8831498,-0.8423269 C 4.557898,8.1551353 4.4950279,8.0434383 4.5463378,8.0434383 c 0.009,0 0.1569201,0.06549 0.32814,0.1457269 0.17122,0.08025 0.3793802,0.1579042 0.4625101,0.172601 0.16235,0.0287 0.15948,0.03062 0.46819,-0.3338298 0.1316599,-0.155448 0.1473499,-0.1618322 0.33073,-0.1390092 0.1059699,0.0132 0.24506,0.03636 0.3090199,0.05168 0.10586,0.025321 0.12364,0.01116 0.19999,-0.1570969 0.11966,-0.2637131 0.1076399,-0.348924 -0.0791,-0.5451869 L 6.4004479,7.0646903 6.1461978,7.0931102 c -0.2222799,0.025159 -0.2585601,0.0191 -0.2940399,-0.05013 -0.0915,-0.178443 -0.0895,-0.3819599 0.011401,-0.977201 0.0578,-0.341027 0.10542,-0.6260568 0.10542,-0.633553 0,-0.0075 0.017399,-0.013441 0.0388,-0.013441 0.0214,0 0.0798,0.1227481 0.1297099,0.2728521 0.0966,0.2902709 0.2296602,0.5156491 0.34779,0.5891101 0.0533,0.03317 0.12778,0.025141 0.2868002,-0.03204 0.2891599,-0.1039809 0.4272399,-0.0471 0.62167,0.2568311 0.15645,0.2445811 0.23817,0.2747701 0.42013,0.1555462 0.14102,-0.0924 0.2294398,-0.2709331 0.2294398,-0.464053 0,-0.1326992 -0.0305,-0.184671 -0.1968899,-0.3374491 -0.1917999,-0.176091 -0.1956801,-0.1845659 -0.14262,-0.312643 0.03,-0.07231 0.1707899,-0.2330921 0.31315,-0.3576 0.3599,-0.3147531 0.9313,-0.7175291 0.94775,-0.6681761 z m -0.51831,2.2732468 c -0.3867499,0 -0.4489201,0.01143 -0.70177,0.1312572 -0.6963201,0.3299701 -1.1005201,1.083233 -0.96945,1.8060911 0.0613,0.3377747 0.1704999,0.5450779 0.4330499,0.8226899 0.2546202,0.2692209 0.4217202,0.3780628 0.74363,0.4847249 0.31301,0.103714 0.8161901,0.08321 1.1616801,-0.04754 0.3223199,-0.1219779 0.70768,-0.4773872 0.86507,-0.797882 C 10.086153,8.975001 10.096543,8.911718 10.096543,8.4878682 c 0,-0.4172903 -0.012,-0.4907733 -0.1142003,-0.7090011 C 9.8232125,7.4393109 9.4882224,7.0984702 9.1487924,6.931375 8.8914526,6.8046821 8.8391326,6.7944322 8.4465126,6.7944322 Z m 0.0191,0.1694972 c 0.3778898,0 0.4195199,0.0091 0.6676599,0.143661 0.32151,0.1743499 0.57297,0.4380709 0.72347,0.7591269 0.0948,0.2021491 0.1126501,0.2971901 0.1116201,0.5999631 -0.00101,0.2970009 -0.020601,0.4015269 -0.1116201,0.597898 -0.1540499,0.3321839 -0.3787899,0.5636919 -0.70125,0.722434 -0.3593,0.1768851 -0.87741,0.2111589 -1.22783,0.08114 C 7.4025829,9.6733111 7.0349229,9.232103 6.9489127,8.694059 6.8424428,8.028021 7.1680128,7.4041542 7.7798729,7.10294 c 0.25952,-0.127762 0.31564,-0.1390099 0.68574,-0.1390099 z"
       inkscape:transform-center-y="0.12136393"
       inkscape:transform-center-x="0.064492841"
       style="fill:url(#radialGradient1485-5);fill-opacity:1;fill-rule:evenodd;stroke:#000000;stroke-width:0.264583;stroke-linecap:butt;stroke-linejoin:miter;stroke-miterlimit:4;stroke-dasharray:none;stroke-opacity:1"
       id="path1303-3-8" />
  </g>
</svg>
