<?xml version="1.0" encoding="UTF-8" standalone="no"?>
<svg
   xmlns:dc="http://purl.org/dc/elements/1.1/"
   xmlns:cc="http://creativecommons.org/ns#"
   xmlns:rdf="http://www.w3.org/1999/02/22-rdf-syntax-ns#"
   xmlns:svg="http://www.w3.org/2000/svg"
   xmlns="http://www.w3.org/2000/svg"
   xmlns:sodipodi="http://sodipodi.sourceforge.net/DTD/sodipodi-0.dtd"
   xmlns:inkscape="http://www.inkscape.org/namespaces/inkscape"
   width="64"
   height="64"
   viewBox="0 0 16.933333 16.933334"
   version="1.1"
   id="svg8"
   inkscape:version="1.0 (4035a4fb49, 2020-05-01)"
   sodipodi:docname="pos-c.svg">
  <defs
     id="defs2" />
  <sodipodi:namedview
     id="base"
     pagecolor="#ffffff"
     bordercolor="#666666"
     borderopacity="1.0"
     inkscape:pageopacity="0.0"
     inkscape:pageshadow="2"
     inkscape:zoom="11.796875"
     inkscape:cx="32"
     inkscape:cy="32"
     inkscape:document-units="px"
     inkscape:current-layer="layer1"
     inkscape:document-rotation="0"
     showgrid="true"
     units="px"
     inkscape:pagecheckerboard="true"
     inkscape:window-width="1920"
     inkscape:window-height="991"
     inkscape:window-x="-9"
     inkscape:window-y="-9"
     inkscape:window-maximized="1">
    <inkscape:grid
       type="xygrid"
       id="grid833" />
  </sodipodi:namedview>
  <metadata
     id="metadata5">
    <rdf:RDF>
      <cc:Work
         rdf:about="">
        <dc:format>image/svg+xml</dc:format>
        <dc:type
           rdf:resource="http://purl.org/dc/dcmitype/StillImage" />
        <dc:title></dc:title>
      </cc:Work>
    </rdf:RDF>
  </metadata>
  <g
     inkscape:label="Layer 1"
     inkscape:groupmode="layer"
     id="layer1">
    <path
       d="m 8.4666652,2.1166801 -6.0394199,4.3878451 2.30683,7.0993108 h 7.4651797 l 2.30684,-7.0993108 z m 0.4981601,2.4045041 c 0.008,0.02254 -0.0519,0.1623589 -0.1317702,0.3105758 -0.24487,0.4544491 -0.2356699,0.587343 0.0584,0.861962 0.20241,0.189021 0.2592999,0.3571639 0.22738,0.6686949 l -0.0269,0.2635491 0.1545101,0.0739 c 0.0849,0.0405 0.2095899,0.07338 0.2769801,0.07338 0.1981801,0 0.2558,-0.09459 0.2558,-0.421164 0,-0.3437441 0.0307,-0.379262 0.3565697,-0.4128929 0.24364,-0.025151 1.32095,0.09483 1.4242,0.1586468 0.0845,0.05224 0.0468,0.073 -0.33486,0.1839672 -0.57298,0.166579 -0.6097,0.2140508 -0.50798,0.6547408 0.0592,0.256476 0.0125,0.3496842 -0.2806,0.56017 -0.2204,0.1582791 -0.23533,0.234501 -0.0822,0.4165129 0.0824,0.0979 0.14466,0.130225 0.25167,0.130225 0.12105,0 0.16213,-0.0285 0.27336,-0.190169 0.21608,-0.3140527 0.45298,-0.3089828 0.76223,0.01602 0.22524,0.2367119 0.78593,1.0532349 0.74879,1.0903718 -0.0142,0.01419 -0.18366,-0.05056 -0.37672,-0.1436608 -0.57512,-0.277363 -0.68208,-0.2734681 -0.83767,0.03152 -0.11831,0.231902 -0.21039,0.270184 -0.5762,0.2392622 l -0.30695,-0.025839 -0.0879,0.1415949 c -0.11078,0.1792359 -0.11032,0.2816561 0.001,0.4232299 0.14479,0.184068 0.300781,0.2424512 0.565341,0.2113571 0.224599,-0.0264 0.23456,-0.023429 0.27647,0.08682 0.0239,0.06286 0.0426,0.2322011 0.0419,0.3762061 -0.002,0.301744 -0.141961,1.163082 -0.19896,1.220081 -0.023,0.02301 -0.0925,-0.103942 -0.17311,-0.316262 -0.17183,-0.452369 -0.298521,-0.598387 -0.48576,-0.559139 -0.3943703,0.08267 -0.4720702,0.07726 -0.5922101,-0.04289 -0.0635,-0.06349 -0.15479,-0.179197 -0.2030902,-0.257347 -0.1120399,-0.18129 -0.2536198,-0.187696 -0.42271,-0.01861 -0.0998,0.09976 -0.1240298,0.160489 -0.1240298,0.312643 0,0.168645 0.020799,0.208571 0.1948199,0.377756 0.1923499,0.186962 0.1938901,0.191058 0.13023,0.312126 -0.0903,0.171797 -0.4075599,0.466982 -0.8542099,0.794782 -0.34577,0.253759 -0.4444201,0.312314 -0.4444201,0.263551 0,-0.0092 0.0675,-0.158826 0.14986,-0.332279 0.0824,-0.173456 0.1607701,-0.382654 0.17415,-0.46509 0.022299,-0.137332 0.004,-0.171781 -0.2180799,-0.413412 -0.2414201,-0.262604 -0.24252,-0.264652 -0.2201402,-0.481105 0.012401,-0.119549 0.0353,-0.258918 0.0512,-0.309544 0.0639,-0.204176 -0.42148,-0.294013 -0.6196,-0.11472 -0.059,0.05342 -0.0796,0.130513 -0.0796,0.300757 0,0.283313 -0.0507,0.383061 -0.23461,0.45992 -0.1819301,0.07601 -0.39854,0.07537 -0.9291402,-0.0031 -0.71344,-0.105466 -0.7604098,-0.136216 -0.3917098,-0.256831 0.32859,-0.107495 0.5202899,-0.213741 0.62425,-0.345715 0.0774,-0.09824 0.0885,-0.150649 0.0662,-0.31936 -0.0343,-0.2593792 0.0527,-0.449877 0.2759501,-0.604616 0.0914,-0.06335 0.16588,-0.13272 0.16588,-0.1539951 0,-0.08006 -0.1298501,-0.285732 -0.2206599,-0.3493321 -0.1633701,-0.114427 -0.28469,-0.0806 -0.5240001,0.1457273 -0.12309,0.116414 -0.25449,0.2113568 -0.2919701,0.2113568 -0.2045999,0 -0.45969,-0.2431018 -0.8831498,-0.842327 -0.25302,-0.3580418 -0.31589,-0.4697389 -0.2645802,-0.4697389 0.009,0 0.1569202,0.06549 0.3281402,0.145727 0.1712199,0.08025 0.37938,0.1579039 0.46251,0.1726009 0.1623499,0.0287 0.15948,0.03062 0.46819,-0.3338301 0.1316598,-0.155448 0.1473499,-0.1618318 0.3307299,-0.1390089 0.1059699,0.0132 0.24506,0.03636 0.3090201,0.05168 0.1058598,0.025331 0.1236398,0.011171 0.1999899,-0.1570961 C 6.7647157,7.519812 6.7526959,7.4346 6.5659558,7.2383379 l -0.165355,-0.1736348 -0.25425,0.02842 c -0.2222799,0.025149 -0.2585601,0.0191 -0.2940399,-0.05013 -0.0915,-0.178443 -0.0895,-0.3819599 0.011401,-0.977201 0.0578,-0.341027 0.10542,-0.6260571 0.10542,-0.633553 0,-0.0075 0.017399,-0.013441 0.0388,-0.013441 0.021399,0 0.0798,0.1227489 0.1297099,0.2728521 0.0966,0.290272 0.2296501,0.5156488 0.34778,0.5891109 0.0533,0.03317 0.12779,0.025141 0.2868001,-0.03204 0.2891599,-0.103981 0.4272399,-0.0471 0.62167,0.2568311 0.15645,0.2445808 0.23817,0.2747698 0.4201301,0.1555459 0.14102,-0.0924 0.2294397,-0.2709331 0.2294397,-0.464052 0,-0.1327001 -0.0305,-0.184672 -0.1968899,-0.3374501 C 7.6547819,5.683505 7.6509018,5.6750312 7.7039518,5.546954 7.7338518,5.474644 7.874742,5.3138611 8.0171119,5.189353 8.3770018,4.8746006 8.9484018,4.4718256 8.9648518,4.5211775 Z m -0.51831,2.2732468 c -0.38676,0 -0.4489201,0.011441 -0.70177,0.1312579 -0.6963302,0.3299691 -1.1005301,1.0832331 -0.96945,1.8060901 0.0613,0.337775 0.1704999,0.545079 0.4330499,0.8226912 0.2546202,0.2692209 0.4217202,0.3780628 0.7436199,0.4847238 0.3130201,0.103714 0.8162002,0.08321 1.1616902,-0.04754 C 9.4359752,9.869676 9.8213353,9.514267 9.9787153,9.1937711 10.086155,8.975003 10.096545,8.91172 10.096545,8.487871 c 0,-0.41729 -0.0119,-0.490773 -0.1142097,-0.7090008 C 9.8232054,7.439314 9.4882153,7.0984722 9.1487951,6.931377 8.8914453,6.8046841 8.8391353,6.7944342 8.4465153,6.7944342 Z m 0.0191,0.1694982 c 0.3778898,0 0.4195098,0.0091 0.6676599,0.1436608 0.3215,0.174349 0.57296,0.4380701 0.72347,0.7591261 0.0948,0.2021499 0.1126501,0.2971908 0.1116201,0.5999639 -0.00101,0.2970001 -0.020601,0.4015271 -0.1116201,0.597898 -0.1540499,0.3321841 -0.3788,0.5636921 -0.70125,0.7224339 -0.3593,0.176884 -0.87741,0.2111592 -1.22783,0.08113 C 7.4025756,9.6733059 7.0349156,9.2320971 6.9489056,8.6940542 6.8424455,8.0280161 7.1680155,7.404149 7.7798656,7.1029341 c 0.25953,-0.127762 0.31564,-0.1390092 0.68575,-0.1390092 z"
       inkscape:transform-center-y="0.12136393"
       inkscape:transform-center-x="0.064492841"
       style="fill:#000000;fill-opacity:1;fill-rule:evenodd;stroke:#ffffff;stroke-width:0.264583;stroke-linecap:butt;stroke-linejoin:miter;stroke-miterlimit:4;stroke-dasharray:none;stroke-opacity:1"
       id="path1303" />
  </g>
</svg>
