<?xml version="1.0" encoding="UTF-8" standalone="no"?>
<svg
   xmlns:dc="http://purl.org/dc/elements/1.1/"
   xmlns:cc="http://creativecommons.org/ns#"
   xmlns:rdf="http://www.w3.org/1999/02/22-rdf-syntax-ns#"
   xmlns:svg="http://www.w3.org/2000/svg"
   xmlns="http://www.w3.org/2000/svg"
   xmlns:xlink="http://www.w3.org/1999/xlink"
   xmlns:sodipodi="http://sodipodi.sourceforge.net/DTD/sodipodi-0.dtd"
   xmlns:inkscape="http://www.inkscape.org/namespaces/inkscape"
   sodipodi:docname="psb-u.svg"
   inkscape:version="1.0 (4035a4fb49, 2020-05-01)"
   id="svg8"
   version="1.1"
   viewBox="0 0 16.933333 16.933334"
   height="64"
   width="64">
  <defs
     id="defs2">
    <radialGradient
       gradientUnits="userSpaceOnUse"
       gradientTransform="matrix(1.3667055,-2.4104193e-7,1.3449066e-7,1.3667066,89.466729,-165.14888)"
       r="6.1949439"
       fy="128.58078"
       fx="-59.266666"
       cy="128.58078"
       cx="-59.266666"
       id="radialGradient1501"
       xlink:href="#linearGradient862"
       inkscape:collect="always" />
    <linearGradient
       inkscape:collect="always"
       id="linearGradient862">
      <stop
         style="stop-color:#c5e1eb;stop-opacity:1;"
         offset="0"
         id="stop858" />
      <stop
         style="stop-color:#80a4b3;stop-opacity:1"
         offset="1"
         id="stop860" />
    </linearGradient>
  </defs>
  <sodipodi:namedview
     inkscape:window-maximized="1"
     inkscape:window-y="-9"
     inkscape:window-x="-9"
     inkscape:window-height="991"
     inkscape:window-width="1920"
     inkscape:pagecheckerboard="true"
     units="px"
     showgrid="true"
     inkscape:document-rotation="0"
     inkscape:current-layer="layer1"
     inkscape:document-units="px"
     inkscape:cy="32"
     inkscape:cx="32"
     inkscape:zoom="11.796875"
     inkscape:pageshadow="2"
     inkscape:pageopacity="0.0"
     borderopacity="1.0"
     bordercolor="#666666"
     pagecolor="#ffffff"
     id="base">
    <inkscape:grid
       id="grid833"
       type="xygrid" />
  </sodipodi:namedview>
  <metadata
     id="metadata5">
    <rdf:RDF>
      <cc:Work
         rdf:about="">
        <dc:format>image/svg+xml</dc:format>
        <dc:type
           rdf:resource="http://purl.org/dc/dcmitype/StillImage" />
        <dc:title></dc:title>
      </cc:Work>
    </rdf:RDF>
  </metadata>
  <g
     id="layer1"
     inkscape:groupmode="layer"
     inkscape:label="Layer 1">
    <path
       id="path1303-1-7"
       style="fill:url(#radialGradient1501);fill-opacity:1;fill-rule:evenodd;stroke:#000000;stroke-width:0.264583;stroke-linecap:butt;stroke-linejoin:miter;stroke-miterlimit:4;stroke-dasharray:none;stroke-opacity:1"
       inkscape:transform-center-x="0.064492841"
       inkscape:transform-center-y="0.12136393"
       d="m 8.4666673,2.1166993 -6.0394299,4.38786 2.3068401,7.0993497 h 7.4651795 l 2.30683,-7.0993497 z m -0.12661,2.7931199 c 0.75217,-0.00201 1.5270401,0.1841601 2.0086597,0.5265902 l 0.19741,0.1405599 -0.18242,0.1571001 c -0.1004,0.0864 -0.30651,0.2318199 -0.4578497,0.3229797 -0.25624,0.1543503 -0.2661299,0.1656702 -0.14418,0.16588 0.1451499,2.601e-4 0.4565897,-0.1015198 0.8423297,-0.2749198 l 0.25373,-0.1136901 0.1204,0.1415902 c 0.60324,0.7087999 0.94052,1.58515 0.91003,2.3652398 -0.0135,0.3458001 -0.0322,0.4313902 -0.13075,0.5994501 -0.16218,0.2767599 -0.33325,0.3651498 -0.93224,0.48319 -0.9441898,0.18605 -0.8987497,0.1170199 -0.8614495,1.3229197 0.0362,1.1714 0.0356,1.17362 -0.2340901,1.23145 -0.11492,0.0246 -0.2157101,0.0444 -0.2242701,0.0444 -0.009,0 -0.035,-0.0911 -0.0589,-0.20257 -0.0263,-0.12266 -0.0293,-0.26602 -0.007,-0.3638 0.025501,-0.11306 0.017801,-0.22443 -0.0258,-0.37156 -0.0567,-0.19076 -0.0732,-0.20884 -0.1767401,-0.19688 -0.1087599,0.0126 -0.1130001,0.0229 -0.1012801,0.22479 l 0.011901,0.21187 -0.24495,0.15761 -0.2449502,0.15762 -0.021201,-0.39068 -0.021201,-0.39067 H 8.4881155 8.3609954 l -0.0594,0.47646 -0.0594,0.47645 -0.1736302,-5.29e-4 -0.17312,-5.29e-4 -0.1245399,-0.50901 c -0.0931,-0.38052 -0.1399,-0.50618 -0.1860299,-0.49713 -0.0966,0.019 -0.1852901,0.32435 -0.1576202,0.54364 0.013401,0.10597 0.012401,0.28231 -0.003,0.39171 -0.0263,0.19141 -0.0327,0.19843 -0.1674299,0.19843 -0.0874,0 -0.1848101,-0.0383 -0.2589001,-0.10232 -0.1186701,-0.10256 -0.11884,-0.10329 -0.1090401,-0.59376 0.005,-0.27 0.0286,-0.69011 0.0517,-0.9338 0.0392,-0.4140598 0.0365,-0.4527599 -0.0455,-0.59169 -0.0482,-0.0818 -0.0948,-0.14883 -0.1033499,-0.14883 -0.0743,0 -1.2274799,-0.2636498 -1.2815801,-0.2930099 -0.1270899,-0.069 -0.29724,-0.2753 -0.3689699,-0.4470101 -0.2192301,-0.5248198 -0.0638,-1.5950798 0.3276301,-2.2567199 0.1317699,-0.2227199 0.7298399,-0.89814 0.7952999,-0.89814 0.016399,0 0.0649,0.1543701 0.1080101,0.34314 0.0611,0.26739 0.0979,0.35028 0.16588,0.37465 0.3013599,0.1079899 0.9259398,0.2993101 0.9379299,0.28732 0.008,-0.008 -0.096,-0.0943 -0.2304801,-0.1922399 -0.52568,-0.38281 -0.6406999,-0.55206 -0.6413098,-0.94361 -2.601e-4,-0.1955901 0.0801,-0.2670302 0.47439,-0.4201401 C 7.4451751,4.9792613 7.8886549,4.910731 8.3399549,4.9097512 Z m -1.7451099,2.34612 c -0.069,0.00101 -0.13862,0.010099 -0.2108401,0.0274 -0.3101398,0.0744 -0.67378,0.43327 -0.7710099,0.7606901 -0.0826,0.2780098 -0.0834,0.3442599 -0.007,0.5265801 0.1174301,0.28106 0.3493202,0.3495997 1.2097401,0.3560498 0.2910399,0.00201 0.60553,-0.0136 0.6986699,-0.0351 0.0962,-0.022201 0.2119601,-0.0888 0.2681999,-0.1539899 0.0845,-0.0979 0.095,-0.1430102 0.0708,-0.3043801 C 7.7977065,8.0609591 7.5680666,7.7099192 7.2292465,7.4792393 7.0015866,7.3242292 6.8022667,7.2528991 6.5951765,7.2559892 Z m 3.7548096,0.024799 c -0.15408,1.902e-4 -0.30813,0.0301 -0.4309796,0.0894 -0.3621302,0.17532 -0.7253499,0.6405099 -0.7968501,1.0216499 -0.0368,0.1963801 0.0402,0.4303501 0.1612302,0.4909301 0.0613,0.0307 0.3805698,0.0438 0.9193195,0.0377 0.72883,-0.008 0.84109,-0.019201 0.95963,-0.091 v 5.292e-4 c 0.18122,-0.10966 0.24755,-0.25018 0.24133,-0.5095299 -0.009,-0.3701301 -0.28135,-0.7856201 -0.62373,-0.95138 -0.12209,-0.0591 -0.27587,-0.0886 -0.42995,-0.0884 z M 8.2434273,8.6377688 c -0.0875,0.0359 -0.26171,0.3832598 -0.3219498,0.6671498 -0.052,0.24526 -0.0572,0.8142794 -0.009,0.9823694 0.0215,0.0748 0.0549,0.1009 0.1126598,0.0899 0.2633602,-0.0501 0.5640102,-0.0463 0.71623,0.008 0.1058,0.0382 0.1854301,0.0459 0.2118701,0.0212 0.023299,-0.0218 0.0424,-0.24303 0.0424,-0.4919595 -1.01e-5,-0.4329599 -0.007,-0.4695899 -0.1653601,-0.8340598 -0.091,-0.2095601 -0.1719099,-0.3892502 -0.1798299,-0.3989501 -0.0358,-0.0439 -0.0531,0.0524 -0.0971,0.54727 -0.0918,1.0307494 -0.1387102,1.0489894 -0.2134301,0.0842 -0.028,-0.3608999 -0.0572,-0.6626199 -0.0651,-0.6707698 -0.008,-0.009 -0.019,-0.010001 -0.0315,-0.005 z" />
  </g>
</svg>
