<?xml version="1.0" encoding="UTF-8" standalone="no"?>
<svg
   xmlns:dc="http://purl.org/dc/elements/1.1/"
   xmlns:cc="http://creativecommons.org/ns#"
   xmlns:rdf="http://www.w3.org/1999/02/22-rdf-syntax-ns#"
   xmlns:svg="http://www.w3.org/2000/svg"
   xmlns="http://www.w3.org/2000/svg"
   xmlns:sodipodi="http://sodipodi.sourceforge.net/DTD/sodipodi-0.dtd"
   xmlns:inkscape="http://www.inkscape.org/namespaces/inkscape"
   width="64"
   height="64"
   viewBox="0 0 16.933333 16.933334"
   version="1.1"
   id="svg8"
   inkscape:version="1.0 (4035a4fb49, 2020-05-01)"
   sodipodi:docname="psb-c.svg">
  <defs
     id="defs2" />
  <sodipodi:namedview
     id="base"
     pagecolor="#ffffff"
     bordercolor="#666666"
     borderopacity="1.0"
     inkscape:pageopacity="0.0"
     inkscape:pageshadow="2"
     inkscape:zoom="11.796875"
     inkscape:cx="32"
     inkscape:cy="32"
     inkscape:document-units="px"
     inkscape:current-layer="layer1"
     inkscape:document-rotation="0"
     showgrid="true"
     units="px"
     inkscape:pagecheckerboard="true"
     inkscape:window-width="1920"
     inkscape:window-height="991"
     inkscape:window-x="-9"
     inkscape:window-y="-9"
     inkscape:window-maximized="1">
    <inkscape:grid
       type="xygrid"
       id="grid833" />
  </sodipodi:namedview>
  <metadata
     id="metadata5">
    <rdf:RDF>
      <cc:Work
         rdf:about="">
        <dc:format>image/svg+xml</dc:format>
        <dc:type
           rdf:resource="http://purl.org/dc/dcmitype/StillImage" />
        <dc:title></dc:title>
      </cc:Work>
    </rdf:RDF>
  </metadata>
  <g
     inkscape:label="Layer 1"
     inkscape:groupmode="layer"
     id="layer1">
    <path
       d="m 8.4666652,2.1166988 -6.0394199,4.3878701 2.30683,7.0993501 h 7.4651797 l 2.30684,-7.0993501 z m -0.12661,2.79313 c 0.7521702,-0.00201 1.52704,0.1841601 2.0086698,0.5265801 l 0.1974,0.1405599 -0.18242,0.1571001 c -0.1004,0.0864 -0.30651,0.2318199 -0.4578499,0.3229797 -0.2562299,0.1543503 -0.2661198,0.1656702 -0.1441799,0.16588 0.1451501,2.601e-4 0.4565898,-0.1015198 0.8423298,-0.2749198 l 0.25373,-0.1136901 0.12041,0.1416 c 0.60323,0.7087999 0.94051,1.5851499 0.91002,2.36524 -0.0135,0.3458002 -0.0323,0.4313899 -0.13074,0.5994501 -0.16218,0.2767499 -0.33326,0.3651499 -0.93225,0.48318 -0.9441897,0.18605 -0.8987499,0.11703 -0.8614396,1.3229202 0.0362,1.17141 0.0356,1.17363 -0.2341002,1.23146 -0.1149199,0.0246 -0.21571,0.0444 -0.2242698,0.0444 -0.009,0 -0.035,-0.0911 -0.0589,-0.20257 -0.0263,-0.12266 -0.0293,-0.26603 -0.007,-0.36381 0.025501,-0.11306 0.017801,-0.22442 -0.025799,-0.37156 -0.0566,-0.19075 -0.0732,-0.20884 -0.1767301,-0.19688 -0.1087599,0.0126 -0.1130001,0.0229 -0.1012899,0.22479 l 0.011901,0.21188 -0.2449499,0.15761 -0.2449402,0.15762 -0.021201,-0.39068 -0.021201,-0.39068 H 8.4881337 8.3610136 l -0.0594,0.47646 -0.0594,0.47646 -0.1736299,-5.29e-4 -0.1731201,-5.03e-4 -0.1245399,-0.50902 c -0.093098,-0.380518 -0.1398984,-0.506178 -0.1860285,-0.497128 -0.0966,0.019 -0.1852899,0.32435 -0.15762,0.54364 0.013401,0.10597 0.012401,0.28231 -0.003,0.39171 -0.026199,0.19141 -0.0327,0.19844 -0.1674302,0.19844 -0.0874,0 -0.1848199,-0.0383 -0.2588998,-0.10232 -0.1186701,-0.10256 -0.11884,-0.10329 -0.1090401,-0.59377 0.005,-0.27 0.0286,-0.6901 0.0517,-0.9338 0.0392,-0.4140603 0.0365,-0.4527503 -0.0455,-0.5916902 -0.0483,-0.0818 -0.0948,-0.14883 -0.1033499,-0.14883 -0.0742,0 -1.2274802,-0.2636501 -1.2815801,-0.2930101 -0.1271,-0.069 -0.29724,-0.2753 -0.3689699,-0.4470001 C 4.9219748,8.3025687 5.0774048,7.2323188 5.4688346,6.5706687 5.6006048,6.3479588 6.1986748,5.6725289 6.2641348,5.6725289 c 0.016399,0 0.0649,0.1543799 0.108,0.34314 0.0611,0.2673998 0.0979,0.3502797 0.1658898,0.37465 0.3013602,0.1079899 0.9259401,0.2993199 0.9379202,0.2873197 0.008,-0.008 -0.096,-0.0943 -0.2304701,-0.1922298 -0.52568,-0.38281 -0.6406999,-0.5520701 -0.6413101,-0.9436201 -2.91e-4,-0.19559 0.0801,-0.2670198 0.47439,-0.42013 0.36664,-0.1423699 0.8101201,-0.2108898 1.2614201,-0.2118699 z m -1.74511,2.34612 c -0.069,0.00101 -0.1386199,0.010099 -0.2108398,0.0274 -0.31013,0.0744 -0.6737803,0.4332599 -0.7710101,0.76068 -0.0826,0.2780098 -0.0834,0.34427 -0.007,0.5265898 0.1174401,0.28106 0.3493302,0.3496001 1.2097501,0.3560501 0.2910399,0.00201 0.60553,-0.0136 0.6986599,-0.0351 0.0962,-0.022201 0.2119701,-0.0888 0.2682001,-0.1539901 0.0845,-0.0979 0.095,-0.14301 0.0708,-0.3043799 C 7.7977046,8.0609687 7.5680745,7.7099288 7.2292544,7.4792486 7.0015945,7.3242388 6.8022645,7.2529188 6.5951844,7.2559988 Z m 3.7548098,0.024799 c -0.15408,2e-4 -0.30813,0.0301 -0.4309798,0.0894 -0.3621299,0.17531 -0.7253499,0.64051 -0.7968501,1.0216499 -0.0368,0.1963801 0.0402,0.4303501 0.1612302,0.4909302 0.0613,0.0307 0.3805698,0.0438 0.9193197,0.0377 0.72884,-0.008 0.84109,-0.019201 0.95963,-0.0909 v 5.291e-4 c 0.18123,-0.10966 0.24755,-0.2501799 0.24133,-0.5095298 -0.009,-0.3701402 -0.28135,-0.7856202 -0.62373,-0.95138 -0.12208,-0.0591 -0.27587,-0.0886 -0.42995,-0.088399 z M 8.2434254,8.6377781 c -0.0875,0.0359 -0.2617103,0.38325 -0.3219501,0.6671501 -0.052,0.24526 -0.0572,0.8142798 -0.009,0.9823708 0.0215,0.0748 0.0549,0.100899 0.1126501,0.0899 0.2633699,-0.0501 0.5640199,-0.0463 0.71624,0.008 0.1058,0.0382 0.1854198,0.0459 0.2118699,0.0212 0.023299,-0.0218 0.0424,-0.243029 0.0424,-0.4919597 -2.01e-5,-0.43297 -0.007,-0.4695999 -0.1653699,-0.8340601 -0.091,-0.20955 -0.1719,-0.3892499 -0.1798301,-0.3989498 -0.0358,-0.0439 -0.0531,0.0524 -0.0971,0.5472599 -0.0918,1.0307607 -0.1387099,1.0489997 -0.2134301,0.0842 -0.0279,-0.3608899 -0.0572,-0.6626098 -0.0651,-0.6707601 -0.008,-0.009 -0.019,-0.01 -0.0315,-0.005 z"
       inkscape:transform-center-y="0.12136393"
       inkscape:transform-center-x="0.064492841"
       style="fill:#000000;fill-opacity:1;fill-rule:evenodd;stroke:#ffffff;stroke-width:0.264583;stroke-linecap:butt;stroke-linejoin:miter;stroke-miterlimit:4;stroke-dasharray:none;stroke-opacity:1"
       id="path1303-1" />
  </g>
</svg>
