<?xml version="1.0" encoding="UTF-8" standalone="no"?>
<svg
   xmlns:dc="http://purl.org/dc/elements/1.1/"
   xmlns:cc="http://creativecommons.org/ns#"
   xmlns:rdf="http://www.w3.org/1999/02/22-rdf-syntax-ns#"
   xmlns:svg="http://www.w3.org/2000/svg"
   xmlns="http://www.w3.org/2000/svg"
   xmlns:xlink="http://www.w3.org/1999/xlink"
   xmlns:sodipodi="http://sodipodi.sourceforge.net/DTD/sodipodi-0.dtd"
   xmlns:inkscape="http://www.inkscape.org/namespaces/inkscape"
   sodipodi:docname="psb-m.svg"
   inkscape:version="1.0 (4035a4fb49, 2020-05-01)"
   id="svg8"
   version="1.1"
   viewBox="0 0 16.933333 16.933334"
   height="64"
   width="64">
  <defs
     id="defs2">
    <radialGradient
       inkscape:collect="always"
       xlink:href="#linearGradient980"
       id="radialGradient1501-7"
       cx="-59.266666"
       cy="128.58078"
       fx="-59.266666"
       fy="128.58078"
       r="6.1949439"
       gradientTransform="matrix(1.3667055,-2.4104193e-7,1.3449066e-7,1.3667066,89.466732,-165.14888)"
       gradientUnits="userSpaceOnUse" />
    <linearGradient
       inkscape:collect="always"
       id="linearGradient980">
      <stop
         style="stop-color:#f99f1e;stop-opacity:1"
         offset="0"
         id="stop976" />
      <stop
         style="stop-color:#cf241d;stop-opacity:1"
         offset="1"
         id="stop978" />
    </linearGradient>
  </defs>
  <sodipodi:namedview
     inkscape:window-maximized="1"
     inkscape:window-y="-9"
     inkscape:window-x="-9"
     inkscape:window-height="991"
     inkscape:window-width="1920"
     inkscape:pagecheckerboard="true"
     units="px"
     showgrid="true"
     inkscape:document-rotation="0"
     inkscape:current-layer="layer1"
     inkscape:document-units="px"
     inkscape:cy="32"
     inkscape:cx="32"
     inkscape:zoom="11.796875"
     inkscape:pageshadow="2"
     inkscape:pageopacity="0.0"
     borderopacity="1.0"
     bordercolor="#666666"
     pagecolor="#ffffff"
     id="base">
    <inkscape:grid
       id="grid833"
       type="xygrid" />
  </sodipodi:namedview>
  <metadata
     id="metadata5">
    <rdf:RDF>
      <cc:Work
         rdf:about="">
        <dc:format>image/svg+xml</dc:format>
        <dc:type
           rdf:resource="http://purl.org/dc/dcmitype/StillImage" />
        <dc:title></dc:title>
      </cc:Work>
    </rdf:RDF>
  </metadata>
  <g
     id="layer1"
     inkscape:groupmode="layer"
     inkscape:label="Layer 1">
    <path
       d="m 8.4666652,2.1166993 -6.0394199,4.38786 2.30683,7.0993497 h 7.4651797 l 2.30684,-7.0993497 z m -0.12661,2.7931199 c 0.7521702,-0.00201 1.52704,0.1841601 2.0086698,0.5265902 l 0.1974,0.1405599 -0.18242,0.1571001 c -0.1004,0.0864 -0.30651,0.2318199 -0.4578499,0.3229797 -0.2562299,0.1543503 -0.2661198,0.1656702 -0.1441799,0.16588 0.1451501,2.601e-4 0.4565898,-0.1015198 0.8423298,-0.2749198 l 0.25373,-0.1136901 0.12041,0.1415902 c 0.60323,0.7087999 0.94051,1.58515 0.91002,2.3652398 -0.0135,0.3458001 -0.0323,0.4313902 -0.13074,0.5994501 -0.16218,0.2767599 -0.33326,0.3651498 -0.93225,0.48319 -0.9441897,0.18605 -0.8987499,0.1170199 -0.8614396,1.3229197 0.0362,1.1714 0.0356,1.17362 -0.2341002,1.23145 -0.1149199,0.0246 -0.21571,0.0444 -0.2242698,0.0444 -0.009,0 -0.035,-0.0911 -0.0589,-0.20257 -0.0263,-0.12266 -0.0293,-0.26602 -0.007,-0.3638 0.025501,-0.11306 0.017801,-0.22443 -0.025799,-0.37156 -0.0567,-0.19076 -0.0732,-0.20884 -0.1767301,-0.19688 -0.1087699,0.0126 -0.1130001,0.0229 -0.1012899,0.22479 l 0.011899,0.21187 -0.2449499,0.15761 -0.2449502,0.15762 -0.021201,-0.39068 -0.021201,-0.39067 H 8.4881237 8.3609938 l -0.0594,0.47646 -0.0594,0.47645 -0.1736301,-5.29e-4 -0.1731198,-5.29e-4 -0.1245402,-0.50901 c -0.0931,-0.38052 -0.1399,-0.50618 -0.1860299,-0.49713 -0.0966,0.019 -0.1852901,0.32435 -0.1576199,0.54364 0.013399,0.10597 0.012401,0.28231 -0.003,0.39171 -0.0263,0.19141 -0.0327,0.19843 -0.1674299,0.19843 -0.0874,0 -0.1848102,-0.0383 -0.2589001,-0.10232 -0.1186699,-0.10256 -0.11884,-0.10329 -0.10903,-0.59376 0.005,-0.27 0.0286,-0.69011 0.0517,-0.9338 0.0392,-0.4140598 0.0365,-0.4527599 -0.0455,-0.59169 -0.048199,-0.081802 -0.094799,-0.1488318 -0.1033587,-0.1488318 -0.0743,0 -1.2274799,-0.2636499 -1.28157,-0.2930099 -0.1271,-0.069 -0.2972499,-0.2753 -0.3689699,-0.4470101 -0.2192401,-0.5248199 -0.0638,-1.5950798 0.32762,-2.2567199 0.1317699,-0.2227199 0.7298399,-0.8981401 0.7953,-0.8981401 0.016399,0 0.0649,0.1543701 0.10801,0.34314 0.0611,0.26739 0.0979,0.35028 0.16588,0.37465 0.3013599,0.10799 0.9259398,0.2993102 0.93793,0.2873201 0.008,-0.008 -0.096,-0.0943 -0.2304799,-0.19224 -0.52568,-0.38281 -0.6407002,-0.55206 -0.6413,-0.94361 -2.646e-4,-0.19559 0.0801,-0.2670302 0.47439,-0.42014 C 7.4451753,4.9792594 7.8886651,4.9107291 8.3399652,4.9097494 Z m -1.74511,2.34612 c -0.069,0.00101 -0.1386199,0.010099 -0.2108398,0.0274 -0.31013,0.0744 -0.6737803,0.43327 -0.7710101,0.7606901 -0.0826,0.2780098 -0.0834,0.3442599 -0.007,0.5265801 0.11743,0.28106 0.3493302,0.3495997 1.2097401,0.3560498 0.2910499,0.00201 0.6055299,-0.0136 0.6986699,-0.0351 0.0962,-0.022201 0.21196,-0.0888 0.2682001,-0.1539899 0.0845,-0.0979 0.095,-0.1430102 0.0708,-0.3043801 C 7.7977046,8.0609591 7.5680745,7.7099192 7.2292544,7.4792393 7.0015844,7.3242292 6.8022645,7.2528991 6.5951744,7.2559892 Z m 3.7548098,0.024799 c -0.15408,1.902e-4 -0.30813,0.0301 -0.4309798,0.0894 -0.3621299,0.1753205 -0.7253499,0.6405104 -0.7968501,1.0216504 -0.0368,0.1963801 0.0402,0.4303501 0.1612302,0.4909301 0.0613,0.0307 0.3805698,0.0438 0.9193197,0.0377 0.72884,-0.008 0.84109,-0.019201 0.95963,-0.091 v 5.292e-4 c 0.18123,-0.10966 0.24755,-0.25018 0.24133,-0.5095299 -0.009,-0.3701301 -0.28135,-0.7856201 -0.62373,-0.95138 -0.12208,-0.0591 -0.27587,-0.0886 -0.42995,-0.0884 z M 8.2434254,8.6377688 c -0.0875,0.0359 -0.2617103,0.3832598 -0.3219501,0.6671498 -0.052,0.24526 -0.0572,0.8142794 -0.009,0.9823694 0.0215,0.0748 0.0549,0.1009 0.1126601,0.0899 0.2633599,-0.0501 0.56402,-0.0463 0.71623,0.008 0.1058,0.0382 0.1854298,0.0459 0.2118799,0.0212 0.023299,-0.0218 0.0424,-0.24303 0.0424,-0.4919595 -2.02e-5,-0.4329599 -0.007,-0.4695899 -0.1653702,-0.8340598 -0.091,-0.2095601 -0.1718998,-0.3892502 -0.1798299,-0.3989501 -0.0358,-0.0439 -0.0531,0.0524 -0.0972,0.54727 -0.0918,1.0307494 -0.1387099,1.0489894 -0.2134301,0.0842 -0.028,-0.3608999 -0.0572,-0.6626199 -0.0651,-0.6707698 -0.008,-0.009 -0.019,-0.010001 -0.0315,-0.005 z"
       inkscape:transform-center-y="0.12136393"
       inkscape:transform-center-x="0.064492841"
       style="fill:url(#radialGradient1501-7);fill-opacity:1;fill-rule:evenodd;stroke:#000000;stroke-width:0.264583;stroke-linecap:butt;stroke-linejoin:miter;stroke-miterlimit:4;stroke-dasharray:none;stroke-opacity:1"
       id="path1303-1-7-1" />
  </g>
</svg>
