<?xml version="1.0" encoding="UTF-8" standalone="no"?>
<svg
   xmlns:dc="http://purl.org/dc/elements/1.1/"
   xmlns:cc="http://creativecommons.org/ns#"
   xmlns:rdf="http://www.w3.org/1999/02/22-rdf-syntax-ns#"
   xmlns:svg="http://www.w3.org/2000/svg"
   xmlns="http://www.w3.org/2000/svg"
   xmlns:sodipodi="http://sodipodi.sourceforge.net/DTD/sodipodi-0.dtd"
   xmlns:inkscape="http://www.inkscape.org/namespaces/inkscape"
   width="12"
   height="12"
   viewBox="0 0 3.1749999 3.1750001"
   version="1.1"
   id="svg8"
   inkscape:version="1.0 (4035a4fb49, 2020-05-01)"
   sodipodi:docname="red-mana-symbol.svg">
  <defs
     id="defs2" />
  <sodipodi:namedview
     inkscape:snap-smooth-nodes="true"
     inkscape:snap-object-midpoints="true"
     id="base"
     pagecolor="#ffffff"
     bordercolor="#666666"
     borderopacity="1.0"
     inkscape:pageopacity="0.0"
     inkscape:pageshadow="2"
     inkscape:zoom="37"
     inkscape:cx="10.5"
     inkscape:cy="10.5"
     inkscape:document-units="px"
     inkscape:current-layer="layer1"
     inkscape:document-rotation="0"
     showgrid="true"
     units="px"
     inkscape:pagecheckerboard="true"
     inkscape:window-width="1920"
     inkscape:window-height="1001"
     inkscape:window-x="-9"
     inkscape:window-y="-9"
     inkscape:window-maximized="1">
    <inkscape:grid
       type="xygrid"
       id="grid833" />
  </sodipodi:namedview>
  <metadata
     id="metadata5">
    <rdf:RDF>
      <cc:Work
         rdf:about="">
        <dc:format>image/svg+xml</dc:format>
        <dc:type
           rdf:resource="http://purl.org/dc/dcmitype/StillImage" />
        <dc:title></dc:title>
      </cc:Work>
    </rdf:RDF>
  </metadata>
  <g
     inkscape:label="Layer 1"
     inkscape:groupmode="layer"
     id="layer1">
    <g
       transform="translate(-10.318751)"
       id="g1069">
      <g
         id="g1028">
        <circle
           style="fill:#f8a890;fill-opacity:1;fill-rule:evenodd;stroke:none;stroke-width:0.015875;stroke-linecap:round;stroke-linejoin:bevel"
           id="path1609"
           cx="11.906251"
           cy="1.5875"
           r="1.5875001" />
        <path
           id="path1605"
           d="M 11.437201,2.9364471 C 11.291693,2.9213093 11.17802,2.8632889 11.062428,2.7451574 10.760138,2.4362247 10.753854,1.9735024 11.048138,1.692803 c 0.179622,-0.1713305 0.377905,-0.2195394 0.65972,-0.1603988 0.176088,0.036953 0.253044,0.020427 0.503799,-0.1081899 0.10278,-0.052718 0.191383,-0.091342 0.196895,-0.08583 0.01678,0.016783 -0.02593,0.2040637 -0.06752,0.2960712 -0.05511,0.1219161 -0.10474,0.1814718 -0.211794,0.254171 -0.118595,0.080536 -0.162441,0.1356691 -0.156289,0.1965214 0.0068,0.067382 0.0725,0.1109241 0.169529,0.1123719 0.06478,9.666e-4 0.08879,-0.00731 0.139306,-0.048003 0.03357,-0.027044 0.08214,-0.083116 0.107945,-0.1246038 0.04339,-0.069768 0.04775,-0.090824 0.0581,-0.2803659 0.0098,-0.1789263 0.01629,-0.2136388 0.05139,-0.2735368 0.07968,-0.135971 0.13174,-0.1394831 0.09634,-0.0065 -0.02841,0.1067204 -0.02847,0.1881997 -1.74e-4,0.2269007 0.02207,0.030177 0.02287,0.030164 0.05787,-9.348e-4 0.06826,-0.060667 0.15658,-0.3123486 0.123564,-0.3521302 -0.0095,-0.011397 -0.02882,-0.020791 -0.04303,-0.020877 -0.103381,-6.204e-4 -0.325353,-0.1774458 -0.383468,-0.3054749 -0.03238,-0.0713427 -0.04204,-0.18649466 -0.01563,-0.18649466 0.0086,0 0.0327,0.026789 0.0535,0.0595312 0.09365,0.14737956 0.153071,0.15032376 0.153071,0.007584 0,-0.11057532 -0.05695,-0.23948364 -0.128216,-0.29023044 -0.07947,-0.0565871 -0.1427,-0.0566944 -0.2629,-4.44e-4 -0.154632,0.0723611 -0.21425,0.0825298 -0.320978,0.0547466 -0.0895,-0.0232977 -0.127415,-0.0447188 -0.109994,-0.0621397 0.0051,-0.005078 0.05461,-0.0196732 0.110067,-0.032433 0.179609,-0.0413246 0.204021,-0.0526565 0.204021,-0.0947088 0,-0.072212 -0.139332,-0.12024951 -0.45775,-0.15781908 -0.241565,-0.0285018 -0.258091,-0.0455928 -0.07178,-0.0742338 0.19784,-0.0304136 0.504058,-0.0227718 0.664469,0.016582 0.37831,0.0928114 0.653879,0.34203036 0.803496,0.72666591 0.02838,0.0729581 0.05731,0.13265097 0.06428,0.13265097 0.02156,0 0.03349,-0.077564 0.0227,-0.14759325 -0.0057,-0.0366956 -0.02854,-0.12209628 -0.05085,-0.18977934 -0.02231,-0.0676831 -0.03772,-0.13160346 -0.03424,-0.14204532 0.0092,-0.0275356 0.09887,0.10914978 0.171249,0.26098734 0.09058,0.19001167 0.115357,0.30373557 0.108212,0.49673037 -0.0085,0.2287052 -0.05892,0.3265746 -0.313973,0.6090038 -0.105292,0.1165946 -0.191439,0.2182521 -0.191439,0.2259057 0,0.020488 0.01457,0.017868 0.142383,-0.025604 0.129912,-0.044186 0.229717,-0.098448 0.308812,-0.1678938 0.02918,-0.025622 0.05747,-0.046586 0.06287,-0.046586 0.02408,0 0.0059,0.082162 -0.03726,0.1681206 -0.128773,0.2566364 -0.303425,0.3605967 -0.651425,0.3877555 -0.312969,0.024425 -0.429723,0.064138 -0.406225,0.1381739 0.01474,0.046456 0.03616,0.05168 0.257899,0.062918 0.107773,0.00546 0.195951,0.016226 0.195951,0.023921 0,0.021751 -0.137761,0.075663 -0.277813,0.1087207 -0.231792,0.054711 -0.681782,0.085748 -0.905613,0.062462 z M 11.87926,1.0430832 c -0.03523,-0.019584 -0.258759,-0.25429966 -0.258759,-0.27170734 0,-0.0235694 0.07149,-0.00514 0.148368,0.0382491 0.04641,0.0261938 0.09418,0.047625 0.10616,0.047625 0.01197,0 0.04462,-0.0221456 0.07255,-0.0492125 0.06419,-0.0622141 0.155943,-0.068686 0.200131,-0.0141163 0.03983,0.0491861 0.03735,0.1496439 -0.0047,0.19172028 -0.0699,0.0699021 -0.193056,0.0967263 -0.263724,0.0574418 z M 11.103483,0.76976216 c -0.0058,-0.0306559 -0.01738,-0.0600146 -0.02583,-0.0652418 -0.0085,-0.005227 -0.05282,0.016283 -0.09858,0.0478003 -0.102016,0.070261 -0.128026,0.0733993 -0.113113,0.013648 0.02532,-0.10144938 0.19146,-0.30081953 0.294475,-0.35337356 0.153358,-0.0782379 0.317196,-0.0265033 0.317196,0.1001603 0,0.0643581 -0.03646,0.10208358 -0.112167,0.11605278 -0.07716,0.0142373 -0.116925,0.0429054 -0.173415,0.12501072 -0.02712,0.0394246 -0.05579,0.071681 -0.06371,0.071681 -0.0079,0 -0.0191,-0.025082 -0.02485,-0.0557378 z"
           style="fill:#270605;stroke-width:0.015875" />
      </g>
    </g>
  </g>
</svg>
