<?xml version="1.0" encoding="UTF-8" standalone="no"?>
<svg
   xmlns:dc="http://purl.org/dc/elements/1.1/"
   xmlns:cc="http://creativecommons.org/ns#"
   xmlns:rdf="http://www.w3.org/1999/02/22-rdf-syntax-ns#"
   xmlns:svg="http://www.w3.org/2000/svg"
   xmlns="http://www.w3.org/2000/svg"
   xmlns:sodipodi="http://sodipodi.sourceforge.net/DTD/sodipodi-0.dtd"
   xmlns:inkscape="http://www.inkscape.org/namespaces/inkscape"
   width="64"
   height="64"
   viewBox="0 0 16.933333 16.933334"
   version="1.1"
   id="svg8"
   inkscape:version="1.0 (4035a4fb49, 2020-05-01)"
   sodipodi:docname="rst-c.svg">
  <defs
     id="defs2" />
  <sodipodi:namedview
     id="base"
     pagecolor="#ffffff"
     bordercolor="#666666"
     borderopacity="1.0"
     inkscape:pageopacity="0.0"
     inkscape:pageshadow="2"
     inkscape:zoom="11.796875"
     inkscape:cx="32"
     inkscape:cy="32"
     inkscape:document-units="px"
     inkscape:current-layer="layer1"
     inkscape:document-rotation="0"
     showgrid="true"
     units="px"
     inkscape:pagecheckerboard="true"
     inkscape:window-width="1920"
     inkscape:window-height="991"
     inkscape:window-x="-9"
     inkscape:window-y="-9"
     inkscape:window-maximized="1">
    <inkscape:grid
       type="xygrid"
       id="grid833" />
  </sodipodi:namedview>
  <metadata
     id="metadata5">
    <rdf:RDF>
      <cc:Work
         rdf:about="">
        <dc:format>image/svg+xml</dc:format>
        <dc:type
           rdf:resource="http://purl.org/dc/dcmitype/StillImage" />
        <dc:title></dc:title>
      </cc:Work>
    </rdf:RDF>
  </metadata>
  <g
     inkscape:label="Layer 1"
     inkscape:groupmode="layer"
     id="layer1">
    <path
       id="path1303-8-7"
       style="fill:#000000;fill-opacity:1;fill-rule:evenodd;stroke:#ffffff;stroke-width:0.264583;stroke-linecap:butt;stroke-linejoin:miter;stroke-miterlimit:4;stroke-dasharray:none;stroke-opacity:1"
       inkscape:transform-center-x="0.064492841"
       inkscape:transform-center-y="0.12136393"
       d="M 8.4666668,2.1166659 2.4272427,6.5045106 4.7340785,13.603821 h 7.4651765 l 2.306836,-7.0993104 z m 0,3.0690635 c 0.033401,0 0.1443169,0.1527492 0.2464964,0.3389974 0.3076813,0.5609352 0.6367039,0.9891369 1.1715062,1.5239365 0.5347996,0.5348023 0.9630066,0.8638355 1.5239366,1.1715062 0.186269,0.1021768 0.338997,0.2131537 0.338997,0.2464964 0,0.03338 -0.152747,0.1443514 -0.338997,0.2464965 -0.540541,0.2964788 -0.978435,0.6294622 -1.4846645,1.1291305 -0.530389,0.5235151 -0.8390017,0.9184191 -1.1751204,1.5027511 -0.1262407,0.219488 -0.2495974,0.405831 -0.2738861,0.413927 -0.024289,0.008 -0.096261,-0.0772 -0.1596813,-0.189135 C 7.5865859,10.283975 6.7461395,9.4146866 5.586738,8.7477857 5.3663295,8.6210027 5.1857302,8.4944419 5.1857302,8.4666659 c 0,-0.027839 0.1805887,-0.1543367 0.4010078,-0.2811198 C 6.1727689,7.8484511 6.5671198,7.540193 7.0910398,7.0093912 7.5907107,6.5031639 7.9236809,6.0652679 8.2201703,5.5247268 8.3223392,5.3384548 8.433316,5.1857294 8.4666668,5.1857294 Z m 0,1.2913942 c -0.017912,0 -0.1096143,0.1285875 -0.2036049,0.2857712 C 7.9023608,7.3661421 7.3661456,7.90236 6.7628956,8.2630611 6.6057437,8.3570411 6.4771244,8.4486822 6.4771244,8.4666659 c 0,0.017912 0.1285796,0.1096222 0.2857712,0.2036049 0.60325,0.3607011 1.1394652,0.8969189 1.5001663,1.5001662 0.093999,0.157152 0.1856238,0.285771 0.2036049,0.285771 0.017912,0 0.1096142,-0.128588 0.2036048,-0.285771 0.3607011,-0.6032473 0.8969163,-1.1394651 1.5001664,-1.5001662 0.157152,-0.09398 0.285771,-0.1856211 0.285771,-0.2036049 0,-0.017912 -0.12859,-0.1096221 -0.285771,-0.2036048 C 9.5671879,7.90236 9.0309727,7.3661421 8.6702716,6.7628948 8.5762731,6.6057429 8.4846558,6.4771236 8.4666668,6.4771236 Z" />
  </g>
</svg>
