<?xml version="1.0" encoding="UTF-8" standalone="no"?>
<svg
   xmlns:dc="http://purl.org/dc/elements/1.1/"
   xmlns:cc="http://creativecommons.org/ns#"
   xmlns:rdf="http://www.w3.org/1999/02/22-rdf-syntax-ns#"
   xmlns:svg="http://www.w3.org/2000/svg"
   xmlns="http://www.w3.org/2000/svg"
   xmlns:xlink="http://www.w3.org/1999/xlink"
   xmlns:sodipodi="http://sodipodi.sourceforge.net/DTD/sodipodi-0.dtd"
   xmlns:inkscape="http://www.inkscape.org/namespaces/inkscape"
   sodipodi:docname="rst-m.svg"
   inkscape:version="1.0 (4035a4fb49, 2020-05-01)"
   id="svg8"
   version="1.1"
   viewBox="0 0 16.933333 16.933334"
   height="64"
   width="64">
  <defs
     id="defs2">
    <radialGradient
       inkscape:collect="always"
       xlink:href="#linearGradient980"
       id="radialGradient1749-0"
       cx="-127.00001"
       cy="60.684597"
       fx="-127.00001"
       fy="60.684597"
       r="6.1949444"
       gradientTransform="matrix(1.3667059,-5.3372945e-8,3.0481848e-7,1.3667057,182.03832,-72.354661)"
       gradientUnits="userSpaceOnUse" />
    <linearGradient
       inkscape:collect="always"
       id="linearGradient980">
      <stop
         style="stop-color:#f99f1e;stop-opacity:1"
         offset="0"
         id="stop976" />
      <stop
         style="stop-color:#cf241d;stop-opacity:1"
         offset="1"
         id="stop978" />
    </linearGradient>
  </defs>
  <sodipodi:namedview
     inkscape:window-maximized="1"
     inkscape:window-y="-9"
     inkscape:window-x="-9"
     inkscape:window-height="991"
     inkscape:window-width="1920"
     inkscape:pagecheckerboard="true"
     units="px"
     showgrid="true"
     inkscape:document-rotation="0"
     inkscape:current-layer="layer1"
     inkscape:document-units="px"
     inkscape:cy="32"
     inkscape:cx="32"
     inkscape:zoom="11.796875"
     inkscape:pageshadow="2"
     inkscape:pageopacity="0.0"
     borderopacity="1.0"
     bordercolor="#666666"
     pagecolor="#ffffff"
     id="base">
    <inkscape:grid
       id="grid833"
       type="xygrid" />
  </sodipodi:namedview>
  <metadata
     id="metadata5">
    <rdf:RDF>
      <cc:Work
         rdf:about="">
        <dc:format>image/svg+xml</dc:format>
        <dc:type
           rdf:resource="http://purl.org/dc/dcmitype/StillImage" />
        <dc:title></dc:title>
      </cc:Work>
    </rdf:RDF>
  </metadata>
  <g
     id="layer1"
     inkscape:groupmode="layer"
     inkscape:label="Layer 1">
    <path
       id="path1303-8-7-5-1"
       style="fill:url(#radialGradient1749-0);fill-opacity:1;fill-rule:evenodd;stroke:#000000;stroke-width:0.264583;stroke-linecap:butt;stroke-linejoin:miter;stroke-miterlimit:4;stroke-dasharray:none;stroke-opacity:1"
       inkscape:transform-center-x="0.064492841"
       inkscape:transform-center-y="0.12136393"
       d="M 8.4666752,2.1166665 2.4272553,6.5045114 4.7340854,13.603822 h 7.4651796 l 2.30684,-7.0993106 z m 0,3.0690639 c 0.0334,0 0.1443202,0.152749 0.2465001,0.3389972 0.30768,0.5609349 0.6367,0.9891368 1.1714999,1.523936 0.5347998,0.5348028 0.9630098,0.863836 1.5239398,1.171507 0.18627,0.1021768 0.339,0.2131528 0.339,0.2464959 0,0.03338 -0.15275,0.1443519 -0.339,0.2464969 -0.54054,0.2964781 -0.97843,0.629462 -1.4846597,1.12913 -0.5303901,0.5235156 -0.8390001,0.9184196 -1.1751199,1.5027516 -0.1262402,0.219488 -0.2496,0.405831 -0.2738901,0.413927 -0.024299,0.008 -0.0963,-0.0772 -0.15968,-0.189135 C 7.5865954,10.283976 6.7461454,9.4146865 5.5867451,8.7477865 5.3663353,8.6210035 5.1857453,8.4944424 5.1857453,8.4666665 c 0,-0.02784 0.18058,-0.1543371 0.4009998,-0.2811201 0.5860302,-0.337095 0.98039,-0.6453529 1.50431,-1.176155 0.4996702,-0.506227 0.8326401,-0.944123 1.1291301,-1.4846638 0.1021601,-0.1862731 0.2131401,-0.3389972 0.24649,-0.3389972 z m 0,1.291394 c -0.017899,0 -0.10961,0.128587 -0.2036,0.2857712 -0.3606999,0.6032468 -0.8969201,1.1394649 -1.5001698,1.5001658 -0.1571501,0.09398 -0.2857701,0.1856211 -0.2857701,0.2036051 0,0.01791 0.1285801,0.1096219 0.2857701,0.203605 0.6032497,0.3607009 1.1394699,0.896919 1.5001698,1.5001665 0.094,0.157152 0.18562,0.285771 0.2036,0.285771 0.017899,0 0.1096201,-0.128588 0.2036101,-0.285771 0.3606999,-0.6032475 0.89691,-1.1394656 1.5001597,-1.5001665 0.15716,-0.09398 0.28577,-0.185621 0.28577,-0.203605 0,-0.01791 -0.12859,-0.1096219 -0.28577,-0.2036051 C 9.5671953,7.9023605 9.0309852,7.3661424 8.6702853,6.7628956 8.5762852,6.6057434 8.4846653,6.4771244 8.4666752,6.4771244 Z" />
  </g>
</svg>
