<?xml version="1.0" encoding="UTF-8" standalone="no"?>
<svg
   xmlns:dc="http://purl.org/dc/elements/1.1/"
   xmlns:cc="http://creativecommons.org/ns#"
   xmlns:rdf="http://www.w3.org/1999/02/22-rdf-syntax-ns#"
   xmlns:svg="http://www.w3.org/2000/svg"
   xmlns="http://www.w3.org/2000/svg"
   xmlns:sodipodi="http://sodipodi.sourceforge.net/DTD/sodipodi-0.dtd"
   xmlns:inkscape="http://www.inkscape.org/namespaces/inkscape"
   sodipodi:docname="treasure-mana-symbol.svg"
   inkscape:version="1.0 (4035a4fb49, 2020-05-01)"
   id="svg8"
   version="1.1"
   viewBox="0 0 3.1749999 3.1750001"
   height="12"
   width="12">
  <defs
     id="defs2" />
  <sodipodi:namedview
     inkscape:window-maximized="1"
     inkscape:window-y="-9"
     inkscape:window-x="-9"
     inkscape:window-height="1001"
     inkscape:window-width="1920"
     inkscape:pagecheckerboard="true"
     units="px"
     showgrid="true"
     inkscape:document-rotation="0"
     inkscape:current-layer="layer1"
     inkscape:document-units="px"
     inkscape:cy="6"
     inkscape:cx="6"
     inkscape:zoom="64.75"
     inkscape:pageshadow="2"
     inkscape:pageopacity="0.0"
     borderopacity="1.0"
     bordercolor="#666666"
     pagecolor="#ffffff"
     id="base">
    <inkscape:grid
       id="grid833"
       type="xygrid" />
  </sodipodi:namedview>
  <metadata
     id="metadata5">
    <rdf:RDF>
      <cc:Work
         rdf:about="">
        <dc:format>image/svg+xml</dc:format>
        <dc:type
           rdf:resource="http://purl.org/dc/dcmitype/StillImage" />
        <dc:title></dc:title>
      </cc:Work>
    </rdf:RDF>
  </metadata>
  <g
     id="layer1"
     inkscape:groupmode="layer"
     inkscape:label="Layer 1">
    <g
       transform="translate(-17.991667,-8.4666667)"
       id="g1250">
      <g
         transform="translate(17.991667,4.2333332)"
         id="g1082-3">
        <g
           id="g1037-9">
          <circle
             r="1.5875001"
             cy="5.8208337"
             cx="1.5875"
             id="path857-3-5-9-3-9"
             style="fill:#c8c8c8;fill-opacity:1;fill-rule:evenodd;stroke:none;stroke-width:0.015875;stroke-linecap:round;stroke-linejoin:bevel" />
        </g>
      </g>
      <path
         sodipodi:nodetypes="scscscscs"
         style="fill:#000000;fill-opacity:1;stroke:none;stroke-width:0.264583px;stroke-linecap:butt;stroke-linejoin:miter;stroke-opacity:1"
         d="m 19.050001,9.5250003 c 0.264583,-0.264583 0,-0.79375 0.264583,-0.79375 0.264583,-10e-8 0,0.5291666 0.264583,0.7937499 0.264583,0.2645832 0.79375,-10e-8 0.79375,0.2645832 0,0.2645836 -0.529166,0 -0.79375,0.2645836 -0.264583,0.264583 10e-7,0.79375 -0.264583,0.79375 -0.264583,0 0,-0.529166 -0.264583,-0.79375 -0.264583,-0.2645832 -0.79375,1e-6 -0.79375,-0.2645834 0,-0.2645833 0.529167,-3e-7 0.79375,-0.2645833 z"
         id="path1109-1" />
      <path
         transform="scale(0.26458334)"
         d="m 76.373047,37.693359 c -0.228624,0.0058 -0.481077,0.0031 -0.746094,0.01367 -0.0044,0.492534 0.03689,1.129139 -0.376953,1.542969 -0.413826,0.413828 -1.050437,0.372516 -1.542969,0.376953 -0.01057,0.265017 -0.0079,0.517469 -0.01367,0.746094 0.494286,0.0054 1.138933,-0.04076 1.556641,0.376953 0.750021,0.750002 -2.1e-5,2.25 0.75,2.25 0.750002,0 2e-6,-1.499998 0.75,-2.25 0.749994,-0.749998 2.25,-2e-6 2.25,-0.75 0,-0.749998 -1.500006,-2e-6 -2.25,-0.75 -0.41771,-0.417712 -0.371534,-1.062354 -0.376953,-1.556641 z"
         style="fill:#000000;fill-opacity:1;stroke:none;stroke-width:0.749998px;stroke-linecap:butt;stroke-linejoin:miter;stroke-opacity:1"
         id="path1109-1-2" />
    </g>
  </g>
</svg>
