<?xml version="1.0" encoding="UTF-8" standalone="no"?>
<svg
   xmlns:dc="http://purl.org/dc/elements/1.1/"
   xmlns:cc="http://creativecommons.org/ns#"
   xmlns:rdf="http://www.w3.org/1999/02/22-rdf-syntax-ns#"
   xmlns:svg="http://www.w3.org/2000/svg"
   xmlns="http://www.w3.org/2000/svg"
   xmlns:sodipodi="http://sodipodi.sourceforge.net/DTD/sodipodi-0.dtd"
   xmlns:inkscape="http://www.inkscape.org/namespaces/inkscape"
   width="64"
   height="64"
   viewBox="0 0 16.933333 16.933334"
   version="1.1"
   id="svg1040"
   inkscape:version="1.0 (4035a4fb49, 2020-05-01)"
   sodipodi:docname="watermark-dragma.svg"
   inkscape:export-filename="D:\My Documents\Pictures\Vector Art\Cards\MTG\Panham - Arnox\Watermarks\Watermark - Adventurers.png"
   inkscape:export-xdpi="384"
   inkscape:export-ydpi="384">
  <defs
     id="defs1034" />
  <sodipodi:namedview
     inkscape:snap-smooth-nodes="true"
     id="base"
     pagecolor="#ffffff"
     bordercolor="#666666"
     borderopacity="1.0"
     inkscape:pageopacity="0.0"
     inkscape:pageshadow="2"
     inkscape:zoom="12.140625"
     inkscape:cx="32"
     inkscape:cy="32"
     inkscape:document-units="px"
     inkscape:current-layer="layer1"
     inkscape:document-rotation="0"
     showgrid="true"
     units="px"
     inkscape:pagecheckerboard="true"
     inkscape:window-width="1920"
     inkscape:window-height="1001"
     inkscape:window-x="-9"
     inkscape:window-y="-9"
     inkscape:window-maximized="1">
    <inkscape:grid
       type="xygrid"
       id="grid1603" />
  </sodipodi:namedview>
  <metadata
     id="metadata1037">
    <rdf:RDF>
      <cc:Work
         rdf:about="">
        <dc:format>image/svg+xml</dc:format>
        <dc:type
           rdf:resource="http://purl.org/dc/dcmitype/StillImage" />
        <dc:title />
      </cc:Work>
    </rdf:RDF>
  </metadata>
  <g
     inkscape:label="Layer 1"
     inkscape:groupmode="layer"
     id="layer1">
    <path
       transform="scale(0.26458334)"
       d="M 12 12 C 14.000001 14.000001 15 17 15 17 C 15 17 18 17.999999 20 20 C 18 17.999999 17 15 17 15 C 17 15 14.000001 14.000001 12 12 z M 32 12 C 32 19 30 24 30 24 C 32.000001 27 30 30 30 30 C 30 30 26.999999 32.000001 24 30 C 24 30 19 32 12 32 C 19 32 24 34 24 34 C 27 31.999999 30 34 30 34 C 30 34 32.000001 37.000002 30 40 C 30 40 32 45.000001 32 52 C 32 45.000001 34 40 34 40 C 31.999999 37.000002 34 34 34 34 C 34 34 36.999998 31.999999 40 34 C 40 34 45.000001 32 52 32 C 45.000001 32 40 30 40 30 C 36.999998 32 34 30 34 30 C 34 30 31.999999 27 34 24 C 34 24 32 19 32 12 z M 52 12 C 49.999999 14 47 15 47 15 C 47 15 46.000001 17.999999 44 20 C 46.000001 17.999999 49 17 49 17 C 49 17 49.999999 14 52 12 z M 20 44 C 17.999999 46.000001 15 47 15 47 C 15 47 14.000001 49.999999 12 52 C 14.000001 49.999999 17 49 17 49 C 17 49 17.999999 46.000001 20 44 z M 44 44 C 46.000001 46.000001 47 49 47 49 C 47 49 50.000003 49.999995 52 52 C 50.000003 49.999995 49 47 49 47 C 49 47 46.000001 46.000001 44 44 z "
       style="fill:#000000;fill-opacity:0.25274727;stroke:none;stroke-width:0.999999px;stroke-linecap:butt;stroke-linejoin:miter;stroke-opacity:1"
       id="path839-9" />
  </g>
</svg>
