<?xml version="1.0" encoding="UTF-8" standalone="no"?>
<svg
   xmlns:dc="http://purl.org/dc/elements/1.1/"
   xmlns:cc="http://creativecommons.org/ns#"
   xmlns:rdf="http://www.w3.org/1999/02/22-rdf-syntax-ns#"
   xmlns:svg="http://www.w3.org/2000/svg"
   xmlns="http://www.w3.org/2000/svg"
   xmlns:sodipodi="http://sodipodi.sourceforge.net/DTD/sodipodi-0.dtd"
   xmlns:inkscape="http://www.inkscape.org/namespaces/inkscape"
   inkscape:export-ydpi="384"
   inkscape:export-xdpi="384"
   inkscape:export-filename="D:\My Documents\Pictures\Vector Art\Cards\MTG\Panham - Arnox\Watermarks\Watermark - Adventurers.png"
   sodipodi:docname="watermark-despia.svg"
   inkscape:version="1.0 (4035a4fb49, 2020-05-01)"
   id="svg1040"
   version="1.1"
   viewBox="0 0 16.933333 16.933334"
   height="64"
   width="64">
  <defs
     id="defs1034" />
  <sodipodi:namedview
     inkscape:snap-center="true"
     inkscape:window-maximized="1"
     inkscape:window-y="-9"
     inkscape:window-x="-9"
     inkscape:window-height="1001"
     inkscape:window-width="1920"
     inkscape:pagecheckerboard="true"
     units="px"
     showgrid="true"
     inkscape:document-rotation="0"
     inkscape:current-layer="layer1"
     inkscape:document-units="px"
     inkscape:cy="32"
     inkscape:cx="32"
     inkscape:zoom="12.140625"
     inkscape:pageshadow="2"
     inkscape:pageopacity="0.0"
     borderopacity="1.0"
     bordercolor="#666666"
     pagecolor="#ffffff"
     id="base"
     inkscape:snap-smooth-nodes="true">
    <inkscape:grid
       id="grid1603"
       type="xygrid" />
  </sodipodi:namedview>
  <metadata
     id="metadata1037">
    <rdf:RDF>
      <cc:Work
         rdf:about="">
        <dc:format>image/svg+xml</dc:format>
        <dc:type
           rdf:resource="http://purl.org/dc/dcmitype/StillImage" />
        <dc:title />
      </cc:Work>
    </rdf:RDF>
  </metadata>
  <g
     id="layer1"
     inkscape:groupmode="layer"
     inkscape:label="Layer 1">
    <path
       d="m 7.3008464,5.27307 c -0.634238,1.2827206 -3.3841236,2.8702207 -4.8121095,2.778125 2.778124,4.811854 5.1841798,3.423047 5.1841798,3.423047 0,0 0.5163336,-0.306774 0.79375,-1.111043 0.2774159,0.804268 0.7937501,1.111043 0.7937501,1.111043 0,0 2.4060562,1.388806 5.1841802,-3.423047 C 13.016611,8.1432891 10.266723,6.5557896 9.6324871,5.27307 9.0154137,6.3418731 8.6553874,7.2409998 8.4666667,7.9943509 8.2779461,7.2409996 7.9179198,6.3418731 7.3008464,5.27307 Z M 7.146334,7.5215116 c 0.2000681,-0.0081 0.4264107,0.058037 0.6578409,0.2108399 -0.5421423,-0.1452661 -1.229846,0.2516092 -1.37511,0.79375 C 6.4024849,8.0831776 6.5609354,7.762324 6.8187052,7.6134956 6.915372,7.5576852 7.026293,7.5263725 7.146334,7.5215116 Z m 2.6406655,0 c 0.1200407,0.00486 0.2309615,0.036174 0.3276285,0.091984 0.257776,0.1488279 0.416226,0.4696836 0.389641,0.9126059 C 10.359009,7.9839607 9.6712983,7.5870846 9.1291586,7.7323515 9.3605896,7.579549 9.5869319,7.5134098 9.7869995,7.5215116 Z M 7.8568847,8.6180855 c 0.6484842,1.9169575 -1.413296,3.1075835 -2.749186,1.5875005 0.8858459,-0.05317 2.2602164,-0.8469217 2.749186,-1.5875005 z m -2.7729572,0.094051 c 0.2000676,-0.0081 0.4264096,0.058037 0.6578409,0.2108399 -0.5421421,-0.1452661 -1.2298439,0.2516092 -1.37511,0.79375 -0.02658,-0.4429239 0.1323851,-0.7637775 0.3901573,-0.9126059 0.096667,-0.05581 0.2070711,-0.087123 0.3271118,-0.091984 z m 6.7654785,0 c 0.120041,0.00486 0.230445,0.036174 0.327112,0.091984 0.257778,0.1488279 0.416743,0.4696836 0.390157,0.9126059 -0.145258,-0.5421408 -0.832969,-0.9390168 -1.37511,-0.79375 0.231433,-0.1528024 0.457774,-0.2189417 0.657841,-0.2108399 z M 9.7694296,9.5074369 c 0.189375,0.012669 0.3716734,0.069247 0.5327844,0.1622639 0.42963,0.2480469 0.710264,0.7541332 0.58446,1.3689082 C 10.397704,10.298031 9.7106283,9.9011562 8.8247845,9.8479845 9.1182273,9.5877741 9.4538044,9.4863218 9.7694296,9.5074369 Z"
       style="fill:#000000;fill-opacity:0.24542123;stroke:none;stroke-width:0.396875px;stroke-linecap:butt;stroke-linejoin:miter;stroke-opacity:1"
       id="path1825-1" />
  </g>
</svg>
