<?xml version="1.0" encoding="UTF-8" standalone="no"?>
<svg
   xmlns:dc="http://purl.org/dc/elements/1.1/"
   xmlns:cc="http://creativecommons.org/ns#"
   xmlns:rdf="http://www.w3.org/1999/02/22-rdf-syntax-ns#"
   xmlns:svg="http://www.w3.org/2000/svg"
   xmlns="http://www.w3.org/2000/svg"
   xmlns:sodipodi="http://sodipodi.sourceforge.net/DTD/sodipodi-0.dtd"
   xmlns:inkscape="http://www.inkscape.org/namespaces/inkscape"
   inkscape:export-ydpi="384"
   inkscape:export-xdpi="384"
   inkscape:export-filename="D:\My Documents\Pictures\Vector Art\Cards\MTG\Panham - Arnox\Watermarks\Watermark - Icejade.png"
   sodipodi:docname="watermark-icejade-cradle.svg"
   inkscape:version="1.0 (4035a4fb49, 2020-05-01)"
   id="svg1040"
   version="1.1"
   viewBox="0 0 16.933333 16.933334"
   height="64"
   width="64">
  <defs
     id="defs1034" />
  <sodipodi:namedview
     inkscape:window-maximized="1"
     inkscape:window-y="-9"
     inkscape:window-x="-9"
     inkscape:window-height="1001"
     inkscape:window-width="1920"
     inkscape:pagecheckerboard="true"
     units="px"
     showgrid="true"
     inkscape:document-rotation="0"
     inkscape:current-layer="layer1"
     inkscape:document-units="px"
     inkscape:cy="32"
     inkscape:cx="32"
     inkscape:zoom="12.140625"
     inkscape:pageshadow="2"
     inkscape:pageopacity="0.0"
     borderopacity="1.0"
     bordercolor="#666666"
     pagecolor="#ffffff"
     id="base"
     inkscape:snap-smooth-nodes="true">
    <inkscape:grid
       id="grid1603"
       type="xygrid" />
  </sodipodi:namedview>
  <metadata
     id="metadata1037">
    <rdf:RDF>
      <cc:Work
         rdf:about="">
        <dc:format>image/svg+xml</dc:format>
        <dc:type
           rdf:resource="http://purl.org/dc/dcmitype/StillImage" />
        <dc:title />
      </cc:Work>
    </rdf:RDF>
  </metadata>
  <g
     id="layer1"
     inkscape:groupmode="layer"
     inkscape:label="Layer 1">
    <path
       transform="scale(0.26458334)"
       d="M 32 12 L 28 16 L 28 24 L 32 28 L 36 24 L 36 16 L 32 12 z M 32 14 L 33 15 L 33 17.5 L 34 16.5 L 35 16.5 L 35 17.5 L 33 19.5 L 33 21.5 L 34 20.5 L 35 20.5 L 35 21.5 L 33 23.5 L 33 25 L 32 26 L 31 25 L 31 23.5 L 29 21.5 L 29 20.5 L 30 20.5 L 31 21.5 L 31 19.5 L 29 17.5 L 29 16.5 L 30 16.5 L 31 17.5 L 31 15 L 32 14 z M 19.607422 20.535156 L 14.144531 22 L 15.607422 27.464844 L 22.535156 31.464844 L 28 30 L 26.535156 24.535156 L 19.607422 20.535156 z M 44.392578 20.535156 L 37.464844 24.535156 L 36 30 L 41.464844 31.464844 L 48.392578 27.464844 L 49.855469 22 L 44.392578 20.535156 z M 19.541016 21.652344 L 20.40625 22.152344 L 21.138672 24.884766 L 22.871094 25.884766 L 22.503906 24.517578 L 23.003906 23.652344 L 23.871094 24.152344 L 24.603516 26.884766 L 25.902344 27.634766 L 26.267578 29 L 24.902344 29.365234 L 23.603516 28.615234 L 20.871094 29.347656 L 20.003906 28.847656 L 20.503906 27.982422 L 21.871094 27.615234 L 20.138672 26.615234 L 17.40625 27.347656 L 16.541016 26.847656 L 17.041016 25.982422 L 18.40625 25.615234 L 16.242188 24.365234 L 15.875 23 L 17.242188 22.634766 L 19.40625 23.884766 L 19.041016 22.517578 L 19.541016 21.652344 z M 44.458984 21.652344 L 44.958984 22.517578 L 44.59375 23.884766 L 46.757812 22.634766 L 48.125 23 L 47.757812 24.365234 L 45.59375 25.615234 L 46.958984 25.982422 L 47.458984 26.847656 L 46.59375 27.347656 L 43.861328 26.615234 L 42.128906 27.615234 L 43.496094 27.982422 L 43.996094 28.847656 L 43.128906 29.347656 L 40.396484 28.615234 L 39.097656 29.365234 L 37.732422 29 L 38.097656 27.634766 L 39.396484 26.884766 L 40.128906 24.152344 L 40.996094 23.652344 L 41.496094 24.517578 L 41.128906 25.884766 L 42.861328 24.884766 L 43.59375 22.152344 L 44.458984 21.652344 z M 22.535156 32.535156 L 15.607422 36.535156 L 14.144531 42 L 19.607422 43.464844 L 26.535156 39.464844 L 28 34 L 22.535156 32.535156 z M 41.464844 32.535156 L 36 34 L 37.464844 39.464844 L 44.392578 43.464844 L 49.855469 42 L 48.392578 36.535156 L 41.464844 32.535156 z M 24.902344 34.634766 L 26.267578 35 L 25.902344 36.365234 L 24.603516 37.115234 L 23.871094 39.847656 L 23.003906 40.347656 L 22.503906 39.482422 L 22.871094 38.115234 L 21.138672 39.115234 L 20.40625 41.847656 L 19.541016 42.347656 L 19.041016 41.482422 L 19.40625 40.115234 L 17.242188 41.365234 L 15.875 41 L 16.242188 39.634766 L 18.40625 38.384766 L 17.041016 38.017578 L 16.541016 37.152344 L 17.40625 36.652344 L 20.138672 37.384766 L 21.871094 36.384766 L 20.503906 36.017578 L 20.003906 35.152344 L 20.871094 34.652344 L 23.603516 35.384766 L 24.902344 34.634766 z M 39.097656 34.634766 L 40.396484 35.384766 L 43.128906 34.652344 L 43.996094 35.152344 L 43.496094 36.017578 L 42.128906 36.384766 L 43.861328 37.384766 L 46.59375 36.652344 L 47.458984 37.152344 L 46.958984 38.017578 L 45.59375 38.384766 L 47.757812 39.634766 L 48.125 41 L 46.757812 41.365234 L 44.59375 40.115234 L 44.958984 41.482422 L 44.458984 42.347656 L 43.59375 41.847656 L 42.861328 39.115234 L 41.128906 38.115234 L 41.496094 39.482422 L 40.996094 40.347656 L 40.128906 39.847656 L 39.396484 37.115234 L 38.097656 36.365234 L 37.732422 35 L 39.097656 34.634766 z M 32 36 L 28 40 L 28 48 L 32 52 L 36 48 L 36 40 L 32 36 z M 32 38 L 33 39 L 33 40.5 L 35 42.5 L 35 43.5 L 34 43.5 L 33 42.5 L 33 44.5 L 35 46.5 L 35 47.5 L 34 47.5 L 33 46.5 L 33 49 L 32 50 L 31 49 L 31 46.5 L 30 47.5 L 29 47.5 L 29 46.5 L 31 44.5 L 31 42.5 L 30 43.5 L 29 43.5 L 29 42.5 L 31 40.5 L 31 39 L 32 38 z "
       style="fill:#000000;fill-opacity:0.25274727;stroke:none;stroke-width:0.999999px;stroke-linecap:butt;stroke-linejoin:miter;stroke-opacity:1"
       id="path835" />
  </g>
</svg>
