<?xml version="1.0" encoding="UTF-8" standalone="no"?>
<svg
   xmlns:dc="http://purl.org/dc/elements/1.1/"
   xmlns:cc="http://creativecommons.org/ns#"
   xmlns:rdf="http://www.w3.org/1999/02/22-rdf-syntax-ns#"
   xmlns:svg="http://www.w3.org/2000/svg"
   xmlns="http://www.w3.org/2000/svg"
   xmlns:sodipodi="http://sodipodi.sourceforge.net/DTD/sodipodi-0.dtd"
   xmlns:inkscape="http://www.inkscape.org/namespaces/inkscape"
   width="12"
   height="12"
   viewBox="0 0 3.1749999 3.1750001"
   version="1.1"
   id="svg8"
   inkscape:version="1.0 (4035a4fb49, 2020-05-01)"
   sodipodi:docname="white-mana-symbol.svg">
  <defs
     id="defs2" />
  <sodipodi:namedview
     id="base"
     pagecolor="#ffffff"
     bordercolor="#666666"
     borderopacity="1.0"
     inkscape:pageopacity="0.0"
     inkscape:pageshadow="2"
     inkscape:zoom="37"
     inkscape:cx="10.5"
     inkscape:cy="10.5"
     inkscape:document-units="px"
     inkscape:current-layer="layer1"
     inkscape:document-rotation="0"
     showgrid="true"
     units="px"
     inkscape:pagecheckerboard="true"
     inkscape:window-width="1920"
     inkscape:window-height="1001"
     inkscape:window-x="-9"
     inkscape:window-y="-9"
     inkscape:window-maximized="1">
    <inkscape:grid
       type="xygrid"
       id="grid833" />
  </sodipodi:namedview>
  <metadata
     id="metadata5">
    <rdf:RDF>
      <cc:Work
         rdf:about="">
        <dc:format>image/svg+xml</dc:format>
        <dc:type
           rdf:resource="http://purl.org/dc/dcmitype/StillImage" />
        <dc:title />
      </cc:Work>
    </rdf:RDF>
  </metadata>
  <g
     inkscape:label="Layer 1"
     inkscape:groupmode="layer"
     id="layer1">
    <g
       id="g1051">
      <g
         id="g1016">
        <path
           d="M 1.5875,-2e-8 A 1.5874999,1.5874999 0 0 0 2e-8,1.5875 1.5874999,1.5874999 0 0 0 1.5875,3.175 1.5874999,1.5874999 0 0 0 3.175,1.5875 1.5874999,1.5874999 0 0 0 1.5875,-2e-8 Z"
           style="fill:#fdfae2;stroke-width:0.015875"
           id="path1646" />
        <path
           style="fill:#0f0f05;fill-opacity:1;stroke-width:0.015875"
           d="m 1.3811251,3.0575853 c 0,-0.00346 0.025274,-0.059509 0.056164,-0.1245546 0.03089,-0.065046 0.060268,-0.143557 0.065284,-0.1744696 0.00836,-0.0515 0.00151,-0.064482 -0.08179,-0.1550927 -0.090532,-0.098477 -0.090876,-0.099227 -0.082482,-0.1803969 0.00464,-0.04483 0.013287,-0.097041 0.019226,-0.1160253 0.023951,-0.076567 -0.1580774,-0.1103112 -0.2323708,-0.043077 -0.022135,0.020032 -0.029781,0.049006 -0.029781,0.1128473 0,0.1062422 -0.019101,0.1436434 -0.08808,0.1724649 -0.068223,0.028505 -0.14950626,0.028228 -0.34848204,-0.00119 C 0.39127502,2.5085418 0.3737048,2.4970187 0.51196874,2.4517877 0.63519176,2.4114773 0.7071269,2.3716528 0.7461119,2.3221623 0.7751322,2.2853223 0.7792015,2.2655983 0.770835,2.2023309 0.7579723,2.1050639 0.7905605,2.0336555 0.87429366,1.9756284 c 0.0342823,-0.023758 0.0623314,-0.049723 0.0623314,-0.057701 0,-0.030024 -0.0487645,-0.1071754 -0.0828166,-0.1310265 -0.0612632,-0.04291 -0.10674126,-0.030273 -0.19648044,0.054599 -0.04616,0.043656 -0.0954254,0.079375 -0.10947852,0.079375 -0.0767257,0 -0.17241018,-0.091291 -0.33120792,-0.3160004 -0.0948832,-0.1342662 -0.1184658,-0.1761246 -0.0992267,-0.1761246 0.00346,0 0.0588235,0.024621 0.12303126,0.054713 0.0642078,0.030092 0.14224722,0.059221 0.17342094,0.064732 0.0608843,0.010762 0.059795,0.011538 0.17555784,-0.1251304 0.0493749,-0.058292 0.0553669,-0.060814 0.1241334,-0.052256 0.0397399,0.00495 0.0918779,0.013691 0.11586228,0.019433 0.039698,0.0095 0.0464278,0.00423 0.0750576,-0.058869 0.0448724,-0.098892 0.040201,-0.1309442 -0.0298109,-0.204542 L 0.8127095,1.0616995 0.7174787,1.0724735 c -0.0833549,0.00943 -0.0971263,0.00708 -0.11043114,-0.018881 -0.0342992,-0.0669159 -0.0333759,-0.1431379 0.004438,-0.36635302 0.0216644,-0.12788532 0.0393898,-0.23481846 0.0393898,-0.23762916 0,-0.002811 0.006561,-0.00511 0.0145807,-0.00511 0.008019,0 0.0299067,0.0460547 0.0486385,0.10234386 0.0362235,0.10885152 0.0861923,0.19349598 0.1304907,0.22104426 0.0200016,0.0124385 0.0479536,0.009278 0.1075848,-0.0121652 0.10843574,-0.038993 0.16004024,-0.0176553 0.23294994,0.0963209 0.058671,0.091718 0.089453,0.10312026 0.1576877,0.0584111 0.052883,-0.0346504 0.085943,-0.10158402 0.085943,-0.1740039 0,-0.0497614 -0.011429,-0.0693689 -0.073831,-0.12665976 -0.071925,-0.0660346 -0.073304,-0.0690566 -0.05341,-0.11708538 0.011232,-0.0271157 0.064101,-0.087502 0.1174872,-0.13419186 0.134961,-0.11803236 0.3491319,-0.2690664 0.3553009,-0.25055946 0.00282,0.008453 -0.01938,0.0608443 -0.049328,0.11642568 -0.091824,0.17041782 -0.088456,0.22032534 0.021819,0.32330712 0.075902,0.0708825 0.097338,0.13381716 0.085369,0.25064028 l -0.010137,0.0989472 0.057904,0.0276125 c 0.031847,0.0151869 0.078582,0.0276125 0.1038564,0.0276125 0.074317,0 0.095845,-0.0354754 0.095845,-0.1579401 0,-0.12890448 0.011527,-0.14225322 0.1337281,-0.15486552 0.091364,-0.00943 0.4955029,0.0356176 0.5342212,0.0595469 0.031697,0.0195898 0.017427,0.0274271 -0.1257001,0.0690383 -0.2148667,0.0624679 -0.2286537,0.0802341 -0.1905073,0.24549276 0.022201,0.096179 0.00476,0.1309945 -0.10515,0.2099271 -0.082649,0.059354 -0.088301,0.087953 -0.030868,0.1562076 0.030891,0.036711 0.05436,0.048843 0.094487,0.048843 0.045396,0 0.060733,-0.010675 0.1024467,-0.071303 0.081028,-0.11777 0.169872,-0.1159174 0.2858424,0.00596 0.084466,0.088768 0.294791,0.3949685 0.2808647,0.4088949 -0.00532,0.00532 -0.068906,-0.018892 -0.1413005,-0.053806 C 2.7020206,1.614485 2.6618478,1.6160039 2.6034999,1.7303756 2.5591347,1.8173383 2.5246183,1.8316679 2.3874412,1.8200721 L 2.272348,1.8103421 2.239486,1.8635131 c -0.041541,0.067214 -0.04147,0.1056348 2.88e-4,0.1587248 0.054295,0.069025 0.1128595,0.090911 0.2120677,0.079251 0.084226,-0.0099 0.087894,-0.00875 0.1036111,0.032595 0.00896,0.023572 0.01607,0.087041 0.015795,0.1410427 -5.76e-4,0.1131542 -0.053268,0.4361145 -0.074642,0.4574885 -0.00863,0.00863 -0.034677,-0.038958 -0.064921,-0.1185775 C 2.3672478,2.4443991 2.3196921,2.3896857 2.2494763,2.4044044 2.1015881,2.4354046 2.0724865,2.433285 2.0274333,2.3882316 2.0036257,2.364424 1.9693275,2.320967 1.951215,2.2916603 1.909199,2.2236763 1.856061,2.2213703 1.7926516,2.2847803 c -0.037411,0.03741 -0.046404,0.06012 -0.046404,0.1171787 0,0.063242 0.00778,0.078332 0.073045,0.1417757 0.072129,0.070111 0.072742,0.071577 0.04887,0.1169774 C 1.8342886,2.7251361 1.715304,2.8358362 1.5478096,2.9587613 1.4181479,3.0539203 1.3811221,3.0758725 1.3811221,3.0575863 Z M 1.8301427,2.1593109 c 0.1208689,-0.045742 0.265263,-0.1789305 0.3242836,-0.299117 0.040287,-0.082038 0.044261,-0.1058124 0.044261,-0.2647564 0,-0.1564836 -0.00445,-0.1841124 -0.042797,-0.2659482 C 2.0962174,1.2021555 1.9705376,1.0744328 1.843254,1.0117713 1.746748,0.96426166 1.7271292,0.9604375 1.5798964,0.9604375 c -0.1450333,0 -0.1682697,0.004353 -0.2630883,0.0492848 -0.261123,0.1237389 -0.4127132,0.4060894 -0.36355856,0.6771612 0.0229687,0.1266647 0.0638915,0.2044381 0.16234876,0.3085421 0.095482,0.1009586 0.1580889,0.1417767 0.2788042,0.1817749 0.11738,0.038893 0.3061814,0.031141 0.4357402,-0.01789 z m -0.4447654,-0.0463 C 1.1884718,2.0399481 1.0505408,1.8745274 1.0182879,1.672761 0.9783624,1.4229966 1.1005879,1.1890701 1.3300332,1.0761146 c 0.097322,-0.047911 0.1183435,-0.052177 0.2571331,-0.052177 0.1417088,0 0.1573433,0.00336 0.2503983,0.053823 0.1205643,0.065381 0.2148245,0.1643127 0.2712639,0.2847088 0.035537,0.075806 0.042161,0.1114904 0.041775,0.2250304 -3.78e-4,0.1113756 -0.00768,0.1505164 -0.041833,0.2241552 C 2.0510021,1.9362242 1.9666941,2.0230842 1.845774,2.0826131 1.7110353,2.1489447 1.5167847,2.16177 1.3853773,2.1130109 Z"
           id="path1644" />
      </g>
    </g>
  </g>
</svg>
