<?xml version="1.0" encoding="UTF-8" standalone="no"?>
<svg
   xmlns:dc="http://purl.org/dc/elements/1.1/"
   xmlns:cc="http://creativecommons.org/ns#"
   xmlns:rdf="http://www.w3.org/1999/02/22-rdf-syntax-ns#"
   xmlns:svg="http://www.w3.org/2000/svg"
   xmlns="http://www.w3.org/2000/svg"
   xmlns:sodipodi="http://sodipodi.sourceforge.net/DTD/sodipodi-0.dtd"
   xmlns:inkscape="http://www.inkscape.org/namespaces/inkscape"
   width="64"
   height="64"
   viewBox="0 0 16.933333 16.933334"
   version="1.1"
   id="svg8"
   inkscape:version="1.0 (4035a4fb49, 2020-05-01)"
   sodipodi:docname="rules-icon.svg">
  <defs
     id="defs2" />
  <sodipodi:namedview
     id="base"
     pagecolor="#ffffff"
     bordercolor="#666666"
     borderopacity="1.0"
     inkscape:pageopacity="0.0"
     inkscape:pageshadow="2"
     inkscape:zoom="11.796875"
     inkscape:cx="32"
     inkscape:cy="32"
     inkscape:document-units="px"
     inkscape:current-layer="layer1"
     inkscape:document-rotation="0"
     showgrid="true"
     units="px"
     inkscape:pagecheckerboard="true"
     inkscape:snap-smooth-nodes="true"
     inkscape:snap-object-midpoints="true"
     inkscape:snap-center="true"
     inkscape:object-nodes="true"
     inkscape:window-width="1920"
     inkscape:window-height="991"
     inkscape:window-x="-9"
     inkscape:window-y="-9"
     inkscape:window-maximized="1"
     inkscape:snap-intersection-paths="true"
     inkscape:object-paths="true">
    <inkscape:grid
       type="xygrid"
       id="grid833" />
  </sodipodi:namedview>
  <metadata
     id="metadata5">
    <rdf:RDF>
      <cc:Work
         rdf:about="">
        <dc:format>image/svg+xml</dc:format>
        <dc:type
           rdf:resource="http://purl.org/dc/dcmitype/StillImage" />
        <dc:title></dc:title>
      </cc:Work>
    </rdf:RDF>
  </metadata>
  <g
     inkscape:label="Layer 1"
     inkscape:groupmode="layer"
     id="layer1">
    <path
       transform="scale(0.26458334)"
       d="M 12 4 C 12 4 8 4.0000002 8 8 L 8 56 C 8 56 8.0000002 60 12 60 L 52 60 C 52 60 56 59.999999 56 56 L 56 8 C 56 8 55.999999 3.9999996 52 4 L 12 4 z M 18 16 L 46 16 C 47.999997 16 48 18 48 18 C 48 20 46 20 46 20 L 18 20 C 16 20 16 18 16 18 C 16 16 18 16 18 16 z M 18 24 L 46 24 C 47.999997 24 48 26 48 26 C 48 28 46 28 46 28 L 18 28 C 16 28 16 26 16 26 C 16 24 18 24 18 24 z M 18 32 L 46 32 C 47.999997 32 48 34 48 34 C 48 36 46 36 46 36 L 18 36 C 16 36 16 34 16 34 C 16 32 18 32 18 32 z M 18 40 L 46 40 C 47.999997 40 48 42 48 42 C 48 44.000001 46 44 46 44 L 18 44 C 16 44 16 42 16 42 C 16 40.000003 18 40 18 40 z M 18 48 L 46 48 C 47.999997 48 48 50 48 50 C 48 52.000001 46 52 46 52 L 18 52 C 16 52 16 50 16 50 C 16 47.999999 18 48 18 48 z "
       style="fill:#000000;fill-opacity:1;stroke:none;stroke-width:0.999999px;stroke-linecap:butt;stroke-linejoin:miter;stroke-opacity:1"
       id="path832" />
  </g>
</svg>
