<?xml version="1.0" encoding="UTF-8" standalone="no"?>
<svg
   xmlns:dc="http://purl.org/dc/elements/1.1/"
   xmlns:cc="http://creativecommons.org/ns#"
   xmlns:rdf="http://www.w3.org/1999/02/22-rdf-syntax-ns#"
   xmlns:svg="http://www.w3.org/2000/svg"
   xmlns="http://www.w3.org/2000/svg"
   xmlns:sodipodi="http://sodipodi.sourceforge.net/DTD/sodipodi-0.dtd"
   xmlns:inkscape="http://www.inkscape.org/namespaces/inkscape"
   sodipodi:docname="search.svg"
   inkscape:version="1.0 (4035a4fb49, 2020-05-01)"
   id="svg8"
   version="1.1"
   viewBox="0 0 16.933333 16.933334"
   height="64"
   width="64">
  <defs
     id="defs2" />
  <sodipodi:namedview
     inkscape:window-maximized="1"
     inkscape:window-y="-9"
     inkscape:window-x="-9"
     inkscape:window-height="1001"
     inkscape:window-width="1920"
     inkscape:pagecheckerboard="true"
     units="px"
     showgrid="true"
     inkscape:document-rotation="0"
     inkscape:current-layer="layer1"
     inkscape:document-units="px"
     inkscape:cy="32"
     inkscape:cx="32"
     inkscape:zoom="12.140625"
     inkscape:pageshadow="2"
     inkscape:pageopacity="0.0"
     borderopacity="1.0"
     bordercolor="#666666"
     pagecolor="#ffffff"
     id="base">
    <inkscape:grid
       id="grid833"
       type="xygrid" />
  </sodipodi:namedview>
  <metadata
     id="metadata5">
    <rdf:RDF>
      <cc:Work
         rdf:about="">
        <dc:format>image/svg+xml</dc:format>
        <dc:type
           rdf:resource="http://purl.org/dc/dcmitype/StillImage" />
        <dc:title></dc:title>
      </cc:Work>
    </rdf:RDF>
  </metadata>
  <g
     id="layer1"
     inkscape:groupmode="layer"
     inkscape:label="Layer 1">
    <path
       d="M 7.4083336,2.1166667 A 5.2916671,5.2916671 0 0 0 2.1166667,7.4083336 5.2916671,5.2916671 0 0 0 7.4083336,12.700001 5.2916671,5.2916671 0 0 0 12.700002,7.4083336 5.2916671,5.2916671 0 0 0 7.4083336,2.1166667 Z m 0,1.0583334 A 4.2333337,4.2333337 0 0 1 11.641668,7.4083336 4.2333337,4.2333337 0 0 1 7.4083336,11.641668 4.2333337,4.2333337 0 0 1 3.1750002,7.4083336 4.2333337,4.2333337 0 0 1 7.4083336,3.1750001 Z"
       style="fill:#000000;fill-opacity:1;fill-rule:evenodd;stroke-width:0.264999;stroke-linecap:round;stroke-linejoin:round"
       id="path835" />
    <path
       sodipodi:nodetypes="cccsc"
       id="path842"
       d="m 13.758335,14.816668 -3.175001,-3.175 1.058334,-1.058334 3.175,3.175001 c 1.058333,1.058333 10e-7,2.116666 -1.058333,1.058333 z"
       style="fill:#000000;fill-opacity:1;stroke:none;stroke-width:0.264583px;stroke-linecap:butt;stroke-linejoin:miter;stroke-opacity:1" />
  </g>
</svg>
