<?xml version="1.0" encoding="UTF-8" standalone="no"?>
<svg
   xmlns:dc="http://purl.org/dc/elements/1.1/"
   xmlns:cc="http://creativecommons.org/ns#"
   xmlns:rdf="http://www.w3.org/1999/02/22-rdf-syntax-ns#"
   xmlns:svg="http://www.w3.org/2000/svg"
   xmlns="http://www.w3.org/2000/svg"
   xmlns:sodipodi="http://sodipodi.sourceforge.net/DTD/sodipodi-0.dtd"
   xmlns:inkscape="http://www.inkscape.org/namespaces/inkscape"
   width="64"
   height="64"
   viewBox="0 0 16.933333 16.933334"
   version="1.1"
   id="svg8"
   inkscape:version="1.0 (4035a4fb49, 2020-05-01)"
   sodipodi:docname="wubrg-2.svg">
  <defs
     id="defs2" />
  <sodipodi:namedview
     id="base"
     pagecolor="#ffffff"
     bordercolor="#666666"
     borderopacity="1.0"
     inkscape:pageopacity="0.0"
     inkscape:pageshadow="2"
     inkscape:zoom="12.140625"
     inkscape:cx="32"
     inkscape:cy="32"
     inkscape:document-units="px"
     inkscape:current-layer="layer1"
     inkscape:document-rotation="0"
     showgrid="true"
     units="px"
     inkscape:pagecheckerboard="true"
     inkscape:snap-smooth-nodes="false"
     inkscape:snap-object-midpoints="true"
     inkscape:snap-center="true"
     inkscape:object-nodes="false"
     inkscape:window-width="1920"
     inkscape:window-height="1001"
     inkscape:window-x="-9"
     inkscape:window-y="-9"
     inkscape:window-maximized="1">
    <inkscape:grid
       type="xygrid"
       id="grid833" />
  </sodipodi:namedview>
  <metadata
     id="metadata5">
    <rdf:RDF>
      <cc:Work
         rdf:about="">
        <dc:format>image/svg+xml</dc:format>
        <dc:type
           rdf:resource="http://purl.org/dc/dcmitype/StillImage" />
        <dc:title />
      </cc:Work>
    </rdf:RDF>
  </metadata>
  <g
     inkscape:label="Layer 1"
     inkscape:groupmode="layer"
     id="layer1">
    <circle
       r="8.4666672"
       cy="8.4666672"
       cx="8.4666672"
       id="path848"
       style="fill:#ffffff;fill-rule:evenodd;stroke-width:0.264999;stroke-linecap:round;stroke-linejoin:round" />
    <g
       id="g1063"
       transform="matrix(1.6666666,0,0,1.6666666,-2.2048613,11.112501)">
      <g
         id="g1024">
        <circle
           r="1.5875001"
           cy="1.5875"
           cx="8.4666672"
           id="path857-3"
           style="fill:#c8c0c0;fill-opacity:1;fill-rule:evenodd;stroke:none;stroke-width:0.015875;stroke-linecap:round;stroke-linejoin:bevel" />
      </g>
    </g>
    <g
       id="g1075"
       transform="matrix(1.6666667,0,0,1.6666667,-22.675522,4.4621243)">
      <g
         id="g1032">
        <path
           d="M 15.345832,-5.8e-8 A 1.5874999,1.5874999 0 0 0 13.758332,1.5875 1.5874999,1.5874999 0 0 0 15.345832,3.175 1.5874999,1.5874999 0 0 0 16.933332,1.5875 1.5874999,1.5874999 0 0 0 15.345832,-5.8e-8 Z"
           style="fill:#c2e3cd;stroke-width:0.015875"
           id="path2245" />
      </g>
    </g>
    <g
       id="g1069"
       transform="matrix(1.6666666,0,0,1.6666666,-14.816667,11.112501)">
      <g
         id="g1028">
        <circle
           r="1.5875001"
           cy="1.5875"
           cx="11.906251"
           id="path1609"
           style="fill:#f8a890;fill-opacity:1;fill-rule:evenodd;stroke:none;stroke-width:0.015875;stroke-linecap:round;stroke-linejoin:bevel" />
      </g>
    </g>
    <g
       id="g1051"
       transform="matrix(1.6666667,0,0,1.6666667,5.8208334,3.3333334e-8)">
      <g
         id="g1016">
        <path
           d="M 1.5875,-2e-8 A 1.5874999,1.5874999 0 0 0 2e-8,1.5875 1.5874999,1.5874999 0 0 0 1.5875,3.175 1.5874999,1.5874999 0 0 0 3.175,1.5875 1.5874999,1.5874999 0 0 0 1.5875,-2e-8 Z"
           style="fill:#fdfae2;stroke-width:0.015875"
           id="path1646" />
      </g>
    </g>
    <g
       id="g1057"
       transform="matrix(1.6666667,0,0,1.6666667,5.6669195,4.4317232)">
      <g
         id="g1020">
        <circle
           style="fill:#a8dcf8;fill-opacity:1;fill-rule:evenodd;stroke-width:0.015875;stroke-linecap:round;stroke-linejoin:bevel"
           id="path1460"
           cx="5.0270834"
           cy="1.5874997"
           r="1.5875" />
      </g>
    </g>
  </g>
</svg>
