<?xml version="1.0" encoding="UTF-8" standalone="no"?>
<svg
   xmlns:dc="http://purl.org/dc/elements/1.1/"
   xmlns:cc="http://creativecommons.org/ns#"
   xmlns:rdf="http://www.w3.org/1999/02/22-rdf-syntax-ns#"
   xmlns:svg="http://www.w3.org/2000/svg"
   xmlns="http://www.w3.org/2000/svg"
   xmlns:sodipodi="http://sodipodi.sourceforge.net/DTD/sodipodi-0.dtd"
   xmlns:inkscape="http://www.inkscape.org/namespaces/inkscape"
   sodipodi:docname="wubrg-1.svg"
   inkscape:version="1.0 (4035a4fb49, 2020-05-01)"
   id="svg8"
   version="1.1"
   viewBox="0 0 16.933333 16.933334"
   height="64"
   width="64">
  <defs
     id="defs2" />
  <sodipodi:namedview
     inkscape:window-maximized="1"
     inkscape:window-y="-9"
     inkscape:window-x="-9"
     inkscape:window-height="1001"
     inkscape:window-width="1920"
     inkscape:object-nodes="false"
     inkscape:snap-center="true"
     inkscape:snap-object-midpoints="true"
     inkscape:snap-smooth-nodes="false"
     inkscape:pagecheckerboard="true"
     units="px"
     showgrid="true"
     inkscape:document-rotation="0"
     inkscape:current-layer="layer1"
     inkscape:document-units="px"
     inkscape:cy="32"
     inkscape:cx="32"
     inkscape:zoom="12.140625"
     inkscape:pageshadow="2"
     inkscape:pageopacity="0.0"
     borderopacity="1.0"
     bordercolor="#666666"
     pagecolor="#ffffff"
     id="base">
    <inkscape:grid
       id="grid833"
       type="xygrid" />
  </sodipodi:namedview>
  <metadata
     id="metadata5">
    <rdf:RDF>
      <cc:Work
         rdf:about="">
        <dc:format>image/svg+xml</dc:format>
        <dc:type
           rdf:resource="http://purl.org/dc/dcmitype/StillImage" />
        <dc:title></dc:title>
      </cc:Work>
    </rdf:RDF>
  </metadata>
  <g
     id="layer1"
     inkscape:groupmode="layer"
     inkscape:label="Layer 1">
    <g
       transform="matrix(1.6666666,0,0,1.6666666,-2.2048613,11.112501)"
       id="g1063">
      <g
         id="g1024">
        <circle
           style="fill:#c8c0c0;fill-opacity:1;fill-rule:evenodd;stroke:none;stroke-width:0.015875;stroke-linecap:round;stroke-linejoin:bevel"
           id="path857-3"
           cx="8.4666672"
           cy="1.5875"
           r="1.5875001" />
        <path
           id="path851-0"
           d="m 8.8340083,2.8450435 c -0.00987,-0.045998 -0.010904,-0.099835 -0.00264,-0.1364994 0.00956,-0.042399 0.00664,-0.084153 -0.00974,-0.1393236 -0.021244,-0.071535 -0.027327,-0.078327 -0.066149,-0.073844 -0.040786,0.00471 -0.042542,0.00859 -0.038149,0.084311 l 0.0046,0.079375 -0.091918,0.059174 -0.091918,0.059174 -0.00794,-0.1464861 -0.00794,-0.1464862 H 8.4746041 8.426979 L 8.4046283,2.6630311 8.3822776,2.8416249 8.3173158,2.8414209 8.252354,2.8412169 8.205636,2.6503494 C 8.1707091,2.5076545 8.1530778,2.4606285 8.135778,2.4640251 8.099543,2.4711351 8.066424,2.5855893 8.076803,2.6678212 c 0.00502,0.039739 0.00452,0.105819 -0.0011,0.1468437 -0.00984,0.071779 -0.012203,0.07459 -0.062743,0.07459 -0.032758,0 -0.069279,-0.014485 -0.097061,-0.038495 C 7.871399,2.8122999 7.871361,2.8120949 7.875037,2.62817 7.877057,2.526918 7.885801,2.3693062 7.89446,2.2779217 7.909172,2.1226508 7.908049,2.1081158 7.877306,2.0560116 7.859213,2.0253456 7.841792,2.0002556 7.838594,2.0002556 7.810749,2.0002556 7.3783078,1.9013336 7.3580211,1.8903235 7.3103588,1.8644514 7.2464636,1.787104 7.2195677,1.7227182 7.1373544,1.5259091 7.1955912,1.124701 7.342387,0.8765848 7.391801,0.7930636 7.6161276,0.5397498 7.6406765,0.5397498 c 0.00614,0 0.024399,0.0579152 0.040566,0.12870046 0.022902,0.10027296 0.036625,0.13129122 0.062128,0.14042952 0.1130094,0.0404935 0.3472138,0.11224392 0.3517088,0.10774896 0.00296,-0.002957 -0.035892,-0.0354278 -0.08633,-0.0721579 C 7.8116201,0.70091758 7.7684833,0.63744766 7.7682556,0.49061649 7.7681416,0.41726897 7.7983384,0.39054487 7.9462107,0.3331259 8.312845,0.19076132 8.8834011,0.24566684 9.172378,0.4511219 L 9.246519,0.5038339 9.178062,0.5627366 C 9.140411,0.5951331 9.0631705,0.6496095 9.0064175,0.68379524 c -0.096088,0.0578796 -0.099809,0.062162 -0.054079,0.0622428 0.054431,9.6e-5 0.1712098,-0.0379897 0.3158606,-0.10301328 l 0.095094,-0.0427469 0.045174,0.0530797 C 9.6346795,0.9191575 9.7611116,1.2478295 9.7496764,1.5403644 9.744607,1.6700418 9.7376027,1.7021766 9.7006674,1.7652016 9.6398493,1.8689801 9.5757805,1.9022082 9.3511593,1.9464679 8.9970868,2.0162347 9.0140339,1.9902237 9.028023,2.4424302 9.041612,2.8817061 9.04146,2.8825082 8.940337,2.904195 8.89724,2.913435 8.859351,2.921 8.856138,2.921 c -0.00321,0 -0.013171,-0.03418 -0.02213,-0.075956 z M 8.6651006,2.1304476 c -4e-6,-0.1625904 -0.00267,-0.1760203 -0.062065,-0.3127602 -0.034133,-0.078581 -0.064492,-0.1458516 -0.067465,-0.1494897 -0.01344,-0.01645 -0.019807,0.019486 -0.036331,0.2050669 -0.034417,0.3865311 -0.052011,0.3935075 -0.08003,0.031735 -0.010482,-0.1353343 -0.021476,-0.2485637 -0.024432,-0.2516209 -0.025187,-0.02605 -0.1066964,0.1267636 -0.1325121,0.2484336 -0.019515,0.091973 -0.021403,0.3052822 -0.00326,0.3683124 0.00808,0.028057 0.020405,0.03798 0.042074,0.033861 0.098761,-0.018775 0.2116941,-0.017461 0.2687755,0.00313 0.039673,0.014309 0.069457,0.017334 0.079375,0.00806 0.00873,-0.00816 0.015873,-0.091289 0.015871,-0.1847262 z M 8.1094795,1.7467023 c 0.036058,-0.00833 0.079551,-0.033273 0.1006407,-0.057722 0.031668,-0.036713 0.035572,-0.053513 0.026498,-0.1140249 C 8.2156862,1.4353692 8.1295163,1.3037227 8.0024589,1.217217 7.8886277,1.1397162 7.7939735,1.1177672 7.6856507,1.1437534 7.56935,1.1716535 7.4329781,1.3061678 7.3965158,1.4289499 c -0.03096,0.1042528 -0.031305,0.1291409 -0.00274,0.1975126 0.044037,0.1053955 0.1311074,0.1309962 0.4537635,0.1334164 0.1091406,8.19e-4 0.2270125,-0.00511 0.2619374,-0.013177 z M 9.4774544,1.7237181 C 9.5454119,1.6825936 9.5703578,1.6299939 9.5680273,1.532739 9.5647015,1.3939381 9.4624773,1.2379832 9.3340824,1.1758282 9.2425201,1.1315038 9.103252,1.1317153 9.0111136,1.1763202 8.875315,1.2420591 8.7392696,1.4166348 8.7124563,1.559562 c -0.013815,0.07364 0.014918,0.1613188 0.060309,0.1840378 0.022982,0.011503 0.1427441,0.016403 0.3447767,0.014107 0.273312,-0.00311 0.3154582,-0.00709 0.3599122,-0.033987 z"
           style="fill:#161616;fill-opacity:1;stroke-width:0.015875" />
      </g>
    </g>
    <g
       transform="matrix(1.6666667,0,0,1.6666667,-22.675522,4.4621243)"
       id="g1075">
      <g
         id="g1032">
        <path
           id="path2245"
           style="fill:#c2e3cd;stroke-width:0.015875"
           d="M 15.345832,-5.8e-8 A 1.5874999,1.5874999 0 0 0 13.758332,1.5875 1.5874999,1.5874999 0 0 0 15.345832,3.175 1.5874999,1.5874999 0 0 0 16.933332,1.5875 1.5874999,1.5874999 0 0 0 15.345832,-5.8e-8 Z" />
        <path
           id="path2243"
           d="m 15.285419,2.9798483 c -0.01881,-0.020021 -0.04218,-0.059312 -0.05194,-0.087312 -0.0098,-0.028001 -0.02655,-0.050911 -0.03732,-0.050911 -0.01076,0 -0.04291,0.032508 -0.07145,0.07224 -0.02853,0.039732 -0.06011,0.069503 -0.07016,0.066157 -0.01005,-0.00334 -0.02982,-0.037639 -0.04392,-0.076208 -0.04072,-0.1113496 -0.105762,-0.1274508 -0.426795,-0.1056495 -0.08929,0.00606 -0.06841,-0.035989 0.05241,-0.1055605 0.08627,-0.049673 0.130076,-0.064199 0.217893,-0.072249 0.07492,-0.00687 0.123939,-0.020637 0.153961,-0.043248 0.04256,-0.032052 0.044,-0.037936 0.04272,-0.1740464 -10e-4,-0.110298 -0.0086,-0.1549808 -0.03478,-0.2058757 -0.04472,-0.086868 -0.125598,-0.1552118 -0.228499,-0.1930768 -0.161896,-0.059574 -0.164308,-0.059387 -0.208618,0.016223 -0.05054,0.086241 -0.143636,0.1393152 -0.26342,0.1501768 -0.112179,0.010172 -0.187839,-0.021066 -0.253527,-0.1046729 -0.113929,-0.1450086 -0.128846,-0.2635741 -0.049,-0.3894769 l 0.04827,-0.076108 -0.04033,-0.080929 c -0.04761,-0.095539 -0.05018,-0.1549023 -0.01047,-0.241383 0.03334,-0.072599 0.0703,-0.1096417 0.133298,-0.1335943 0.02422,-0.00921 0.0478,-0.029351 0.0524,-0.044761 0.0046,-0.015411 0.02148,-0.056595 0.03751,-0.091519 0.02275,-0.0495464 0.02744,-0.0882213 0.02134,-0.17600176 -0.0065,-0.0935024 -0.0021,-0.12366048 0.02589,-0.17857602 0.07481,-0.14663682 0.266518,-0.20279934 0.42124,-0.12340452 0.04323,0.0221823 0.07967,0.0387904 0.08097,0.0369068 0.0013,-0.001883 0.02616,-0.048616 0.05523,-0.10385004 0.09377,-0.17817156 0.235047,-0.26143116 0.443606,-0.26143116 0.129516,0 0.218029,0.0367976 0.332006,0.13802544 0.05169,0.0459083 0.09385,0.0714028 0.110214,0.0666497 0.229556,-0.0666707 0.431579,0.0305302 0.535922,0.25785312 0.03682,0.0802201 0.05419,0.10055688 0.09829,0.11511138 0.07422,0.0244939 0.118365,0.0989577 0.107365,0.18109206 -0.008,0.0598576 -0.0048,0.0660819 0.05538,0.1085113 0.07605,0.053578 0.1534,0.1817977 0.167865,0.2782535 0.0068,0.04552 0.0014,0.1019682 -0.01589,0.1639935 l -0.0263,0.094581 0.03899,0.046339 c 0.05033,0.059808 0.06244,0.1001546 0.05,0.1664849 -0.02109,0.1124323 -0.142109,0.1967367 -0.248778,0.173308 -0.02714,-0.00596 -0.07729,-0.03608 -0.111439,-0.06693 l -0.06209,-0.05609 -0.138537,0.00886 c -0.09055,0.00579 -0.192098,0.025973 -0.293176,0.058259 -0.133599,0.042673 -0.158052,0.055991 -0.17971,0.097873 -0.0392,0.075804 -0.06988,0.2474438 -0.07019,0.3925903 -2.58e-4,0.1255646 0.0021,0.1347718 0.0452,0.1750169 0.05837,0.054523 0.194427,0.097259 0.309649,0.097259 0.100908,0 0.206931,0.03626 0.196615,0.067243 -0.0037,0.011038 -0.02038,0.022134 -0.03712,0.024657 -0.01674,0.00252 -0.04812,0.00842 -0.06973,0.013107 l -0.0393,0.00852 0.0393,0.029692 c 0.03232,0.024417 0.03562,0.03337 0.01858,0.050393 -0.01969,0.019674 -0.0449,0.020403 -0.280041,0.0081 -0.0543,-0.00284 -0.06385,0.0018 -0.0718,0.034909 -0.01873,0.078009 -0.0536,0.07736 -0.170392,-0.00317 -0.05959,-0.041088 -0.116572,-0.074706 -0.126621,-0.074706 -0.01005,0 -0.04025,0.035719 -0.06711,0.079375 -0.02686,0.043656 -0.05123,0.079375 -0.05416,0.079375 -0.0029,0 -0.0207,-0.016381 -0.03951,-0.036402 z M 15.091832,1.8790985 c 0,-0.055943 -0.116194,-0.1716143 -0.193958,-0.1930861 -0.0619,-0.017093 -0.182033,-0.00834 -0.196016,0.014289 -0.0045,0.0073 0.01174,0.018071 0.03611,0.023942 0.06848,0.016498 0.179869,0.07651 0.258618,0.1393332 0.03929,0.031345 0.0768,0.05706 0.08334,0.057145 0.0065,7.8e-5 0.01191,-0.018645 0.01191,-0.041622 z m 0.755774,-0.1417583 c 0.123539,-0.037682 0.132061,-0.04298 0.116351,-0.072334 -0.02881,-0.053827 -0.05969,-0.05156 -0.150606,0.011058 C 15.726132,1.7361346 15.680707,1.778 15.702749,1.778 c 0.0064,0 0.07154,-0.018297 0.144857,-0.04066 z M 14.98553,1.4503856 C 15.00275,1.4331606 14.93264,1.3493749 14.901,1.3493749 c -0.04314,0 -0.110791,0.033714 -0.110791,0.055214 0,0.010102 0.0375,0.025708 0.08334,0.03468 0.04584,0.00897 0.08751,0.017419 0.0926,0.018772 0.0051,0.00135 0.01381,-0.00209 0.01938,-0.00766 z m 0.722885,-0.042826 c 0.03036,-0.031318 0.05508,-0.076183 0.06055,-0.1098484 0.0088,-0.054048 0.0059,-0.058598 -0.05668,-0.090535 -0.03625,-0.018495 -0.07281,-0.029363 -0.08125,-0.024152 -0.0084,0.00521 -0.01533,0.069775 -0.01533,0.1434754 0,0.1537254 0.01206,0.1642694 0.09271,0.08106 z M 15.266457,1.2456759 c 0,-0.043568 -0.008,-0.059085 -0.03572,-0.069574 -0.06774,-0.025602 -0.08269,0.027516 -0.02501,0.088906 0.0474,0.050455 0.06073,0.04621 0.06073,-0.019332 z"
           style="fill:#051b0f;stroke-width:0.015875" />
      </g>
    </g>
    <g
       transform="matrix(1.6666666,0,0,1.6666666,-14.816667,11.112501)"
       id="g1069">
      <g
         id="g1028">
        <circle
           style="fill:#f8a890;fill-opacity:1;fill-rule:evenodd;stroke:none;stroke-width:0.015875;stroke-linecap:round;stroke-linejoin:bevel"
           id="path1609"
           cx="11.906251"
           cy="1.5875"
           r="1.5875001" />
        <path
           id="path1605"
           d="M 11.437201,2.9364471 C 11.291693,2.9213093 11.17802,2.8632889 11.062428,2.7451574 10.760138,2.4362247 10.753854,1.9735024 11.048138,1.692803 c 0.179622,-0.1713305 0.377905,-0.2195394 0.65972,-0.1603988 0.176088,0.036953 0.253044,0.020427 0.503799,-0.1081899 0.10278,-0.052718 0.191383,-0.091342 0.196895,-0.08583 0.01678,0.016783 -0.02593,0.2040637 -0.06752,0.2960712 -0.05511,0.1219161 -0.10474,0.1814718 -0.211794,0.254171 -0.118595,0.080536 -0.162441,0.1356691 -0.156289,0.1965214 0.0068,0.067382 0.0725,0.1109241 0.169529,0.1123719 0.06478,9.666e-4 0.08879,-0.00731 0.139306,-0.048003 0.03357,-0.027044 0.08214,-0.083116 0.107945,-0.1246038 0.04339,-0.069768 0.04775,-0.090824 0.0581,-0.2803659 0.0098,-0.1789263 0.01629,-0.2136388 0.05139,-0.2735368 0.07968,-0.135971 0.13174,-0.1394831 0.09634,-0.0065 -0.02841,0.1067204 -0.02847,0.1881997 -1.74e-4,0.2269007 0.02207,0.030177 0.02287,0.030164 0.05787,-9.348e-4 0.06826,-0.060667 0.15658,-0.3123486 0.123564,-0.3521302 -0.0095,-0.011397 -0.02882,-0.020791 -0.04303,-0.020877 -0.103381,-6.204e-4 -0.325353,-0.1774458 -0.383468,-0.3054749 -0.03238,-0.0713427 -0.04204,-0.18649466 -0.01563,-0.18649466 0.0086,0 0.0327,0.026789 0.0535,0.0595312 0.09365,0.14737956 0.153071,0.15032376 0.153071,0.007584 0,-0.11057532 -0.05695,-0.23948364 -0.128216,-0.29023044 -0.07947,-0.0565871 -0.1427,-0.0566944 -0.2629,-4.44e-4 -0.154632,0.0723611 -0.21425,0.0825298 -0.320978,0.0547466 -0.0895,-0.0232977 -0.127415,-0.0447188 -0.109994,-0.0621397 0.0051,-0.005078 0.05461,-0.0196732 0.110067,-0.032433 0.179609,-0.0413246 0.204021,-0.0526565 0.204021,-0.0947088 0,-0.072212 -0.139332,-0.12024951 -0.45775,-0.15781908 -0.241565,-0.0285018 -0.258091,-0.0455928 -0.07178,-0.0742338 0.19784,-0.0304136 0.504058,-0.0227718 0.664469,0.016582 0.37831,0.0928114 0.653879,0.34203036 0.803496,0.72666591 0.02838,0.0729581 0.05731,0.13265097 0.06428,0.13265097 0.02156,0 0.03349,-0.077564 0.0227,-0.14759325 -0.0057,-0.0366956 -0.02854,-0.12209628 -0.05085,-0.18977934 -0.02231,-0.0676831 -0.03772,-0.13160346 -0.03424,-0.14204532 0.0092,-0.0275356 0.09887,0.10914978 0.171249,0.26098734 0.09058,0.19001167 0.115357,0.30373557 0.108212,0.49673037 -0.0085,0.2287052 -0.05892,0.3265746 -0.313973,0.6090038 -0.105292,0.1165946 -0.191439,0.2182521 -0.191439,0.2259057 0,0.020488 0.01457,0.017868 0.142383,-0.025604 0.129912,-0.044186 0.229717,-0.098448 0.308812,-0.1678938 0.02918,-0.025622 0.05747,-0.046586 0.06287,-0.046586 0.02408,0 0.0059,0.082162 -0.03726,0.1681206 -0.128773,0.2566364 -0.303425,0.3605967 -0.651425,0.3877555 -0.312969,0.024425 -0.429723,0.064138 -0.406225,0.1381739 0.01474,0.046456 0.03616,0.05168 0.257899,0.062918 0.107773,0.00546 0.195951,0.016226 0.195951,0.023921 0,0.021751 -0.137761,0.075663 -0.277813,0.1087207 -0.231792,0.054711 -0.681782,0.085748 -0.905613,0.062462 z M 11.87926,1.0430832 c -0.03523,-0.019584 -0.258759,-0.25429966 -0.258759,-0.27170734 0,-0.0235694 0.07149,-0.00514 0.148368,0.0382491 0.04641,0.0261938 0.09418,0.047625 0.10616,0.047625 0.01197,0 0.04462,-0.0221456 0.07255,-0.0492125 0.06419,-0.0622141 0.155943,-0.068686 0.200131,-0.0141163 0.03983,0.0491861 0.03735,0.1496439 -0.0047,0.19172028 -0.0699,0.0699021 -0.193056,0.0967263 -0.263724,0.0574418 z M 11.103483,0.76976216 c -0.0058,-0.0306559 -0.01738,-0.0600146 -0.02583,-0.0652418 -0.0085,-0.005227 -0.05282,0.016283 -0.09858,0.0478003 -0.102016,0.070261 -0.128026,0.0733993 -0.113113,0.013648 0.02532,-0.10144938 0.19146,-0.30081953 0.294475,-0.35337356 0.153358,-0.0782379 0.317196,-0.0265033 0.317196,0.1001603 0,0.0643581 -0.03646,0.10208358 -0.112167,0.11605278 -0.07716,0.0142373 -0.116925,0.0429054 -0.173415,0.12501072 -0.02712,0.0394246 -0.05579,0.071681 -0.06371,0.071681 -0.0079,0 -0.0191,-0.025082 -0.02485,-0.0557378 z"
           style="fill:#270605;stroke-width:0.015875" />
      </g>
    </g>
    <g
       transform="matrix(1.6666667,0,0,1.6666667,5.8208334,3.3333334e-8)"
       id="g1051">
      <g
         id="g1016">
        <path
           id="path1646"
           style="fill:#fdfae2;stroke-width:0.015875"
           d="M 1.5875,-2e-8 A 1.5874999,1.5874999 0 0 0 2e-8,1.5875 1.5874999,1.5874999 0 0 0 1.5875,3.175 1.5874999,1.5874999 0 0 0 3.175,1.5875 1.5874999,1.5874999 0 0 0 1.5875,-2e-8 Z" />
        <path
           id="path1644"
           d="m 1.3811251,3.0575853 c 0,-0.00346 0.025274,-0.059509 0.056164,-0.1245546 0.03089,-0.065046 0.060268,-0.143557 0.065284,-0.1744696 0.00836,-0.0515 0.00151,-0.064482 -0.08179,-0.1550927 -0.090532,-0.098477 -0.090876,-0.099227 -0.082482,-0.1803969 0.00464,-0.04483 0.013287,-0.097041 0.019226,-0.1160253 0.023951,-0.076567 -0.1580774,-0.1103112 -0.2323708,-0.043077 -0.022135,0.020032 -0.029781,0.049006 -0.029781,0.1128473 0,0.1062422 -0.019101,0.1436434 -0.08808,0.1724649 -0.068223,0.028505 -0.14950626,0.028228 -0.34848204,-0.00119 C 0.39127502,2.5085418 0.3737048,2.4970187 0.51196874,2.4517877 0.63519176,2.4114773 0.7071269,2.3716528 0.7461119,2.3221623 0.7751322,2.2853223 0.7792015,2.2655983 0.770835,2.2023309 0.7579723,2.1050639 0.7905605,2.0336555 0.87429366,1.9756284 c 0.0342823,-0.023758 0.0623314,-0.049723 0.0623314,-0.057701 0,-0.030024 -0.0487645,-0.1071754 -0.0828166,-0.1310265 -0.0612632,-0.04291 -0.10674126,-0.030273 -0.19648044,0.054599 -0.04616,0.043656 -0.0954254,0.079375 -0.10947852,0.079375 -0.0767257,0 -0.17241018,-0.091291 -0.33120792,-0.3160004 -0.0948832,-0.1342662 -0.1184658,-0.1761246 -0.0992267,-0.1761246 0.00346,0 0.0588235,0.024621 0.12303126,0.054713 0.0642078,0.030092 0.14224722,0.059221 0.17342094,0.064732 0.0608843,0.010762 0.059795,0.011538 0.17555784,-0.1251304 0.0493749,-0.058292 0.0553669,-0.060814 0.1241334,-0.052256 0.0397399,0.00495 0.0918779,0.013691 0.11586228,0.019433 0.039698,0.0095 0.0464278,0.00423 0.0750576,-0.058869 0.0448724,-0.098892 0.040201,-0.1309442 -0.0298109,-0.204542 L 0.8127095,1.0616995 0.7174787,1.0724735 c -0.0833549,0.00943 -0.0971263,0.00708 -0.11043114,-0.018881 -0.0342992,-0.0669159 -0.0333759,-0.1431379 0.004438,-0.36635302 0.0216644,-0.12788532 0.0393898,-0.23481846 0.0393898,-0.23762916 0,-0.002811 0.006561,-0.00511 0.0145807,-0.00511 0.008019,0 0.0299067,0.0460547 0.0486385,0.10234386 0.0362235,0.10885152 0.0861923,0.19349598 0.1304907,0.22104426 0.0200016,0.0124385 0.0479536,0.009278 0.1075848,-0.0121652 0.10843574,-0.038993 0.16004024,-0.0176553 0.23294994,0.0963209 0.058671,0.091718 0.089453,0.10312026 0.1576877,0.0584111 0.052883,-0.0346504 0.085943,-0.10158402 0.085943,-0.1740039 0,-0.0497614 -0.011429,-0.0693689 -0.073831,-0.12665976 -0.071925,-0.0660346 -0.073304,-0.0690566 -0.05341,-0.11708538 0.011232,-0.0271157 0.064101,-0.087502 0.1174872,-0.13419186 0.134961,-0.11803236 0.3491319,-0.2690664 0.3553009,-0.25055946 0.00282,0.008453 -0.01938,0.0608443 -0.049328,0.11642568 -0.091824,0.17041782 -0.088456,0.22032534 0.021819,0.32330712 0.075902,0.0708825 0.097338,0.13381716 0.085369,0.25064028 l -0.010137,0.0989472 0.057904,0.0276125 c 0.031847,0.0151869 0.078582,0.0276125 0.1038564,0.0276125 0.074317,0 0.095845,-0.0354754 0.095845,-0.1579401 0,-0.12890448 0.011527,-0.14225322 0.1337281,-0.15486552 0.091364,-0.00943 0.4955029,0.0356176 0.5342212,0.0595469 0.031697,0.0195898 0.017427,0.0274271 -0.1257001,0.0690383 -0.2148667,0.0624679 -0.2286537,0.0802341 -0.1905073,0.24549276 0.022201,0.096179 0.00476,0.1309945 -0.10515,0.2099271 -0.082649,0.059354 -0.088301,0.087953 -0.030868,0.1562076 0.030891,0.036711 0.05436,0.048843 0.094487,0.048843 0.045396,0 0.060733,-0.010675 0.1024467,-0.071303 0.081028,-0.11777 0.169872,-0.1159174 0.2858424,0.00596 0.084466,0.088768 0.294791,0.3949685 0.2808647,0.4088949 -0.00532,0.00532 -0.068906,-0.018892 -0.1413005,-0.053806 C 2.7020206,1.614485 2.6618478,1.6160039 2.6034999,1.7303756 2.5591347,1.8173383 2.5246183,1.8316679 2.3874412,1.8200721 L 2.272348,1.8103421 2.239486,1.8635131 c -0.041541,0.067214 -0.04147,0.1056348 2.88e-4,0.1587248 0.054295,0.069025 0.1128595,0.090911 0.2120677,0.079251 0.084226,-0.0099 0.087894,-0.00875 0.1036111,0.032595 0.00896,0.023572 0.01607,0.087041 0.015795,0.1410427 -5.76e-4,0.1131542 -0.053268,0.4361145 -0.074642,0.4574885 -0.00863,0.00863 -0.034677,-0.038958 -0.064921,-0.1185775 C 2.3672478,2.4443991 2.3196921,2.3896857 2.2494763,2.4044044 2.1015881,2.4354046 2.0724865,2.433285 2.0274333,2.3882316 2.0036257,2.364424 1.9693275,2.320967 1.951215,2.2916603 1.909199,2.2236763 1.856061,2.2213703 1.7926516,2.2847803 c -0.037411,0.03741 -0.046404,0.06012 -0.046404,0.1171787 0,0.063242 0.00778,0.078332 0.073045,0.1417757 0.072129,0.070111 0.072742,0.071577 0.04887,0.1169774 C 1.8342886,2.7251361 1.715304,2.8358362 1.5478096,2.9587613 1.4181479,3.0539203 1.3811221,3.0758725 1.3811221,3.0575863 Z M 1.8301427,2.1593109 c 0.1208689,-0.045742 0.265263,-0.1789305 0.3242836,-0.299117 0.040287,-0.082038 0.044261,-0.1058124 0.044261,-0.2647564 0,-0.1564836 -0.00445,-0.1841124 -0.042797,-0.2659482 C 2.0962174,1.2021555 1.9705376,1.0744328 1.843254,1.0117713 1.746748,0.96426166 1.7271292,0.9604375 1.5798964,0.9604375 c -0.1450333,0 -0.1682697,0.004353 -0.2630883,0.0492848 -0.261123,0.1237389 -0.4127132,0.4060894 -0.36355856,0.6771612 0.0229687,0.1266647 0.0638915,0.2044381 0.16234876,0.3085421 0.095482,0.1009586 0.1580889,0.1417767 0.2788042,0.1817749 0.11738,0.038893 0.3061814,0.031141 0.4357402,-0.01789 z m -0.4447654,-0.0463 C 1.1884718,2.0399481 1.0505408,1.8745274 1.0182879,1.672761 0.9783624,1.4229966 1.1005879,1.1890701 1.3300332,1.0761146 c 0.097322,-0.047911 0.1183435,-0.052177 0.2571331,-0.052177 0.1417088,0 0.1573433,0.00336 0.2503983,0.053823 0.1205643,0.065381 0.2148245,0.1643127 0.2712639,0.2847088 0.035537,0.075806 0.042161,0.1114904 0.041775,0.2250304 -3.78e-4,0.1113756 -0.00768,0.1505164 -0.041833,0.2241552 C 2.0510021,1.9362242 1.9666941,2.0230842 1.845774,2.0826131 1.7110353,2.1489447 1.5167847,2.16177 1.3853773,2.1130109 Z"
           style="fill:#0f0f05;fill-opacity:1;stroke-width:0.015875" />
      </g>
    </g>
    <g
       transform="matrix(1.6666667,0,0,1.6666667,5.6669195,4.4317232)"
       id="g1057">
      <g
         id="g1020">
        <circle
           r="1.5875"
           cy="1.5874997"
           cx="5.0270834"
           id="path1460"
           style="fill:#a8dcf8;fill-opacity:1;fill-rule:evenodd;stroke-width:0.015875;stroke-linecap:round;stroke-linejoin:bevel" />
        <path
           style="fill:#081c25;stroke-width:0.015875"
           d="M 4.7906201,2.8641275 C 4.5144357,2.7898574 4.306029,2.5532388 4.2394757,2.238375 4.2077521,2.0882906 4.2182603,1.8648032 4.2648542,1.698625 4.3366385,1.4426045 4.5386761,1.0972847 4.8035453,0.77790186 4.9333151,0.62142366 5.1938249,0.36512492 5.2231044,0.36512492 c 0.00817,0 0.00992,0.0328966 0.00401,0.0754063 -0.02795,0.2013168 -0.028692,0.36171858 -0.00214,0.46321026 0.037252,0.14239422 0.074816,0.21013442 0.2825442,0.50951712 0.100107,0.1442766 0.1964803,0.2907235 0.214163,0.3254375 C 5.8367535,1.9646009 5.833775,2.2471204 5.7138239,2.4839909 5.6617872,2.586749 5.5006247,2.746999 5.3959979,2.8000175 5.2221676,2.888104 4.9765186,2.9141185 4.7906201,2.8641275 Z M 5.5682098,2.2021514 c 0.0961,-0.073783 0.077166,-0.3194302 -0.037684,-0.4889235 -0.050953,-0.075195 -0.070181,-0.074159 -0.082159,0.00443 -0.00572,0.037554 -0.0319,0.1409241 -0.058169,0.2297106 -0.044853,0.1515983 -0.046267,0.1643215 -0.02321,0.2089094 0.013504,0.026114 0.033633,0.051133 0.04473,0.055598 0.038198,0.015369 0.1313477,0.00958 0.156491,-0.00972 z"
           id="path1456" />
      </g>
    </g>
  </g>
</svg>
